/* XPM */
static char * diamante_xpm[] = {
"60 60 210 2",
"  	c None",
". 	c #B3E2E9",
"+ 	c #5EC8D6",
"@ 	c #62C9D7",
"# 	c #5FC8D6",
"$ 	c #68CBD9",
"% 	c #69CBD9",
"& 	c #67CBD9",
"* 	c #66CAD8",
"= 	c #5DC8D6",
"- 	c #97D8E9",
"; 	c #9AD9EA",
"> 	c #7FD0E0",
", 	c #87D3E3",
"' 	c #61C9D7",
") 	c #7DD2E3",
"! 	c #88D4E4",
"~ 	c #99D9EA",
"{ 	c #8ED5E5",
"] 	c #92D7E2",
"^ 	c #89D4DF",
"/ 	c #75CEDC",
"( 	c #65CAD9",
"_ 	c #72CEDD",
": 	c #7CD1E4",
"< 	c #69CBDA",
"[ 	c #80D1E0",
"} 	c #98D9E9",
"| 	c #7DD0DD",
"1 	c #AEE0E9",
"2 	c #ADDFE9",
"3 	c #73CEDA",
"4 	c #96D8E9",
"5 	c #76CFE0",
"6 	c #6FCDDC",
"7 	c #63CAD8",
"8 	c #7BD1E3",
"9 	c #70CDDD",
"0 	c #75CEDD",
"a 	c #6ACBD8",
"b 	c #A8DEE7",
"c 	c #AFE0E9",
"d 	c #A4DCE6",
"e 	c #64CAD7",
"f 	c #8ED6E5",
"g 	c #7DD1E3",
"h 	c #73CEDE",
"i 	c #7AD1E2",
"j 	c #63C9D7",
"k 	c #96D8E8",
"l 	c #9CDAE4",
"m 	c #93D7E2",
"n 	c #66CBD9",
"o 	c #71CEDD",
"p 	c #64CAD8",
"q 	c #7AD0E3",
"r 	c #60C9D7",
"s 	c #8BD4E4",
"t 	c #94D7E8",
"u 	c #91D6E1",
"v 	c #7DD1DC",
"w 	c #68CAD9",
"x 	c #72CEDE",
"y 	c #7AD1E3",
"z 	c #73CEDF",
"A 	c #7DD1E4",
"B 	c #6BCCDA",
"C 	c #7ED1E0",
"D 	c #6ECCDA",
"E 	c #79CFDB",
"F 	c #A9DEE7",
"G 	c #6BCBD8",
"H 	c #91D7E7",
"I 	c #7BD1E2",
"J 	c #6DCCD9",
"K 	c #6ECDDC",
"L 	c #74CEDC",
"M 	c #63CAD7",
"N 	c #60C8D6",
"O 	c #8AD4E3",
"P 	c #63C9D8",
"Q 	c #75CFE0",
"R 	c #8FD5E5",
"S 	c #9BD9E3",
"T 	c #91D7E6",
"U 	c #76CEDD",
"V 	c #6ACBDB",
"W 	c #74CFDF",
"X 	c #7DD2E4",
"Y 	c #92D7E7",
"Z 	c #67CAD9",
"` 	c #84D2DD",
" .	c #ACDFE8",
"..	c #73CDDA",
"+.	c #98D9EA",
"@.	c #67CAD8",
"#.	c #75CFDF",
"$.	c #77D0E1",
"%.	c #81D1E1",
"&.	c #79CFDE",
"*.	c #ADE0E8",
"=.	c #A3DCE6",
"-.	c #7AD0E2",
";.	c #74CFE0",
">.	c #60C9D6",
",.	c #6CCCDB",
"'.	c #73CEDC",
").	c #88D3E3",
"!.	c #A3DCE5",
"~.	c #8CD5E5",
"{.	c #82D2E0",
"].	c #78D0E2",
"^.	c #64C9D8",
"/.	c #94D8E7",
"(.	c #8ED5E0",
"_.	c #7DD0DC",
":.	c #95D8E9",
"<.	c #6CCCDA",
"[.	c #76CFE1",
"}.	c #77CEDB",
"|.	c #69CBD8",
"1.	c #71CDDC",
"2.	c #78D0E1",
"3.	c #6ACBDA",
"4.	c #61C9D6",
"5.	c #77CFE2",
"6.	c #9EDAE4",
"7.	c #A5DDE6",
"8.	c #90D6E1",
"9.	c #72CDDA",
"0.	c #5BC7D6",
"a.	c #7FD3E3",
"b.	c #75CEDB",
"c.	c #AEE1E9",
"d.	c #7ACFDC",
"e.	c #81D3E4",
"f.	c #83D4E5",
"g.	c #85D5E5",
"h.	c #82D4E4",
"i.	c #7CD2E1",
"j.	c #5FC8D7",
"k.	c #6ECDDD",
"l.	c #64C9D7",
"m.	c #A9DEE8",
"n.	c #6CCCD9",
"o.	c #95D7E2",
"p.	c #74CEDE",
"q.	c #76CEDA",
"r.	c #7CD1E3",
"s.	c #78CFDB",
"t.	c #79D0E2",
"u.	c #66CAD9",
"v.	c #A7DDE7",
"w.	c #6BCBD9",
"x.	c #6ECCD9",
"y.	c #6FCDDD",
"z.	c #77CFE1",
"A.	c #A1DBE5",
"B.	c #79D0E1",
"C.	c #62C9D8",
"D.	c #7BD1E4",
"E.	c #8AD4DF",
"F.	c #6DCCDC",
"G.	c #70CCDA",
"H.	c #ADDFE8",
"I.	c #74CFDE",
"J.	c #9DDAE4",
"K.	c #86D3DE",
"L.	c #81D1DD",
"M.	c #71CDDE",
"N.	c #ABDFE8",
"O.	c #98D8E3",
"P.	c #96D8E2",
"Q.	c #7ED2E4",
"R.	c #7ACFDB",
"S.	c #6CCCDC",
"T.	c #65CAD7",
"U.	c #70CDDA",
"V.	c #93D7E1",
"W.	c #75CEDA",
"X.	c #74CEDA",
"Y.	c #65CAD8",
"Z.	c #74CEE0",
"`.	c #A4DDE6",
" +	c #A0DBE5",
".+	c #6BCCDB",
"++	c #6FCDD9",
"@+	c #8DD5E0",
"#+	c #88D3DF",
"$+	c #70CDDE",
"%+	c #6ECCDC",
"&+	c #71CDD9",
"*+	c #76D0E1",
"=+	c #A2DCE5",
"-+	c #69CBDB",
";+	c #86D2DE",
">+	c #68CBDA",
",+	c #99D8E3",
"'+	c #68CAD8",
")+	c #AADEE8",
"!+	c #A6DDE7",
"~+	c #9AD9E3",
"{+	c #90D5E1",
"]+	c #68CBD8",
"^+	c #7ED0DC",
"/+	c #AADFE8",
"(+	c #8DD4E0",
"_+	c #70CDD9",
":+	c #7CD0DC",
"<+	c #5FC9D6",
"                        . . . . . . . . . . . . . . . . . . . . . . . . . . . . . . . . . . . .                         ",
"                      + + + + + + + + + + + + + + + + + + + + + + + + + + + + + + + + + + + + + +                       ",
"                    @ + + + + + + + + + + + + + + + + + + + + + + + + + + + + + + + + + + + + + +                       ",
"                    + + + # $ % % % % % % % % % % % & + + + + + + & % % % % % % % % % % % % * + + +                     ",
"                  = + & # + - ; ; ; ; ; ; ; ; ; ; ; > + + # # + + > ; ; ; ; ; ; ; ; ; ; ; ; , + + + @                   ",
"                  + ' ) ' + ! ~ ~ ~ ~ ~ ~ ~ ~ ~ ~ { # + + ] ^ + + # { ~ ~ ~ ~ ~ ~ ~ ~ ~ ~ ~ / + ( # +                   ",
"                # + _ : < + [ ~ ~ ~ ~ ~ ~ ~ ~ ~ } * + + | 1 2 3 + + * } ~ ~ ~ ~ ~ ~ ~ ~ ~ 4 ' + 5 6 + '                 ",
"                + 7 8 : 9 + % ~ ~ ~ ~ ~ ~ ~ ~ ; 0 + + a b c c d e + + 0 ; ~ ~ ~ ~ ~ ~ ~ ~ f + ' g 8 # +                 ",
"              = + h : : i + j k ~ ~ ~ ~ ~ ~ ~ , + + # l c c c c m + + + , ~ ~ ~ ~ ~ ~ ~ ~ [ + n : : o + =               ",
"              + p : : : q r + s ~ ~ ~ ~ ~ ~ t ' + + u c c c c c c v + + ' t ~ ~ ~ ~ ~ ~ ; w + x : : y ' +               ",
"            + + z : : : A B + C ~ ~ ~ ~ ~ ~ D + + E 1 c c c c c c F G + + D ~ ~ ~ ~ ~ ~ H ' + I : : : h + +             ",
"          J + $ : : : : : K + L ~ ~ ~ ~ ~ [ + + M F c c c c c c c c l N + + [ ~ ~ ~ ~ ~ O + P 8 : : : 8 7 +             ",
"          + + Q : : : : : 5 + @ 4 ~ ~ ~ R # + = S c c c c c c c c c c ^ = + # T ~ ~ ~ ~ U + V : : : : : W + =           ",
"        @ + < X : : : : : 8 r = Y ~ ~ - Z + + ` c c c c c c c c c c c  ...+ + B +.~ ~ - @.+ #.: : : : : : ( +           ",
"        + + $.: : : : : : : P + %.~ ~ &.+ + G *.c c c c c c c c c c c c =.j + + C ~ ~ Y = r -.: : : : : : ;.+ +         ",
"      >.+ ,.: : : : : : : : _ + '.~ ).+ + # !.c c c c c c c c c c c c c c m + + N ~.~ {.+ P A : : : : : : : < + a       ",
"      + r ].: : : : : : : : z + ^./.j + + (.c c c c c c c c c c c c c c c 1 _.+ + Z :.<.+ o : : : : : : : : [.+ +       ",
"    # + ,.A : : : : : : : : g + # * + + }.c c c c c c c c c c c c c c c c c b |.+ + 1.' + 2.: : : : : : : : A 3.+ 4.    ",
"    + + 2.].].].].].].].].].5.P + + + + 6.7.7.7.7.7.7.7.7.7.7.7.7.7.7.7.7.7.7.8.+ + + + # [.].].].].].].].].].z + +     ",
"  + + + # # # # # # # # # # # + + + + + r ' ' ' ' ' ' ' ' ' ' ' ' ' ' ' ' ' ' >.+ + + + + # # # # # # # # # # # + + #   ",
"9.+ + + + + + + + + + + + + + + + + + + + + + + + + + + + + + + + + + + + + + + + + + + + + + + + + + + + + + + + + +   ",
"  # + + + = = = = = = = = = = = + + = 0.0.0.0.0.0.0.0.0.0.0.0.0.0.0.0.0.0.0.0.0.0.= + + = = = = = = = = = = = + + + '   ",
"    + + 7 X : : : : : : : : : a.P + b.c.c.c.c.c.c.c.c.c.c.c.c.c.c.c.c.c.c.c.c.c.c.d.+ p e.: : : f.g.g.g.g.h.i.j.+ +     ",
"      + + k.: : : : : : : : : : x + l.m.c c c c c c c c c c c c c c c c c c c c m.l.+ x : : : : : : : : : : K + +       ",
"      n.+ + 5 : : : : : : : : : 8 # + o.c c c c c c c c c c c c c c c c c c c c o.+ # q : : : : : : : : : p.+ + q.      ",
"        # + ' r.: : : : : : : : : V + s.1 c c c c c c c c c c c c c c c c c c 1 s.+ V : : : : : : : : : t.r + @         ",
"          = + u.: : : : : : : : : 5 + # v.c c c c c c c c c c c c c c c c c c v.# + 5 : : : : : : : : q P + =           ",
"            + + 6 : : : : : : : : A @ + (.c c c c c c c c c c c c c c c c c c (.+ @ A : : : : : : : : < + +             ",
"            w.+ + x : : : : : : : : 6 + x.c c c c c c c c c c c c c c c c c c x.+ 6 : : : : : : : : y.+ +               ",
"              e + r z.: : : : : : : 2.+ N A.c c c c c c c c c c c c c c c c A.N + 2.: : : : : : : B.+ + G               ",
"                # + C.8 : : : : : : D.p + E.c c c c c c c c c c c c c c c c E.+ p D.: : : : : : r.' + #                 ",
"                  + + ,.A : : : : : : F.+ G.H.c c c c c c c c c c c c c c  .J + F.: : : : : : : < + =                   ",
"                    + + I.: : : : : : [.+ = A.c c c c c c c c c c c c c c J.= # z.: : : : : : 9 + +                     ",
"                    j + # 2.: : : : : A P + K.c c c c c c c c c c c c c c L.+ ( A : : : : : W # + |.                    ",
"                      = + p r.: : : : : M.+ e 2 c c c c c c c c c c c c N.j + z : : : : : t.' + j                       ",
"                        + + & D.: : : : r.+ + O.c c c c c c c c c c c c P.+ + Q.: : : : : P + +                         ",
"                          + + y.: : : : : B + _.c c c c c c c c c c c c R.+ ,.: : : : : S.+ +                           ",
"                          * + + Q : : : : 5 + T.m.c c c c c c c c c c b @ + 5 : : : : #.+ + U.                          ",
"                            ' + r i : : : 8 @ + V.c c c c c c c c c c V.+ @ 8 : : : i r + j                             ",
"                              = + & A : : : V + W.c c c c c c c c c c X.+ V : : : r.Y.+ +                               ",
"                                + + K : : : Z.+ >.`.c c c c c c c c  +N + $.: : : .++ +                                 ",
"                                +++ + Q : : : ' + @+c c c c c c c c #++ p : : : $++ +                                   ",
"                                  = + r $.: : %++ &+*.c c c c c c  .x.+ y.: : *+r + T.                                  ",
"                                    # + Y.8 : B.+ = =+c c c c c c  += # t.: 8 ' + '                                     ",
"                                      + + -+: Q.Y.+ ^ c c c c c c ;++ ( A A >++ +                                       ",
"                                        + + W : x + @.c c c c c 1 l.+ x : x + +                                         ",
"                                        e + # B.I + # l c c c c ,++ + 8 5 + + '+                                        ",
"                                          = + p 8 Z + L.c c c c _.+ < t.P + +                                           ",
"                                            + + .+$++ |.)+c c !+' + W u.+ #                                             ",
"                                              + + 7 + = ~+c c {++ + C.+ +                                               ",
"                                              ]++ + + + ^+c c 9.+ + + + 3                                               ",
"                                                >.+ + + >./+d # + + + j                                                 ",
"                                                  + + + + V.(++ + + +                                                   ",
"                                                    + + + _+J + + +                                                     ",
"                                                    &++ + + + + + :+                                                    ",
"                                                      <++ + + + e                                                       ",
"                                                        = + + >.                                                        ",
"                                                          + +                                                           ",
"                                                                                                                        ",
"                                                                                                                        "};
