/* XPM */
static char * diamante32_xpm[] = {
"32 32 351 2",
"  	c #BA8A42",
". 	c #BA8A43",
"+ 	c #C09048",
"@ 	c #BD8C45",
"# 	c #BE8E46",
"$ 	c #BE9150",
"% 	c #B99E77",
"& 	c #BBA37F",
"* 	c #BCA47F",
"= 	c #B9A17E",
"- 	c #BCA37F",
"; 	c #B9A17D",
"> 	c #BC9662",
", 	c #C08F48",
"' 	c #BC8C45",
") 	c #BB8B44",
"! 	c #E2B266",
"~ 	c #CE9E55",
"{ 	c #E1B269",
"] 	c #B0B098",
"^ 	c #7EC9D2",
"/ 	c #80CED8",
"( 	c #7DCDD7",
"_ 	c #7FCED8",
": 	c #7ECDD7",
"< 	c #96C0BC",
"[ 	c #DFB36E",
"} 	c #BA8943",
"| 	c #C19149",
"1 	c #D3A35A",
"2 	c #DBAB60",
"3 	c #D6B57D",
"4 	c #6FC3CD",
"5 	c #60C8D6",
"6 	c #6DCCDA",
"7 	c #71CDDB",
"8 	c #70CDDB",
"9 	c #67CAD9",
"0 	c #5EC8D6",
"a 	c #61C9D7",
"b 	c #6ECCDB",
"c 	c #6ACBD9",
"d 	c #6CC6D1",
"e 	c #C5B893",
"f 	c #BA8A46",
"g 	c #D6A75D",
"h 	c #B3BBA5",
"i 	c #6BCAD9",
"j 	c #66CAD9",
"k 	c #8AD4E4",
"l 	c #98D8E9",
"m 	c #92D6E7",
"n 	c #6DCBDA",
"o 	c #70CCD9",
"p 	c #7ED0DC",
"q 	c #65CAD8",
"r 	c #87D3E3",
"s 	c #97D8E9",
"t 	c #7ED0DF",
"u 	c #64CAD8",
"v 	c #80C6CB",
"w 	c #B39161",
"x 	c #DCAC61",
"y 	c #D7B57D",
"z 	c #75C6CF",
"A 	c #77CFE1",
"B 	c #6CCCDB",
"C 	c #7FD1E0",
"D 	c #99D9EA",
"E 	c #7BD0DF",
"F 	c #69CBD8",
"G 	c #9BD9E3",
"H 	c #A6DDE7",
"I 	c #74CDDA",
"J 	c #6BCBD9",
"K 	c #96D8E9",
"L 	c #71CDDC",
"M 	c #72CEDE",
"N 	c #6DCBD8",
"O 	c #9EA492",
"P 	c #E1B268",
"Q 	c #E0B36B",
"R 	c #B1BBA6",
"S 	c #6ECBDB",
"T 	c #7BD1E4",
"U 	c #71CEDE",
"V 	c #75CEDD",
"W 	c #89D3E4",
"X 	c #67CAD8",
"Y 	c #8DD5E0",
"Z 	c #ADDFE8",
"` 	c #AFE0E9",
" .	c #9EDAE4",
"..	c #6ACBD8",
"+.	c #6ACBDA",
"@.	c #78D0E1",
"#.	c #76CFE1",
"$.	c #74C1C9",
"%.	c #D9B578",
"&.	c #C4B995",
"*.	c #6EC6D2",
"=.	c #78D0E2",
"-.	c #7CD1E4",
";.	c #76CFE0",
">.	c #94D7E8",
",.	c #91D6E7",
"'.	c #7BCFDB",
").	c #AADEE7",
"!.	c #8FD5E0",
"~.	c #66CAD8",
"{.	c #83D2E1",
"].	c #98D9EA",
"^.	c #88D3E3",
"/.	c #69CBDA",
"(.	c #7BD1E3",
"_.	c #6DCBD9",
":.	c #BCBA9D",
"<.	c #DDB471",
"[.	c #8EC1C0",
"}.	c #6FCDDD",
"|.	c #79D0E2",
"1.	c #67CBD9",
"2.	c #8FD6E6",
"3.	c #6FCCD9",
"4.	c #A3DCE5",
"5.	c #7CCFDC",
"6.	c #68CAD9",
"7.	c #98D9E9",
"8.	c #78CFDE",
"9.	c #80C6CC",
"0.	c #D8B57A",
"a.	c #B6AE90",
"b.	c #6BC8D5",
"c.	c #6BCCDB",
"d.	c #81D1E1",
"e.	c #82D2E1",
"f.	c #68CAD8",
"g.	c #96D7E2",
"h.	c #AEE0E9",
"i.	c #A3DCE6",
"j.	c #6ECCD9",
"k.	c #72CDDC",
"l.	c #90D6E6",
"m.	c #75CFE0",
"n.	c #6FCCDB",
"o.	c #9EC1BA",
"p.	c #BE9455",
"q.	c #B68F55",
"r.	c #80BABD",
"s.	c #70CDDE",
"t.	c #70CDDD",
"u.	c #82D1DD",
"v.	c #AADEE8",
"w.	c #ADDFE9",
"x.	c #ADE0E9",
"y.	c #ACDFE8",
"z.	c #94D7E2",
"A.	c #73CEDD",
"B.	c #72C8D3",
"C.	c #AEA080",
"D.	c #A0A38F",
"E.	c #69C7D3",
"F.	c #68CBDA",
"G.	c #6ACBDB",
"H.	c #5FC8D6",
"I.	c #79CFDB",
"J.	c #83D2DD",
"K.	c #82D2DD",
"L.	c #64CAD7",
"M.	c #69CBDB",
"N.	c #62C9D7",
"O.	c #89B8B6",
"P.	c #B88D4F",
"Q.	c #8FB2AD",
"R.	c #63C8D4",
"S.	c #60C9D7",
"T.	c #62C9D8",
"U.	c #64C9D7",
"V.	c #6BCBD8",
"W.	c #63CAD8",
"X.	c #79C0C5",
"Y.	c #B5905A",
"Z.	c #86B5B5",
"`.	c #7AD0E3",
" +	c #7AD0E2",
".+	c #81D1DD",
"++	c #A9DEE7",
"@+	c #AADFE8",
"#+	c #9CDAE4",
"$+	c #68CBD9",
"%+	c #7CD1E3",
"&+	c #7DD2E3",
"*+	c #73C7D1",
"=+	c #B0A07D",
"-+	c #CBB68B",
";+	c #76C7CF",
">+	c #74CEE0",
",+	c #73CDDA",
"'+	c #8BD4DF",
")+	c #6BC9D6",
"!+	c #ACBEAF",
"~+	c #BF9352",
"{+	c #C7B891",
"]+	c #71C8D3",
"^+	c #69CBD9",
"/+	c #9AD9E3",
"(+	c #74CEDF",
"_+	c #79D0E3",
":+	c #6DCAD8",
"<+	c #A7BDB0",
"[+	c #A2C0B7",
"}+	c #6ACAD7",
"|+	c #6ECDDD",
"1+	c #6CCCDC",
"2+	c #86C5C9",
"3+	c #DBB475",
"4+	c #D1A258",
"5+	c #DCB474",
"6+	c #9FBFB7",
"7+	c #7BD0E3",
"8+	c #70CCDA",
"9+	c #A7DDE7",
"0+	c #86D2DE",
"a+	c #73CEDF",
"b+	c #75C4CC",
"c+	c #CEB789",
"d+	c #E2B267",
"e+	c #C1914A",
"f+	c #D8B478",
"g+	c #7EC6CC",
"h+	c #97D8E2",
"i+	c #71CCDA",
"j+	c #69C8D5",
"k+	c #C0B695",
"l+	c #DEAE63",
"m+	c #BE8E47",
"n+	c #BA8B46",
"o+	c #AEA385",
"p+	c #77C7CF",
"q+	c #74CFE0",
"r+	c #7DD0DC",
"s+	c #99D9E3",
"t+	c #6BC9D7",
"u+	c #8EB1AC",
"v+	c #DFAF63",
"w+	c #BA8C47",
"x+	c #9CA695",
"y+	c #68C9D7",
"z+	c #77D0E1",
"A+	c #6DCCD9",
"B+	c #A5DCE6",
"C+	c #7FD0DD",
"D+	c #6BCCDC",
"E+	c #81C3C7",
"F+	c #C39E65",
"G+	c #C4944C",
"H+	c #C9A368",
"I+	c #88B5B4",
"J+	c #6ACAD9",
"K+	c #90D6E0",
"L+	c #A5DDE6",
"M+	c #74C3CC",
"N+	c #AB9B7A",
"O+	c #BF8F48",
"P+	c #E1B165",
"Q+	c #D9B579",
"R+	c #78C3CA",
"S+	c #71CDDE",
"T+	c #78CFDB",
"U+	c #ABDFE8",
"V+	c #93D6E1",
"W+	c #71C4CF",
"X+	c #AB9B7B",
"Y+	c #D6A75E",
"Z+	c #C99951",
"`+	c #C6964F",
" @	c #71C5CF",
".@	c #72CEDF",
"+@	c #A2DBE5",
"@@	c #7ACFDB",
"#@	c #96B4AD",
"$@	c #BC8C44",
"%@	c #BD8D45",
"&@	c #C6B791",
"*@	c #6CC6D2",
"=@	c #6CCBD9",
"-@	c #6CCBDA",
";@	c #9ABCB5",
">@	c #DBB372",
",@	c #D4A45A",
"'@	c #D7A85D",
")@	c #D9A95F",
"!@	c #DFB36D",
"~@	c #9CC0B8",
"{@	c #69CAD8",
"]@	c #75CEDB",
"^@	c #8ED5E0",
"/@	c #7CC6CD",
"(@	c #D2B683",
"_@	c #C09049",
":@	c #D8A85E",
"<@	c #C7974F",
"[@	c #DAB476",
"}@	c #8FBDBC",
"|@	c #67CBDA",
"1@	c #9FDAE4",
"2@	c #78C7CF",
"3@	c #CDB78A",
"4@	c #BC8B44",
"5@	c #E0B064",
"6@	c #BB8B43",
"7@	c #CDB789",
"8@	c #6EC4CD",
"9@	c #86D3DE",
"0@	c #9DDAE4",
"a@	c #65CAD7",
"b@	c #62C7D4",
"c@	c #92B3AE",
"d@	c #BA8C4C",
"e@	c #C5954D",
"f@	c #D8A85D",
"g@	c #CA9A52",
"h@	c #D9A95E",
"i@	c #DDAD62",
"j@	c #DAAA5F",
"k@	c #C5B690",
"l@	c #69C4CF",
"m@	c #7FD0DC",
"n@	c #62C8D5",
"o@	c #9CBFB7",
"p@	c #CFA76A",
"q@	c #D5A55C",
"r@	c #DFAF64",
"s@	c #D3A45A",
"t@	c #CB9B53",
"u@	c #DFB36C",
"v@	c #8BB7B6",
"w@	c #61C9D6",
"x@	c #7EC6CD",
"y@	c #D4B682",
"z@	c #C7974E",
"A@	c #BD8C46",
"B@	c #BC8B45",
"C@	c #BB9762",
"D@	c #83B8B8",
"E@	c #74C2CA",
"F@	c #B5A480",
"G@	c #C79850",
"H@	c #B59059",
"I@	c #B19467",
"J@	c #B98B45",
"                                                                ",
"  . + + @ # $ % & * = & * = * * * = * - = & * * ; > , ' + + )   ",
"    ! ~   { ] ^ / / ( _ / ( / / / ( / / ( / / / : < [ } ! ! |   ",
"    1   2 3 4 5 6 7 7 7 7 8 9 0 0 a b 7 7 7 7 7 c d e f ! ! |   ",
"      g { h i j k l l l l m n o p q r s l l l s t u v w ! ! |   ",
"    x ! y z A B C D D D s E F G H I J m D D D K L M N O P ! |   ",
"    ! Q R S T U V s D D W X Y Z `  ...V K D D m +.@.#.$.%.! |   ",
"    ! &.*.=.-.;.6 >.D ,.J '.).` ` Z !.~.{.].D ^./.(.(._.:.P |   ",
"    <.[.}.-.-.|.1.2.K V 3.4.` ` ` ` ).5.6.2.7.8.}.-.-.A 9.0.|   ",
"  . a.b.|.-.-.(.c.d.e.f.g.h.` ` ` ` ` i.j.k.l.b m.-.-.T n.o.p.  ",
"  q.r.s.(.T T T t.c ~.u.v.h.w.w.w.w.x.y.z.~.A.9 =.T T T A B.C.  ",
"  D.E.F.G.G.G.G.j H.5 I.J.K.K.K.K.K.K.J.p L.H.a M.G.G.G.G.N.O.P.",
"  Q.R.S.T.T.T.T.T.H.U.V.................V.f.5 a T.T.W.W.a 0 X.q.",
"  Y.Z.M.|.`.`.`. +G..+++@+@+@+@+@+@+@+@+@+#+$+A `.%+&+&+M *+=+. ",
"  . -+;+U -.-.-.-.>+,+++` ` ` ` ` ` ` ` h.'+G.(.-.-.-.=.)+!+~+  ",
"    P {+]+;.-.-.-.`.^+/+` ` ` ` ` ` ` ` ++I (+-.-.-._+:+<+<.|   ",
"    ! [ [+}+=.-.-.-.|+.+Z ` ` ` ` ` ` `  .c |.-.-.(.1+2+3+! |   ",
"  . 4+! 5+6+n 7+-.-.m.8+9+` ` ` ` ` ` Z 0+c.T -.-.a+b+c+d+! |   ",
"        e+f+g+t.T -.`.6.h+` ` ` ` ` ` 9+i+>+-.-.#.j+k+d+! ! +   ",
"    ! l+m+n+o+p+q+-.-.t.r+y.` ` ` ` ` s+^+`.-.|.t+u+<.! ! ! @   ",
"    ! ! ! v+w+x+y+z+-.A A+B+` ` ` ` Z C+}.-.(.D+E+F+! ! ! G+'   ",
"  . ! ! ! ! ! H+I+J+`.(.+.K+h.` ` ` L+j.#.-.U M+N+d+! ! v+. O+  ",
"    . G+P+! ! ! Q+R+|+(.S+T+U+` ` h.V+/.`.m.W+X+Y+! ! ! . Z+|   ",
"  . x ' . `+! ! P {+ @.@A J +@` ` U+@@s.=.y+#@Q ! ! ! $@%@! |   ",
"    ! l+' . ~ ! ! P &@*@#.c.'+h.` i.=@#.-@;@>@! ! ! ,@  '@! |   ",
"  . ! ! ! )@. ) 4+! !@~@{@S+]@).h.^@/.|+/@(@! ! ! _@  :@! ! |   ",
"    G+! ! ! ! m+. <@! [@}@|@X 1@++I F.2@3@P x 4@. ) 5@! ! ! |   ",
"    6@  l+! ! ! v+. Z+! 7@8@H.9@0@a@b@c@d@. . e@f@! ! ! ! ! |   ",
"  . ! g@. h@! ! ! i@. j@P k@l@j.m@n@o@p@q@r@! ! ! ! ! ! ! ! |   ",
"    ! ! s@. l+! ! ! t@  ! u@v@n@w@x@y@! ! ! ! ! ! ! ! ! ! ! |   ",
"  . z@z@z@A@$@<@z@z@z@B@e@z@C@D@E@F@G@z@z@z@z@z@z@z@z@z@z@z@'   ",
"                              H@I@J@                            "};
