/* XPM */
static char * exitclose_xpm[] = {
"32 32 226 2",
"  	c #57300F",
". 	c #56300E",
"+ 	c #5A320E",
"@ 	c #56300C",
"# 	c #5A330E",
"$ 	c #5B330F",
"% 	c #59320E",
"& 	c #57300E",
"* 	c #62370F",
"= 	c #6E3F11",
"- 	c #774512",
"; 	c #59310E",
"> 	c #5C340F",
", 	c #56300D",
"' 	c #714111",
") 	c #5F350F",
"! 	c #653910",
"~ 	c #58310E",
"{ 	c #56300F",
"] 	c #8F693B",
"^ 	c #A17844",
"/ 	c #A07642",
"( 	c #946B3B",
"_ 	c #55300E",
": 	c #663A10",
"< 	c #63380F",
"[ 	c #A07643",
"} 	c #F2D2AF",
"| 	c #EFD0AD",
"1 	c #EFD0AE",
"2 	c #552F0E",
"3 	c #724211",
"4 	c #9E733F",
"5 	c #F8EAD7",
"6 	c #D29C5C",
"7 	c #D39E5F",
"8 	c #D39E60",
"9 	c #6B3C10",
"0 	c #744312",
"a 	c #9D723E",
"b 	c #F6E5D1",
"c 	c #D09B5C",
"d 	c #D19F62",
"e 	c #D2A063",
"f 	c #754412",
"g 	c #5F360F",
"h 	c #9C723E",
"i 	c #F4E2CD",
"j 	c #CE9A5B",
"k 	c #D09D60",
"l 	c #D09E62",
"m 	c #9B713E",
"n 	c #F2DEC7",
"o 	c #CC995A",
"p 	c #CE9C5F",
"q 	c #CE9D61",
"r 	c #62380F",
"s 	c #9B703F",
"t 	c #EFDBC2",
"u 	c #CA975A",
"v 	c #CC9A5F",
"w 	c #CC9B60",
"x 	c #5B330E",
"y 	c #9A703E",
"z 	c #EED8BE",
"A 	c #C99759",
"B 	c #CB995E",
"C 	c #CB9A5F",
"D 	c #59320F",
"E 	c #643910",
"F 	c #9B6F3E",
"G 	c #EAD3B7",
"H 	c #C79458",
"I 	c #C9975D",
"J 	c #C9985E",
"K 	c #5D340E",
"L 	c #522E0D",
"M 	c #9A6F3F",
"N 	c #E7D0B3",
"O 	c #C59457",
"P 	c #C7965C",
"Q 	c #C7975D",
"R 	c #6D3F11",
"S 	c #61370F",
"T 	c #532E0D",
"U 	c #996E3E",
"V 	c #E5CDAD",
"W 	c #C39257",
"X 	c #C4945B",
"Y 	c #C5955C",
"Z 	c #C5945B",
"` 	c #58310F",
" .	c #57310E",
"..	c #E3C8A9",
"+.	c #C19057",
"@.	c #C0925C",
"#.	c #C1925E",
"$.	c #C2935C",
"%.	c #C3945B",
"&.	c #C3935A",
"*.	c #C19156",
"=.	c #E3C8A8",
"-.	c #633810",
";.	c #5D340F",
">.	c #59310F",
",.	c #764412",
"'.	c #986D3E",
").	c #DFC4A3",
"!.	c #BD8E57",
"~.	c #E1A93B",
"{.	c #F8BB26",
"].	c #BF925C",
"^.	c #C1935A",
"/.	c #C19259",
"(.	c #BF9055",
"_.	c #DFC4A2",
":.	c #5A330F",
"<.	c #724212",
"[.	c #542F0D",
"}.	c #976D3E",
"|.	c #DBBF9D",
"1.	c #BA8C58",
"2.	c #F7B927",
"3.	c #9B754F",
"4.	c #BF915B",
"5.	c #BF9159",
"6.	c #BF9058",
"7.	c #BD8E54",
"8.	c #DCC09C",
"9.	c #6B3D11",
"0.	c #532E0E",
"a.	c #986C3F",
"b.	c #D9BC98",
"c.	c #B98B58",
"d.	c #F7BA27",
"e.	c #A67E53",
"f.	c #BE905A",
"g.	c #BE9058",
"h.	c #BE9057",
"i.	c #BD8D54",
"j.	c #DABC98",
"k.	c #976C3E",
"l.	c #D5B793",
"m.	c #B78957",
"n.	c #F6B927",
"o.	c #B08558",
"p.	c #BB8D59",
"q.	c #BC8E57",
"r.	c #BC8E56",
"s.	c #BB8C53",
"t.	c #D6B892",
"u.	c #966B3E",
"v.	c #D3B38C",
"w.	c #B78A55",
"x.	c #DEA83A",
"y.	c #F9BC27",
"z.	c #B88C58",
"A.	c #BA8D56",
"B.	c #BA8D55",
"C.	c #B98B53",
"D.	c #966B3F",
"E.	c #D0AE86",
"F.	c #B88953",
"G.	c #987349",
"H.	c #98734A",
"I.	c #B88B57",
"J.	c #B88B55",
"K.	c #B88B54",
"L.	c #B78952",
"M.	c #6F4011",
"N.	c #956B3E",
"O.	c #CCAA80",
"P.	c #B68952",
"Q.	c #A47D4C",
"R.	c #B78B55",
"S.	c #B68A54",
"T.	c #B58851",
"U.	c #653A10",
"V.	c #956A3E",
"W.	c #C8A57C",
"X.	c #B4874F",
"Y.	c #AF834F",
"Z.	c #AF8450",
"`.	c #B48852",
" +	c #B48851",
".+	c #B3864F",
"++	c #C8A57B",
"@+	c #6B3D10",
"#+	c #5C340E",
"$+	c #693C10",
"%+	c #956A3F",
"&+	c #C4A074",
"*+	c #B38751",
"=+	c #724111",
"-+	c #714112",
";+	c #55300D",
">+	c #95693E",
",+	c #C09C6E",
"'+	c #B1844E",
")+	c #B18550",
"!+	c #5C330F",
"~+	c #94693F",
"{+	c #BD9769",
"]+	c #AF834D",
"^+	c #AF844F",
"/+	c #94693E",
"(+	c #B89363",
"_+	c #AD834D",
":+	c #AD834E",
"<+	c #94683E",
"[+	c #B48D5D",
"}+	c #AB814C",
"|+	c #AB814D",
"1+	c #95683E",
"2+	c #B18955",
"3+	c #AA804B",
"4+	c #AA814C",
"5+	c #9C6A3A",
"6+	c #B3874D",
"7+	c #AF8149",
"8+	c #562F0F",
"9+	c #5C5C5C",
"0+	c #5A5B5D",
"a+	c #575A5E",
"b+	c #55595E",
"c+	c #54585E",
"                                                                ",
"  . + @ # $ $ $ $ $ $ $ $ $ $ $ $ $ $ $ $ $ $ % . . $ $ $ $ &   ",
"  . * @   = - - - - - - - - - - - - - - - - - - ; . - - - - >   ",
"  , - ' ,   ) - - - - - - - - - - - - - - - - - ! & - - - - >   ",
"  , - - - ~ { ] ^ / / / / / / / / / / / / / / ^ ( _ : - - - >   ",
"  , - - - - < [ } | 1 1 1 1 1 1 1 1 1 1 1 1 | } [ 2 . < - - >   ",
"  , - - - - 3 4 5 6 7 8 8 8 8 8 8 8 8 8 8 7 6 5 4 9 0 . * - >   ",
"  , - - - - 3 a b c d e e e e e e e e e e d c b a 3 - f . g >   ",
"  , - - - - 3 h i j k l l l l l l l l l l k j i h 3 - - g . #   ",
"  , - - - - 3 m n o p q q q q q q q q q q p o n m 3 - - - r     ",
"  , - - - - 3 s t u v w w w w w w w w w w v u t s 3 - - - - x   ",
"  , - - - - 3 y z A B C C C C C C C C C C B A z y 3 - - - - >   ",
"    D - - - E F G H I J J J J J J J J J J I H G F 3 - - - - >   ",
"      K - ' L M N O P Q Q Q Q Q Q Q Q Q Q P O N M 3 - - - - >   ",
"  , R , S . T U V W X Y Y Y Y Y Y Y Y Y Y Z W V U L .   . `  .  ",
"  , - E &   3 U ..+.@.#.$.%.%.%.%.%.%.%.%.&.*.=.U < -.;.>.. .   ",
"  , - ,..   3 '.).!.~.{.].^.^.^.^.^.^.^.^./.(._.'.3 - - ,.0 :.  ",
"  , - - <.. [.}.|.1.2.3.4.5.5.5.5.5.5.5.5.6.7.8.}.3 - - - - >   ",
"  , - - - 9.0.a.b.c.d.e.f.g.g.g.g.g.g.g.g.h.i.j.a.3 - - - - >   ",
"  , - - - - K k.l.m.n.o.p.q.q.q.q.q.q.q.q.r.s.t.k.3 - - - - >   ",
"  , - - - - 3 u.v.w.x.y.z.A.A.A.A.A.A.A.A.B.C.v.u.3 - - - - >   ",
"  , - - - - 3 D.E.F.G.H.I.J.J.J.J.J.J.J.J.K.L.E.D.M.- - - - >   ",
"  , - - - - 3 N.O.P.Q.Q.R.S.S.S.S.S.S.S.S.S.T.O.N.0. .3 - - >   ",
"  , - - - U.T V.W.X.Y.Z.`.`.`.`.`.`.`.`.`. +.+++V.@+& . . M.#+  ",
"  , - - $+. 0.%+&+.+*+*+*+*+*+*+*+*+*+*+*+*+.+&+%+3 =+&   . %   ",
"  , -+. ;+! 3 >+,+'+)+)+)+)+)+)+)+)+)+)+)+)+'+,+>+3 - - f x     ",
"  & , !+- - 3 ~+{+]+^+^+^+^+^+^+^+^+^+^+^+^+]+{+~+3 - - - - >   ",
"  & 0 - - - 3 /+(+_+:+:+:+:+:+:+:+:+:+:+:+:+_+(+/+3 - - - - >   ",
"  , - - - - 3 <+[+}+|+|+|+|+|+|+|+|+|+|+|+|+}+[+<+3 - - - - >   ",
"  , - - - - 3 1+2+3+4+4+4+4+4+4+4+4+4+4+4+4+3+2+1+3 - - - - >   ",
"  . S S S S K 5+6+7+7+7+7+7+7+7+7+7+7+7+7+7+7+6+5+K S S S S ~   ",
"8+9+9+9+9+9+0+a+b+c+c+c+c+c+c+c+c+c+c+c+c+c+c+b+a+0+9+9+9+9+9+8+"};
