/* XPM */
static char * exitopen_xpm[] = {
"32 32 414 2",
"  	c #57300F",
". 	c #56300E",
"+ 	c #5A320E",
"@ 	c #56300C",
"# 	c #5A330E",
"$ 	c #5B330F",
"% 	c #59320E",
"& 	c #57300E",
"* 	c #62370F",
"= 	c #6E3F11",
"- 	c #774512",
"; 	c #59310E",
"> 	c #5C340F",
", 	c #56300D",
"' 	c #714111",
") 	c #5F350F",
"! 	c #653910",
"~ 	c #9E7F68",
"{ 	c #F5E2CD",
"] 	c #9F753E",
"^ 	c #562F0F",
"/ 	c #58310E",
"( 	c #56300F",
"_ 	c #8F693B",
": 	c #A17844",
"< 	c #A07642",
"[ 	c #946B3B",
"} 	c #552F0E",
"| 	c #7A5A41",
"1 	c #DCC6AF",
"2 	c #EDD6BD",
"3 	c #F7E7D3",
"4 	c #A27640",
"5 	c #542E0E",
"6 	c #63380F",
"7 	c #A07643",
"8 	c #F2D2AF",
"9 	c #EFD0AD",
"0 	c #EFD0AE",
"a 	c #9F7543",
"b 	c #C5B09B",
"c 	c #EEDBC2",
"d 	c #E2C29A",
"e 	c #D09A5A",
"f 	c #F5E3CF",
"g 	c #A37741",
"h 	c #532E0E",
"i 	c #724211",
"j 	c #9D723E",
"k 	c #C2A788",
"l 	c #AE824A",
"m 	c #B0834B",
"n 	c #B1834B",
"o 	c #AF824A",
"p 	c #A97C44",
"q 	c #CBA980",
"r 	c #EAD3B9",
"s 	c #E5C9A7",
"t 	c #D3A46C",
"u 	c #CF9A5B",
"v 	c #CF9959",
"w 	c #F3E2CD",
"x 	c #A67A43",
"y 	c #996F3C",
"z 	c #AC8049",
"A 	c #303741",
"B 	c #363B42",
"C 	c #373C42",
"D 	c #353A41",
"E 	c #2A323B",
"F 	c #F7DCBC",
"G 	c #D9AE7A",
"H 	c #CD9A5B",
"I 	c #CE9C5F",
"J 	c #CD9A5A",
"K 	c #F2DFC9",
"L 	c #A77C45",
"M 	c #966D3B",
"N 	c #AD8149",
"O 	c #393E45",
"P 	c #414245",
"Q 	c #424345",
"R 	c #404144",
"S 	c #343940",
"T 	c #DBA260",
"U 	c #D09B5E",
"V 	c #CE9B5F",
"W 	c #CE9C61",
"X 	c #CC985A",
"Y 	c #F0DCC5",
"Z 	c #AA7D46",
"` 	c #956C3B",
" .	c #AE7F49",
"..	c #3B3F46",
"+.	c #434446",
"@.	c #454546",
"#.	c #434346",
"$.	c #373C43",
"%.	c #DAA462",
"&.	c #CE9C60",
"*.	c #CC9B60",
"=.	c #CC9A5F",
"-.	c #CA9759",
";.	c #EDD9C0",
">.	c #AB7E47",
",.	c #956B3C",
"'.	c #AD7F48",
").	c #3D4248",
"!.	c #454648",
"~.	c #474748",
"{.	c #454548",
"].	c #393E46",
"^.	c #D8A361",
"/.	c #CC9C5F",
"(.	c #CA9A5F",
"_.	c #CA995E",
":.	c #C89659",
"<.	c #EBD5BB",
"[.	c #AB7E48",
"}.	c #40444A",
"|.	c #47484A",
"1.	c #49494A",
"2.	c #3C4148",
"3.	c #D7A160",
"4.	c #CB9B5E",
"5.	c #C9995E",
"6.	c #C9985D",
"7.	c #C79558",
"8.	c #E8D2B6",
"9.	c #B0824A",
"0.	c #59320F",
"a.	c #643910",
"b.	c #956A3B",
"c.	c #41454D",
"d.	c #48494C",
"e.	c #4A4A4C",
"f.	c #3D424A",
"g.	c #D49F5F",
"h.	c #C7975D",
"i.	c #C7965C",
"j.	c #C59357",
"k.	c #E6CFB2",
"l.	c #B1844C",
"m.	c #5D340E",
"n.	c #522E0D",
"o.	c #946A3C",
"p.	c #AA7C46",
"q.	c #43474D",
"r.	c #4A4B4D",
"s.	c #4C4C4D",
"t.	c #3F444B",
"u.	c #D39E5E",
"v.	c #C8975C",
"w.	c #C6965C",
"x.	c #C6955B",
"y.	c #C49356",
"z.	c #E3CAAD",
"A.	c #B3854D",
"B.	c #6D3F11",
"C.	c #61370F",
"D.	c #532E0D",
"E.	c #93693B",
"F.	c #A97A46",
"G.	c #454A50",
"H.	c #4D4D4F",
"I.	c #4E4E4F",
"J.	c #4C4D4F",
"K.	c #41464E",
"L.	c #D19D5C",
"M.	c #C6965B",
"N.	c #C4955B",
"O.	c #C3945A",
"P.	c #C29156",
"Q.	c #E1C6A9",
"R.	c #B6874F",
"S.	c #A77A45",
"T.	c #464B52",
"U.	c #4D4E51",
"V.	c #4F4F51",
"W.	c #434850",
"X.	c #CE9B5C",
"Y.	c #C2945B",
"Z.	c #C1945C",
"`.	c #BF925C",
" +	c #BE8F58",
".+	c #DDC3A5",
"++	c #B78950",
"@+	c #764412",
"#+	c #92683B",
"$+	c #A77944",
"%+	c #494D55",
"&+	c #505053",
"*+	c #515153",
"=+	c #4F5053",
"-+	c #454A52",
";+	c #CD995B",
">+	c #C3935A",
",+	c #C1925A",
"'+	c #BF905C",
")+	c #E1A93B",
"!+	c #F6B721",
"~+	c #D9BFA0",
"{+	c #BA8A52",
"]+	c #724212",
"^+	c #542F0D",
"/+	c #91683B",
"(+	c #A67744",
"_+	c #4B5056",
":+	c #525354",
"<+	c #535354",
"[+	c #515254",
"}+	c #484D53",
"|+	c #C19259",
"1+	c #BE915A",
"2+	c #BC8E5C",
"3+	c #F7B927",
"4+	c #99724A",
"5+	c #D9BD9D",
"6+	c #BB8C53",
"7+	c #6B3D11",
"8+	c #92673C",
"9+	c #A57643",
"0+	c #4C5258",
"a+	c #535556",
"b+	c #545556",
"c+	c #525456",
"d+	c #494F56",
"e+	c #C99658",
"f+	c #C09158",
"g+	c #BD9059",
"h+	c #BA8D5C",
"i+	c #F7BA27",
"j+	c #A47B4F",
"k+	c #D7B897",
"l+	c #BD8E55",
"m+	c #91673B",
"n+	c #A57543",
"o+	c #4F535A",
"p+	c #555658",
"q+	c #565658",
"r+	c #545558",
"s+	c #4B5058",
"t+	c #C79557",
"u+	c #BE9057",
"v+	c #BB8F58",
"w+	c #B88C5A",
"x+	c #F5B827",
"y+	c #AE8254",
"z+	c #D2B492",
"A+	c #BE9055",
"B+	c #90673B",
"C+	c #A37542",
"D+	c #50555B",
"E+	c #565859",
"F+	c #575859",
"G+	c #555759",
"H+	c #4C5259",
"I+	c #BC8E56",
"J+	c #BA8D56",
"K+	c #B78B58",
"L+	c #DFA83A",
"M+	c #F7B823",
"N+	c #CFB18E",
"O+	c #C19157",
"P+	c #90673C",
"Q+	c #A27342",
"R+	c #52585D",
"S+	c #585A5B",
"T+	c #595A5B",
"U+	c #57595B",
"V+	c #4F555C",
"W+	c #C39154",
"X+	c #BB8D55",
"Y+	c #B98C55",
"Z+	c #B88B56",
"`+	c #B78A57",
" @	c #967045",
".@	c #CDAD87",
"+@	c #C49258",
"@@	c #8F673B",
"#@	c #A07241",
"$@	c #555960",
"%@	c #5A5B5D",
"&@	c #5B5B5D",
"*@	c #595A5D",
"=@	c #51565E",
"-@	c #C19053",
";@	c #B98C54",
">@	c #B78B54",
",@	c #A27B49",
"'@	c #CAAA82",
")@	c #C5955A",
"!@	c #653A10",
"~@	c #8F663B",
"{@	c #A07140",
"]@	c #565B62",
"^@	c #5B5D5F",
"/@	c #5C5D5F",
"(@	c #5A5C5F",
"_@	c #535860",
":@	c #BF8E52",
"<@	c #B88A53",
"[@	c #B68953",
"}@	c #AD824D",
"|@	c #C6A57C",
"1@	c #C8965B",
"2@	c #693C10",
"3@	c #8F663C",
"4@	c #9F7040",
"5@	c #585D64",
"6@	c #5D5F61",
"7@	c #5E5F61",
"8@	c #5C5E61",
"9@	c #555B63",
"0@	c #BD8C50",
"a@	c #B68952",
"b@	c #B48852",
"c@	c #B3864F",
"d@	c #C3A178",
"e@	c #CA985C",
"f@	c #714112",
"g@	c #55300D",
"h@	c #8F653B",
"i@	c #9E703F",
"j@	c #5A6065",
"k@	c #5F6162",
"l@	c #606162",
"m@	c #5F6062",
"n@	c #575D64",
"o@	c #BC8B4F",
"p@	c #B58851",
"q@	c #B38751",
"r@	c #B1854E",
"s@	c #BF9C72",
"t@	c #CC9A5E",
"u@	c #5C330F",
"v@	c #8E653C",
"w@	c #9D6E3F",
"x@	c #5B6167",
"y@	c #606264",
"z@	c #616264",
"A@	c #5F6164",
"B@	c #595E66",
"C@	c #B98A4E",
"D@	c #B28750",
"E@	c #B18650",
"F@	c #AF844D",
"G@	c #BA996C",
"H@	c #744312",
"I@	c #8E653B",
"J@	c #9D6D3E",
"K@	c #5E636A",
"L@	c #626467",
"M@	c #636466",
"N@	c #626466",
"O@	c #5B6169",
"P@	c #B7874D",
"Q@	c #B0844F",
"R@	c #AF844F",
"S@	c #B89466",
"T@	c #CF9D61",
"U@	c #8E643B",
"V@	c #9C6B3C",
"W@	c #60666B",
"X@	c #646668",
"Y@	c #656667",
"Z@	c #646667",
"`@	c #5D6369",
" #	c #B6864B",
".#	c #AF834E",
"+#	c #AE834E",
"@#	c #AD814C",
"##	c #B38F62",
"$#	c #D29F62",
"%#	c #8F643B",
"&#	c #61676D",
"*#	c #65676A",
"=#	c #666769",
"-#	c #5F646C",
";#	c #B4854B",
">#	c #AC824E",
",#	c #AB804C",
"'#	c #B18B5B",
")#	c #D3A164",
"!#	c #966637",
"~#	c #A16C38",
"{#	c #666B70",
"]#	c #696B6D",
"^#	c #6A6B6D",
"/#	c #686A6D",
"(#	c #64686F",
"_#	c #B5864A",
":#	c #AE834C",
"<#	c #AC824D",
"[#	c #AA814D",
"}#	c #A9804C",
"|#	c #AC8657",
"1#	c #D6A366",
"2#	c #5C5C5C",
"3#	c #5A5C5D",
"4#	c #595B5D",
"5#	c #5A5A5C",
"6#	c #5A5A5A",
"7#	c #5B5A5A",
"8#	c #57595C",
"9#	c #706557",
"0#	c #836E53",
"a#	c #9F7B4E",
"b#	c #AA7F4C",
"c#	c #A97F4C",
"d#	c #A87E4B",
"e#	c #A88150",
"f#	c #D8A467",
"g#	c #522D0E",
"                                                                ",
"  . + @ # $ $ $ $ $ $ $ $ $ $ $ $ $ $ $ $ $ $ % . . $ $ $ $ &   ",
"  . * @   = - - - - - - - - - - - - - - - - - - ; . - - - - >   ",
"  , - ' ,   ) - - - - - - - - - - - - - - - - - ! & - - ~ { ] ^ ",
"  , - - - / ( _ : < < < < < < < < < < < < < < : [ } | 1 2 3 4 5 ",
"  , - - - - 6 7 8 9 0 0 0 0 0 0 0 0 0 0 0 0 9 8 a b c d e f g h ",
"  , - - - - i j k l m n n n n n n n n n n o p q r s t u v w x h ",
"  , - - - - i y z A B C C C C C C C C C C D E F G H I I J K L h ",
"  , - - - - i M N O P Q Q Q Q Q Q Q Q Q Q R S T U V W V X Y Z h ",
"  , - - - - i `  ...+.@.@.@.@.@.@.@.@.@.@.#.$.%.&.*.*.=.-.;.>.h ",
"  , - - - - i ,.'.).!.~.~.~.~.~.~.~.~.~.~.{.].^./.(.(._.:.<.N h ",
"  , - - - - i [ [.}.|.1.1.1.1.1.1.1.1.1.1.|.2.3.4.5.5.6.7.8.9.h ",
"    0.- - - a.b.Z c.d.e.e.e.e.e.e.e.e.e.e.d.f.g.6.h.h.i.j.k.l.h ",
"      m.- ' n.o.p.q.r.s.s.s.s.s.s.s.s.s.s.r.t.u.v.w.w.x.y.z.A.h ",
"  , B., C.. D.E.F.G.H.I.I.I.I.I.I.I.I.I.I.J.K.L.M.N.N.O.P.Q.R.h ",
"  , - a.&   i E.S.T.U.V.V.V.V.V.V.V.V.V.V.U.W.X.N.Y.Z.`. +.+++h ",
"  , - @+.   i #+$+%+&+*+*+*+*+*+*+*+*+*+*+=+-+;+>+,+'+)+!+~+{+h ",
"  , - - ]+. ^+/+(+_+:+<+<+<+<+<+<+<+<+<+<+[+}+-.|+1+2+3+4+5+6+h ",
"  , - - - 7+h 8+9+0+a+b+b+b+b+b+b+b+b+b+b+c+d+e+f+g+h+i+j+k+l+h ",
"  , - - - - m.m+n+o+p+q+q+q+q+q+q+q+q+q+q+r+s+t+u+v+w+x+y+z+A+h ",
"  , - - - - i B+C+D+E+F+F+F+F+F+F+F+F+F+F+G+H+y.I+J+K+L+M+N+O+h ",
"  , - - - - i P+Q+R+S+T+T+T+T+T+T+T+T+T+T+U+V+W+X+Y+Z+`+ @.@+@h ",
"  , - - - - i @@#@$@%@&@&@&@&@&@&@&@&@&@&@*@=@-@;@>@>@>@,@'@)@h ",
"  , - - - !@D.~@{@]@^@/@/@/@/@/@/@/@/@/@/@(@_@:@<@[@[@[@}@|@1@h ",
"  , - - 2@. h 3@4@5@6@7@7@7@7@7@7@7@7@7@7@8@9@0@a@b@b@b@c@d@e@h ",
"  , f@. g@! i h@i@j@k@l@l@l@l@l@l@l@l@l@l@m@n@o@p@q@q@q@r@s@t@h ",
"  & , u@- - i v@w@x@y@z@z@z@z@z@z@z@z@z@z@A@B@C@D@E@E@E@F@G@&.h ",
"  & H@- - - i I@J@K@L@M@M@M@M@M@M@M@M@M@M@N@O@P@Q@R@R@R@}@S@T@h ",
"  , - - - - i U@V@W@X@Y@Y@Y@Y@Y@Y@Y@Y@Y@Y@Z@`@ #.#+#+#+#@###$#h ",
"  , - - - - i %#V@&#*#=#=#=#=#=#=#=#=#=#=#*#-#;#+#>#>#>#,#'#)#h ",
"  . C.C.C.C.m.!#~#{#]#^#^#^#^#^#^#^#^#^#^#/#(#_#:#<#[#[#}#|#1#h ",
"} 2#2#2#2#2#2#3#4#5#6#7#7#7#7#7#7#7#7#7#7#6#8#9#0#a#b#c#d#e#f#g#"};
