/* XPM */
static char * EN1_xpm[] = {
"32 32 704 2",
"  	c #BA8A42",
". 	c #3E5A6E",
"+ 	c #255050",
"@ 	c #BA8A43",
"# 	c #C09048",
"$ 	c #BD8C45",
"% 	c #BE8E46",
"& 	c #BF8F47",
"* 	c #BC8C45",
"= 	c #BE8E47",
"- 	c #1C0215",
"; 	c #5E0F5A",
"> 	c #B18856",
", 	c #C08F48",
"' 	c #0C000E",
") 	c #64057C",
"! 	c #54274F",
"~ 	c #BB8B44",
"{ 	c #E2B266",
"] 	c #CE9E55",
"^ 	c #D0A057",
"/ 	c #DCAC61",
"( 	c #4B2054",
"_ 	c #D731D4",
": 	c #130F11",
"< 	c #B58C58",
"[ 	c #D9AA5F",
"} 	c #393364",
"| 	c #861BD3",
"1 	c #BB20D4",
"2 	c #4E1D4F",
"3 	c #C19149",
"4 	c #D3A35A",
"5 	c #DBAB60",
"6 	c #C89850",
"7 	c #DFB169",
"8 	c #211522",
"9 	c #A119E1",
"0 	c #91379F",
"a 	c #2F423F",
"b 	c #1F463B",
"c 	c #28443D",
"d 	c #213933",
"e 	c #62655B",
"f 	c #E1B165",
"g 	c #D6A65C",
"h 	c #3E836F",
"i 	c #020020",
"j 	c #CC22FF",
"k 	c #A91C96",
"l 	c #112A27",
"m 	c #D6A75D",
"n 	c #DFAF63",
"o 	c #2D3E4D",
"p 	c #4F08A3",
"q 	c #8207FE",
"r 	c #AC1FFF",
"s 	c #4D008F",
"t 	c #420089",
"u 	c #420093",
"v 	c #3F008F",
"w 	c #3B047F",
"x 	c #142E30",
"y 	c #2F5059",
"z 	c #D1A158",
"A 	c #AC895B",
"B 	c #332659",
"C 	c #5400C7",
"D 	c #B022FF",
"E 	c #92228C",
"F 	c #163B39",
"G 	c #333B54",
"H 	c #6F5D44",
"I 	c #CB9B53",
"J 	c #24413F",
"K 	c #2A2938",
"L 	c #5D00A8",
"M 	c #840AFF",
"N 	c #790AF3",
"O 	c #6800F8",
"P 	c #880CFF",
"Q 	c #D539FF",
"R 	c #E272FF",
"S 	c #E162FF",
"T 	c #C12BFD",
"U 	c #A31998",
"V 	c #7A1F86",
"W 	c #14222D",
"X 	c #364E5B",
"Y 	c #AEAEB2",
"Z 	c #4B7DA6",
"` 	c #0D1900",
" .	c #250050",
"..	c #A017FF",
"+.	c #EC42FF",
"@.	c #8A1D8F",
"#.	c #1A372F",
"$.	c #201327",
"%.	c #8F168A",
"&.	c #413462",
"*.	c #3D8892",
"=.	c #2D3753",
"-.	c #53009D",
";.	c #6000BC",
">.	c #7E04FF",
",.	c #7700FC",
"'.	c #6800F9",
").	c #7B00F3",
"!.	c #C223F7",
"~.	c #EA5AF9",
"{.	c #FFAAF6",
"].	c #FF87F6",
"^.	c #E950FA",
"/.	c #FF83FF",
"(.	c #F381F5",
"_.	c #C051B3",
":.	c #7E2192",
"<.	c #183126",
"[.	c #2E1C58",
"}.	c #5A00BC",
"|.	c #6003D2",
"1.	c #9D1FFB",
"2.	c #FF53FF",
"3.	c #871991",
"4.	c #20393D",
"5.	c #27182B",
"6.	c #D82FF4",
"7.	c #C937D3",
"8.	c #392443",
"9.	c #5A04AE",
"0.	c #8400FF",
"a.	c #8100FF",
"b.	c #6F0EF3",
"c.	c #7711F2",
"d.	c #7710F6",
"e.	c #7E14F6",
"f.	c #8617F1",
"g.	c #8C0AFA",
"h.	c #D93DF8",
"i.	c #E446F1",
"j.	c #E256EE",
"k.	c #FA94F5",
"l.	c #FA94FF",
"m.	c #FF9DFF",
"n.	c #ED69F9",
"o.	c #B226B3",
"p.	c #9D1CD6",
"q.	c #9815FF",
"r.	c #D33BFF",
"s.	c #EE40FF",
"t.	c #A324AA",
"u.	c #272C3A",
"v.	c #222839",
"w.	c #680BC2",
"x.	c #E53BFF",
"y.	c #C329E8",
"z.	c #8600FF",
"A.	c #6D06F2",
"B.	c #7317E2",
"C.	c #979BC6",
"D.	c #D0D5E5",
"E.	c #DBD2E8",
"F.	c #DCE2E9",
"G.	c #BBB2EA",
"H.	c #6B12F0",
"I.	c #8F0FEE",
"J.	c #C618F8",
"K.	c #D03BFE",
"L.	c #FE8BF6",
"M.	c #F693F4",
"N.	c #F997F6",
"O.	c #F67DF9",
"P.	c #F144FF",
"Q.	c #DF3EFF",
"R.	c #CE3CF3",
"S.	c #F04BFF",
"T.	c #FF47FF",
"U.	c #71126D",
"V.	c #2B4A40",
"W.	c #5E93BB",
"X.	c #151F2D",
"Y.	c #7105CE",
"Z.	c #8D17FF",
"`.	c #6C19DC",
" +	c #6D6CA1",
".+	c #9FAEB7",
"++	c #DCEAE6",
"@+	c #EAF6ED",
"#+	c #E6F1E8",
"$+	c #E7F3EA",
"%+	c #E5F2E7",
"&+	c #E2EBE1",
"*+	c #C1B8E9",
"=+	c #7F24F0",
"-+	c #9221F4",
";+	c #D14AF2",
">+	c #F47FF6",
",+	c #F881F3",
"'+	c #F89BF4",
")+	c #E97AF6",
"!+	c #DB3BFB",
"~+	c #E542F8",
"{+	c #E33FF5",
"]+	c #872398",
"^+	c #2A4A56",
"/+	c #5680AA",
"(+	c #2E174B",
"_+	c #6300E3",
":+	c #605E9D",
"<+	c #687D8B",
"[+	c #91A3AC",
"}+	c #D9E9E9",
"|+	c #E8EAEE",
"1+	c #E1E5EA",
"2+	c #DDE3E8",
"3+	c #DEE2E8",
"4+	c #DEE5E9",
"5+	c #E3F2EA",
"6+	c #E6EDE8",
"7+	c #E2FBE7",
"8+	c #B4A5EA",
"9+	c #8400F3",
"0+	c #E73DFD",
"a+	c #DD4CFA",
"b+	c #F087F7",
"c+	c #EE6FF2",
"d+	c #D53BF8",
"e+	c #F146FF",
"f+	c #95209B",
"g+	c #173232",
"h+	c #C5964D",
"i+	c #192012",
"j+	c #6E00C9",
"k+	c #7622EA",
"l+	c #6E7C9F",
"m+	c #8EA6AF",
"n+	c #B0B8CA",
"o+	c #ECF3FA",
"p+	c #FDFFFF",
"q+	c #F6FCFF",
"r+	c #DFE5E9",
"s+	c #DBE1E8",
"t+	c #DFE2E9",
"u+	c #DEE1E9",
"v+	c #DFE3ED",
"w+	c #ECFEE7",
"x+	c #C6CCE4",
"y+	c #8C35EE",
"z+	c #C42EF8",
"A+	c #DB3CF8",
"B+	c #D13FF5",
"C+	c #DB3CFB",
"D+	c #D940F6",
"E+	c #F849FF",
"F+	c #811682",
"G+	c #093923",
"H+	c #CE9F55",
"I+	c #5A718C",
"J+	c #390E62",
"K+	c #6D00ED",
"L+	c #6863A5",
"M+	c #8CA0A8",
"N+	c #A4AFC5",
"O+	c #EFF3FF",
"P+	c #CAD2DC",
"Q+	c #949CA8",
"R+	c #A5A9B4",
"S+	c #F7FBFF",
"T+	c #E4E9EE",
"U+	c #DDE3E9",
"V+	c #DEE3E9",
"W+	c #DEE3E8",
"X+	c #EBFFE7",
"Y+	c #BEAAED",
"Z+	c #7100F2",
"`+	c #DD3BFB",
" @	c #DF3DFD",
".@	c #D136F9",
"+@	c #E73DFC",
"@@	c #B12BC1",
"#@	c #442E56",
"$@	c #D1A664",
"%@	c #18182C",
"&@	c #6E00E0",
"*@	c #792FD8",
"=@	c #7082A1",
"-@	c #90A3B2",
";@	c #A7B2C9",
">@	c #B8C0D7",
",@	c #424862",
"'@	c #00000D",
")@	c #050518",
"!@	c #9A9CAE",
"~@	c #FFFFFF",
"{@	c #E3E8ED",
"]@	c #DDE2E7",
"^@	c #DFE3E9",
"/@	c #E6F1E7",
"(@	c #CBCCEB",
"_@	c #A551F0",
":@	c #D83DF9",
"<@	c #D836F8",
"[@	c #D73EF6",
"}@	c #E962FD",
"|@	c #DD4FFA",
"1@	c #F644FF",
"2@	c #9A1B9E",
"3@	c #102F2B",
"4@	c #1D2118",
"5@	c #5F00C2",
"6@	c #736EA8",
"7@	c #97ACB0",
"8@	c #9AABC3",
"9@	c #808AA7",
"0@	c #383C58",
"a@	c #0D0A24",
"b@	c #1B172D",
"c@	c #0F0D23",
"d@	c #07071E",
"e@	c #8C909F",
"f@	c #E3E8EF",
"g@	c #E3E7ED",
"h@	c #DFE3EA",
"i@	c #DCDEE7",
"j@	c #E2FDE3",
"k@	c #E9D0ED",
"l@	c #D333F3",
"m@	c #D241F7",
"n@	c #EC70F6",
"o@	c #FE9BEF",
"p@	c #F188F7",
"q@	c #F25AFF",
"r@	c #8C1892",
"s@	c #1D4147",
"t@	c #E1B269",
"u@	c #405D73",
"v@	c #520D9D",
"w@	c #7406EB",
"x@	c #6868A1",
"y@	c #96A4B0",
"z@	c #99A8C2",
"A@	c #5D6985",
"B@	c #120E27",
"C@	c #161228",
"D@	c #1C1C31",
"E@	c #1F1D34",
"F@	c #05031A",
"G@	c #181529",
"H@	c #DEE1EB",
"I@	c #E7EDF1",
"J@	c #DDE2EA",
"K@	c #DAF7E5",
"L@	c #D9BCE7",
"M@	c #D429F7",
"N@	c #E357F9",
"O@	c #FF9CF4",
"P@	c #EB8AF3",
"Q@	c #F69EED",
"R@	c #FF86FF",
"S@	c #8C1B9D",
"T@	c #001900",
"U@	c #224D52",
"V@	c #164849",
"W@	c #26424A",
"X@	c #100603",
"Y@	c #41006F",
"Z@	c #7A0AF2",
"`@	c #6B68A1",
" #	c #8FA9AC",
".#	c #9BA6C1",
"+#	c #5E6B88",
"@#	c #131129",
"##	c #181326",
"$#	c #1D1B2F",
"%#	c #04021A",
"&#	c #1D1B32",
"*#	c #E0E3EE",
"=#	c #E6ECF0",
"-#	c #E0E2EB",
";#	c #DEF8EB",
">#	c #DDBFED",
",#	c #D631F8",
"'#	c #DB3EF9",
")#	c #E971F5",
"!#	c #FD9BF6",
"~#	c #F487F4",
"{#	c #E458FB",
"]#	c #C135DD",
"^#	c #852285",
"/#	c #911F88",
"(#	c #AC23A4",
"_#	c #500038",
":#	c #192A33",
"<#	c #0E1405",
"[#	c #6303CB",
"}#	c #756EAA",
"|#	c #95ABB2",
"1#	c #9AA7C2",
"2#	c #8591AE",
"3#	c #474F6A",
"4#	c #110F25",
"5#	c #151127",
"6#	c #0C0920",
"7#	c #141428",
"8#	c #A0A3B2",
"9#	c #E4E8F0",
"0#	c #E1E6EC",
"a#	c #DEE4E8",
"b#	c #DFE0EB",
"c#	c #DDF9E8",
"d#	c #DEC5EA",
"e#	c #D633F7",
"f#	c #D536FD",
"g#	c #D241FA",
"h#	c #E35FF6",
"i#	c #DA4DF6",
"j#	c #D537F5",
"k#	c #F84EFF",
"l#	c #F93EFF",
"m#	c #9C1CE5",
"n#	c #70156A",
"o#	c #5E3274",
"p#	c #1E2633",
"q#	c #6A00D5",
"r#	c #7925E6",
"s#	c #717C9C",
"t#	c #92A7B6",
"u#	c #A2AEC8",
"v#	c #959DB9",
"w#	c #4B5470",
"x#	c #020318",
"y#	c #121225",
"z#	c #ACAFBD",
"A#	c #FBFFFF",
"B#	c #E0EAEB",
"C#	c #DCE2E8",
"D#	c #E1E2EC",
"E#	c #DEE2E9",
"F#	c #DDF1E7",
"G#	c #DED0E9",
"H#	c #D55CF2",
"I#	c #D536F7",
"J#	c #DD3EFE",
"K#	c #D93CF9",
"L#	c #CF36FA",
"M#	c #E13EF9",
"N#	c #D234FF",
"O#	c #7E19BF",
"P#	c #34013E",
"Q#	c #241E5C",
"R#	c #5D7371",
"S#	c #958277",
"T#	c #2F0E4F",
"U#	c #6F00E6",
"V#	c #6964AD",
"W#	c #91A1AB",
"X#	c #9AA7BD",
"Y#	c #95A5BD",
"Z#	c #97A7BC",
"`#	c #B0B0BB",
" $	c #BABFC6",
".$	c #F2F9FF",
"+$	c #E0E9EC",
"@$	c #DFE2EB",
"#$	c #DDE1E9",
"$$	c #DCE5E5",
"%$	c #DFE1ED",
"&$	c #E0F6EA",
"*$	c #D8B8E5",
"=$	c #DC3EF2",
"-$	c #EA6EF8",
";$	c #D341F9",
">$	c #DA3FFB",
",$	c #E145F9",
"'$	c #D937FF",
")$	c #6003B6",
"!$	c #162040",
"~$	c #377681",
"{$	c #1F2725",
"]$	c #6902C1",
"^$	c #7A17F6",
"/$	c #647699",
"($	c #87A6A8",
"_$	c #92A2BD",
":$	c #9DACC3",
"<$	c #EFF5FE",
"[$	c #FCFEFF",
"}$	c #E4E7EC",
"|$	c #DBE1EA",
"1$	c #DCE0E9",
"2$	c #E1E2E9",
"3$	c #DCE4E7",
"4$	c #DCFEE6",
"5$	c #D9CDE6",
"6$	c #D857F6",
"7$	c #F882F0",
"8$	c #F997F0",
"9$	c #E56DF7",
"0$	c #DD3FFB",
"a$	c #ED46F9",
"b$	c #C02DFF",
"c$	c #370083",
"d$	c #234431",
"e$	c #C4944C",
"f$	c #D7AD71",
"g$	c #260C3C",
"h$	c #7500E6",
"i$	c #7C63B0",
"j$	c #7A8094",
"k$	c #85A0A9",
"l$	c #8AA6AF",
"m$	c #9FB0C9",
"n$	c #D5DFEA",
"o$	c #DDDFE7",
"p$	c #E2E2F0",
"q$	c #E1E9EB",
"r$	c #DFF5E7",
"s$	c #E1EDEF",
"t$	c #DDEAE9",
"u$	c #DCB0EB",
"v$	c #D329F3",
"w$	c #EA5FFB",
"x$	c #F984F5",
"y$	c #DF4CF3",
"z$	c #D83EF4",
"A$	c #C42CFF",
"B$	c #5A01B2",
"C$	c #242939",
"D$	c #BF8F48",
"E$	c #212837",
"F$	c #5C00AC",
"G$	c #D133FF",
"H$	c #C440EE",
"I$	c #8870AB",
"J$	c #9A9BB8",
"K$	c #859CAE",
"L$	c #89A6B0",
"M$	c #9BB1B4",
"N$	c #CAE3DF",
"O$	c #D0E6E3",
"P$	c #DCDBE9",
"Q$	c #DFB7EE",
"R$	c #E04DF3",
"S$	c #E945FE",
"T$	c #E542F6",
"U$	c #D742F6",
"V$	c #D03EFA",
"W$	c #AB20F5",
"X$	c #790AF0",
"Y$	c #8213F7",
"Z$	c #410287",
"`$	c #2C4F46",
" %	c #C99951",
".%	c #313F59",
"+%	c #5904A6",
"@%	c #8607FA",
"#%	c #C42CFD",
"$%	c #C638EF",
"%%	c #8F6EAB",
"&%	c #A291BD",
"*%	c #AA93C5",
"=%	c #A69CBE",
"-%	c #B38BC7",
";%	c #E34AF4",
">%	c #DC3DF6",
",%	c #C529F6",
"'%	c #C72CF9",
")%	c #D13AFD",
"!%	c #B028F3",
"~%	c #7E0AF1",
"{%	c #8714EF",
"]%	c #B421FF",
"^%	c #9724A2",
"/%	c #21323F",
"(%	c #BC8C44",
"_%	c #BD8D45",
":%	c #DEAE63",
"<%	c #39787D",
"[%	c #291350",
"}%	c #6C01E1",
"|%	c #8601FF",
"1%	c #8A07FF",
"2%	c #BD30F8",
"3%	c #C732F9",
"4%	c #C12EF8",
"5%	c #BE2BF7",
"6%	c #C22BF7",
"7%	c #C530F6",
"8%	c #B624F8",
"9%	c #7408F3",
"0%	c #6D0AF6",
"a%	c #730CF5",
"b%	c #7004FE",
"c%	c #8C0FFF",
"d%	c #D13AF5",
"e%	c #FF4EFF",
"f%	c #8F1F8C",
"g%	c #093828",
"h%	c #D4A45A",
"i%	c #D7A85D",
"j%	c #B99A77",
"k%	c #301354",
"l%	c #7604EE",
"m%	c #8C09FF",
"n%	c #510095",
"o%	c #50009A",
"p%	c #8602FF",
"q%	c #8106FF",
"r%	c #7405FA",
"s%	c #7206FC",
"t%	c #7107FA",
"u%	c #7308F6",
"v%	c #7208F6",
"w%	c #7706F5",
"x%	c #790CFF",
"y%	c #860EFF",
"z%	c #7102E9",
"A%	c #4C00AE",
"B%	c #8F10FF",
"C%	c #E33DFD",
"D%	c #BF37C4",
"E%	c #432C54",
"F%	c #99887C",
"G%	c #D8A85E",
"H%	c #1F1229",
"I%	c #7800E6",
"J%	c #9202FF",
"K%	c #4B008D",
"L%	c #26433F",
"M%	c #2D4345",
"N%	c #440076",
"O%	c #4B0095",
"P%	c #8508FF",
"Q%	c #8908FF",
"R%	c #8408FF",
"S%	c #830AFF",
"T%	c #8C0BFF",
"U%	c #7A04F7",
"V%	c #4C0080",
"W%	c #3D1569",
"X%	c #2F313E",
"Y%	c #4C00B2",
"Z%	c #860DFF",
"`%	c #EF41FF",
" &	c #A32397",
".&	c #032E21",
"+&	c #E0B064",
"@&	c #BB8B43",
"#&	c #241F33",
"$&	c #6E00D2",
"%&	c #4F0CA5",
"&&	c #294A4A",
"*&	c #2A5647",
"=&	c #2A3740",
"-&	c #3C0077",
";&	c #420078",
">&	c #42007B",
",&	c #430078",
"'&	c #43007A",
")&	c #450078",
"!&	c #3C0A72",
"~&	c #223F33",
"{&	c #3E6877",
"]&	c #579BBA",
"^&	c #263037",
"/&	c #4700A1",
"(&	c #A20AFF",
"_&	c #BD2AE9",
":&	c #512E54",
"<&	c #377581",
"[&	c #260D29",
"}&	c #6700D8",
"|&	c #211A30",
"1&	c #DDB16D",
"2&	c #DDAD62",
"3&	c #947F59",
"4&	c #2B4E44",
"5&	c #2E534B",
"6&	c #2D544B",
"7&	c #2D534B",
"8&	c #274B3D",
"9&	c #D7AB67",
"0&	c #D5A55C",
"a&	c #DFAF64",
"b&	c #31344D",
"c&	c #240056",
"d&	c #6802AF",
"e&	c #D627FF",
"f&	c #6C266D",
"g&	c #32004F",
"h&	c #1D0515",
"i&	c #C89950",
"j&	c #7A7A59",
"k&	c #233756",
"l&	c #53006E",
"m&	c #500033",
"n&	c #1B222A",
"o&	c #C7974E",
"p&	c #BD8C46",
"q&	c #C7974F",
"r&	c #BC8B45",
"s&	c #C5954D",
"t&	c #C6964E",
"u&	c #5A6262",
"                                                  . +           ",
"  @ # # $ % & * = # - ; > * # # # * # , * = # # * ' ) ! # # ~   ",
"    { ]   { ^   / { ( _ : < { { { @ { {   [ { / @ } | 1 2 { 3   ",
"    4   5 { $ 6 { 7 8 9 0 a b c d e { { @ f { g @ h i j k l 3   ",
"      m { { @ n { o p q r s t u v w x y @ { { z A B C D E F 3   ",
"    G H { I @ J K L M N O P Q R S T U V W X Y Z `  ...+.@.#.3   ",
"    $.%.&.*.=.-.;.>.,.'.).!.~.{.].^./.(._.:.<.[.}.|.1.2.3.4.3   ",
"    5.6.7.8.9.0.a.b.c.d.e.f.g.h.i.j.k.l.m.n.o.p.q.r.s.t.u.{ 3   ",
"    v.w.x.y.z.A.B.C.D.E.F.G.H.I.J.K.L.M.N.O.P.Q.R.S.T.U.V.{ 3   ",
"  @ W.X.Y.Z.`. +.+++@+#+$+%+&+*+=+-+;+>+,+'+)+!+~+{+]+^+{ { 3   ",
"    /+(+_+:+<+[+}+|+1+2+3+4+5+6+7+8+9+0+a+b+c+d+e+f+g+h+{ { 3   ",
"  @ i+j+k+l+m+n+o+p+q+r+s+t+u+v+w+x+y+z+A+B+C+D+E+F+G+H+{ { 3   ",
"  I+J+K+L+M+N+O+P+Q+R+S+T+U+V+W+3+X+Y+Z+`+ @C+.@+@@@#@$@{ { 3   ",
"  %@&@*@=@-@;@>@,@'@)@!@~@{@]@V+^@/@(@_@:@<@[@}@|@1@2@3@{ { 3   ",
"  4@5@6@7@8@9@0@a@b@c@d@e@f@g@V+h@i@j@k@l@m@n@o@p@q@r@s@t@{ 3   ",
"u@v@w@x@y@z@A@B@C@D@E@F@G@H@I@V+V+J@K@L@M@N@O@P@Q@R@S@T@U@V@W@  ",
"X@Y@Z@`@ #.#+#@###$#E@%#&#*#=#V+2+-#;#>#,#'#)#!#~#{#]#^#/#(#_#:#",
"  <#[#}#|#1#2#3#4#5#6#7#8#9#0#U+a#b#c#d#e#f#g#h#i#j#k#l#m#n#o#  ",
"  p#q#r#s#t#u#v#w#x#y#z#A#B#C#D#E#F#G#H#I#J#K#L#M#N#O#P#Q#R##   ",
"  S#T#U#V#W#X#Y#Z#`# $.$+$@$#$$$%$&$*$=$-$;$>$,$'$)$!$~${ { $   ",
"    {$]$^$/$($_$:$<$[$}$|$1$2$3$4$5$6$7$8$9$0$a$b$c$d${ { e$*   ",
"  @ f$g$h$i$j$k$l$m$n$o$p$q$r$s$t$u$v$w$x$y$z$A$B$C${ { n @ D$  ",
"    @ E$F$G$H$I$J$K$L$M$N$O$P$Q$R$S$T$U$V$W$X$Y$Z$`${ { @  %3   ",
"  @ / * .%+%@%#%$%%%&%*%=%-%;%>%,%'%)%!%~%{%]%^%/%{ { (%_%{ 3   ",
"    { :%<%[%}%|%1%2%3%4%5%6%7%8%9%0%a%b%c%d%e%f%g%{ h%  i%{ 3   ",
"  @ { j%k%l%m%n%o%p%q%r%s%t%u%v%w%x%y%z%A%B%C%D%E%F%  G%{ { 3   ",
"    e$H%I%J%K%L%M%N%O%P%Q%P%R%S%T%U%V%W%X%Y%Z%`% &.&+&{ { { 3   ",
"    @&#&$&%&&&{ n *&=&-&;&>&,&'&)&!&~&{&]&^&/&(&_&:&<&{ { { 3   ",
"  @ { [&}&|&1&{ { 2&@ 3&4&5&6&7&8&9&:%h%0&a&b&c&d&e&f&{ { { 3   ",
"    { { g&h&:%{ { { I   { { ~ i&{ { { { { { { j&k&l&m&n&{ { 3   ",
"  @ o&o&o&p&(%q&o&o&o&r&s&o&3 (%s&o&o&o&o&o&o&o&o&t&u&o&o&o&*   ",
"                                                                "};
