/* XPM */
static char * EN2_xpm[] = {
"32 32 625 2",
"  	c #BA8A42",
". 	c #BA8A43",
"+ 	c #C09048",
"@ 	c #BD8C45",
"# 	c #BE8E46",
"$ 	c #BF8F47",
"% 	c #BC8C45",
"& 	c #BE8E47",
"* 	c #C08F48",
"= 	c #281622",
"- 	c #BB8B44",
"; 	c #E2B266",
"> 	c #CE9E55",
", 	c #D0A057",
"' 	c #DCAC61",
") 	c #D7A85D",
"! 	c #E0B064",
"~ 	c #4D295E",
"{ 	c #E1B166",
"] 	c #D9AA5F",
"^ 	c #D2A259",
"/ 	c #592254",
"( 	c #8D128A",
"_ 	c #233842",
": 	c #C19149",
"< 	c #D3A35A",
"[ 	c #DBAB60",
"} 	c #C89850",
"| 	c #DFAF64",
"1 	c #573263",
"2 	c #821379",
"3 	c #494274",
"4 	c #E2B267",
"5 	c #E1B165",
"6 	c #D6A65C",
"7 	c #345477",
"8 	c #81199A",
"9 	c #A21EA4",
"0 	c #1E4048",
"a 	c #D6A75D",
"b 	c #DFAF63",
"c 	c #1E4035",
"d 	c #750A8A",
"e 	c #A031AF",
"f 	c #3B5A5A",
"g 	c #2D5E5A",
"h 	c #2E5654",
"i 	c #275148",
"j 	c #DEAE63",
"k 	c #D1A158",
"l 	c #13042A",
"m 	c #A412FF",
"n 	c #99209A",
"o 	c #204146",
"p 	c #CB9B53",
"q 	c #44818C",
"r 	c #341B54",
"s 	c #6700D5",
"t 	c #B020FF",
"u 	c #5F0A98",
"v 	c #29006B",
"w 	c #34007E",
"x 	c #39007B",
"y 	c #360E6C",
"z 	c #173F3E",
"A 	c #B18850",
"B 	c #CC9C53",
"C 	c #2F4C63",
"D 	c #540B97",
"E 	c #D731FF",
"F 	c #941F94",
"G 	c #1F4047",
"H 	c #BC9356",
"I 	c #3E5273",
"J 	c #527CA1",
"K 	c #213B3A",
"L 	c #33155B",
"M 	c #7200E0",
"N 	c #870EFF",
"O 	c #6502F7",
"P 	c #8304FF",
"Q 	c #D235FF",
"R 	c #E570FF",
"S 	c #E15EFF",
"T 	c #B222EA",
"U 	c #98128D",
"V 	c #522563",
"W 	c #172C38",
"X 	c #4883A6",
"Y 	c #529EB5",
"Z 	c #130526",
"` 	c #8B07F6",
" .	c #FF51FF",
"..	c #9A1B96",
"+.	c #1A383E",
"@.	c #504366",
"#.	c #82127F",
"$.	c #0E0C00",
"%.	c #351D5F",
"&.	c #5700AD",
"*.	c #7200EA",
"=.	c #8000FF",
"-.	c #6700EF",
";.	c #6C00F5",
">.	c #AC12FD",
",.	c #EF4FF8",
"'.	c #FFA5F1",
").	c #FB7DF3",
"!.	c #F157FF",
"~.	c #FF8CFF",
"{.	c #E573E0",
"].	c #B239AC",
"^.	c #422656",
"/.	c #1C2E34",
"(.	c #5505BD",
"_.	c #9111F9",
":.	c #F34AFC",
"<.	c #8E1D8F",
"[.	c #3C494F",
"}.	c #262734",
"|.	c #B616CB",
"1.	c #ED48F0",
"2.	c #441B52",
"3.	c #6A00E2",
"4.	c #8600FF",
"5.	c #7601FF",
"6.	c #7826EA",
"7.	c #872BF5",
"8.	c #872BF4",
"9.	c #8B2DF2",
"0.	c #7600F0",
"a.	c #C324F9",
"b.	c #E544FE",
"c.	c #F068F8",
"d.	c #FBA1F4",
"e.	c #FF97FF",
"f.	c #D140DB",
"g.	c #B218CE",
"h.	c #9A1AFF",
"i.	c #E342FF",
"j.	c #A629AF",
"k.	c #2B344D",
"l.	c #2E4156",
"m.	c #5D0DA2",
"n.	c #CA30F8",
"o.	c #BD18FF",
"p.	c #7901FD",
"q.	c #6015D3",
"r.	c #8663CC",
"s.	c #D1E3D9",
"t.	c #E5EAF5",
"u.	c #E4EFE9",
"v.	c #D6DCE5",
"w.	c #8A51EB",
"x.	c #9529F1",
"y.	c #9F00F6",
"z.	c #CB33F7",
"A.	c #FF94F0",
"B.	c #F799F6",
"C.	c #F895F6",
"D.	c #F066FF",
"E.	c #E741FF",
"F.	c #DA3EFB",
"G.	c #FB4EFF",
"H.	c #A91EB0",
"I.	c #142A28",
"J.	c #D5A55B",
"K.	c #6AA8D1",
"L.	c #172422",
"M.	c #5F00C5",
"N.	c #7821DF",
"O.	c #613DAC",
"P.	c #86A3A2",
"Q.	c #D4E3E5",
"R.	c #EAF1EF",
"S.	c #E1E8EC",
"T.	c #E1EDE6",
"U.	c #E3EDE8",
"V.	c #EFFFEC",
"W.	c #D1D7E6",
"X.	c #9059F1",
"Y.	c #9533EC",
"Z.	c #CB41F1",
"`.	c #F174F8",
" +	c #F489F8",
".+	c #FF9EF3",
"++	c #DF55F8",
"@+	c #DE3BFF",
"#+	c #DD3BE8",
"$+	c #6F267D",
"%+	c #425E77",
"&+	c #E2B265",
"*+	c #406078",
"=+	c #4A0A8D",
"-+	c #7103E9",
";+	c #607B89",
">+	c #739392",
",+	c #C1C8D4",
"'+	c #FFFFFF",
")+	c #FBFDFF",
"!+	c #E5F0F4",
"~+	c #DBE1E7",
"{+	c #E0E1E9",
"]+	c #DBE3E9",
"^+	c #DFECEB",
"/+	c #FFFFE3",
"(+	c #A38DEC",
"_+	c #8700F6",
":+	c #E842F8",
"<+	c #DD52F3",
"[+	c #E96EF6",
"}+	c #D848F7",
"|+	c #EC44FF",
"1+	c #A925B4",
"2+	c #112E2F",
"3+	c #CE9F55",
"4+	c #C3934C",
"5+	c #1F1C28",
"6+	c #6700C9",
"7+	c #7D4CD4",
"8+	c #8293AB",
"9+	c #B4C6D1",
"0+	c #C6D1E1",
"a+	c #787F90",
"b+	c #4D5259",
"c+	c #BEC1CA",
"d+	c #FDFFFF",
"e+	c #DDE6EB",
"f+	c #DEE2EA",
"g+	c #E0E2EC",
"h+	c #E2F1E7",
"i+	c #D7D8E6",
"j+	c #A147EC",
"k+	c #B71AFA",
"l+	c #DF40F8",
"m+	c #D234FC",
"n+	c #D93AFB",
"o+	c #EE41FF",
"p+	c #AA27BC",
"q+	c #1C2F34",
"r+	c #D7A85F",
"s+	c #395064",
"t+	c #4F0796",
"u+	c #7208F0",
"v+	c #6D8197",
"w+	c #97B0B2",
"x+	c #A7B1D2",
"y+	c #696F8B",
"z+	c #000016",
"A+	c #000000",
"B+	c #25243B",
"C+	c #C5CAD5",
"D+	c #F1F5F9",
"E+	c #E0E3E6",
"F+	c #DFE2EC",
"G+	c #D9DFE8",
"H+	c #FAFFE7",
"I+	c #A38CEB",
"J+	c #8D00F3",
"K+	c #EB4AFD",
"L+	c #D63BFB",
"M+	c #D341F8",
"N+	c #DC41FC",
"O+	c #DD3AF0",
"P+	c #802488",
"Q+	c #325067",
"R+	c #24302A",
"S+	c #5600B0",
"T+	c #7D59CF",
"U+	c #8DA5AD",
"V+	c #9BA9BA",
"W+	c #545C7B",
"X+	c #0A0722",
"Y+	c #151027",
"Z+	c #201C34",
"`+	c #010118",
" @	c #1E1E37",
".@	c #C8CCD7",
"+@	c #EFF4F7",
"@@	c #DDE4E8",
"#@	c #E1E1E6",
"$@	c #E0E9EA",
"%@	c #D5EAE6",
"&@	c #D174EF",
"*@	c #D827FA",
"=@	c #D844F8",
"-@	c #EB7CF6",
";@	c #EF7FF4",
">@	c #F753FF",
",@	c #AD19B1",
"'@	c #212F36",
")@	c #E1B168",
"!@	c #3B286D",
"~@	c #6001C8",
"{@	c #726DA4",
"]@	c #9BB0B8",
"^@	c #94A6C5",
"/@	c #464F65",
"(@	c #0F0B1F",
"_@	c #1C1B32",
":@	c #1C1B30",
"<@	c #16132B",
"[@	c #060419",
"}@	c #BBBDC8",
"|@	c #F3F9FD",
"1@	c #DEE3EB",
"2@	c #DBE2E6",
"3@	c #E5FFE9",
"4@	c #E193F2",
"5@	c #D21AF8",
"6@	c #F179F5",
"7@	c #FE9BF4",
"8@	c #F898F1",
"9@	c #FF87FF",
"0@	c #9D20A5",
"a@	c #002413",
"b@	c #2B7483",
"c@	c #223136",
"d@	c #310057",
"e@	c #7B07F5",
"f@	c #6968A6",
"g@	c #97AAB6",
"h@	c #94A8C3",
"i@	c #4E5672",
"j@	c #120F24",
"k@	c #1A1B31",
"l@	c #1B1932",
"m@	c #15132B",
"n@	c #151225",
"o@	c #C0C1CB",
"p@	c #F2F8FC",
"q@	c #DBE3E7",
"r@	c #E0E2EE",
"s@	c #DCFFE2",
"t@	c #DD88EE",
"u@	c #D81BFC",
"v@	c #E565F5",
"w@	c #FA96F6",
"x@	c #F99AF4",
"y@	c #F570FA",
"z@	c #B533D3",
"A@	c #501E4E",
"B@	c #74195C",
"C@	c #443B66",
"D@	c #C99E5E",
"E@	c #12130B",
"F@	c #5903B2",
"G@	c #7571B1",
"H@	c #9CB5B7",
"I@	c #99A5BB",
"J@	c #404867",
"K@	c #0A071C",
"L@	c #1E1A2F",
"M@	c #1E1B32",
"N@	c #14142D",
"O@	c #000011",
"P@	c #B7B9C5",
"Q@	c #F5FAFD",
"R@	c #DEE2E8",
"S@	c #DDE3E6",
"T@	c #DEE0E7",
"U@	c #DFFFE9",
"V@	c #DF93F3",
"W@	c #D71EFB",
"X@	c #D439F3",
"Y@	c #E761F7",
"Z@	c #E76AF5",
"`@	c #D63BF5",
" #	c #F94BFF",
".#	c #FF44FF",
"+#	c #B11CDE",
"@#	c #8B1279",
"##	c #563E72",
"$#	c #2E3339",
"%#	c #5A00B7",
"&#	c #7C32E6",
"*#	c #7D8DA5",
"=#	c #9BACBD",
"-#	c #75809A",
";#	c #2A2843",
">#	c #0A091C",
",#	c #181428",
"'#	c #000015",
")#	c #626478",
"!#	c #DFE4EC",
"~#	c #E6ECEF",
"{#	c #E1E2EC",
"]#	c #DCE3E9",
"^#	c #DFF4EB",
"/#	c #DAC8EC",
"(#	c #D348F0",
"_#	c #D72EFA",
":#	c #DA41FC",
"<#	c #D137F6",
"[#	c #D739F8",
"}#	c #E33FFF",
"|#	c #9C24DE",
"1#	c #4E005B",
"2#	c #132456",
"3#	c #684A84",
"4#	c #3F0723",
"5#	c #C3A178",
"6#	c #38125F",
"7#	c #6C00E2",
"8#	c #6A6DA0",
"9#	c #96ADB9",
"0#	c #ABB6D2",
"a#	c #7E8AA8",
"b#	c #2B2C44",
"c#	c #000007",
"d#	c #65697A",
"e#	c #FBFFFF",
"f#	c #F2F3F8",
"g#	c #DAE0E6",
"h#	c #DDE4E6",
"i#	c #E1DFED",
"j#	c #DDFFE7",
"k#	c #D588EC",
"l#	c #E438F9",
"m#	c #E15FF6",
"n#	c #D63AFA",
"o#	c #D944F7",
"p#	c #E53EFF",
"q#	c #880FD8",
"r#	c #1A1355",
"s#	c #256160",
"t#	c #233434",
"u#	c #5C00B8",
"v#	c #7925E8",
"w#	c #6C8893",
"x#	c #91ADB2",
"y#	c #9AA8C5",
"z#	c #A2AAC1",
"A#	c #B5BCC6",
"B#	c #F2F2F6",
"C#	c #F3F6FA",
"D#	c #D9DFEA",
"E#	c #DFE0EC",
"F#	c #E0E3E9",
"G#	c #E0FFE6",
"H#	c #D6BBE6",
"I#	c #E252F5",
"J#	c #F996F3",
"K#	c #F18DF1",
"L#	c #E54BFA",
"M#	c #EA44F2",
"N#	c #D736FD",
"O#	c #4A00AB",
"P#	c #1D362E",
"Q#	c #C4944C",
"R#	c #E0B169",
"S#	c #290B42",
"T#	c #7600EB",
"U#	c #8568A1",
"V#	c #7F869A",
"W#	c #81A8AC",
"X#	c #A0B1C0",
"Y#	c #DAE0F2",
"Z#	c #E2E5EF",
"`#	c #E1E4ED",
" $	c #E7EEF0",
".$	c #E2FCE5",
"+$	c #DCF2E6",
"@$	c #DEE0EB",
"#$	c #DC8CF2",
"$$	c #D323F4",
"%$	c #F17AF4",
"&$	c #FB71F9",
"*$	c #D23AF5",
"=$	c #C52DFF",
"-$	c #8105E6",
";$	c #26133A",
">$	c #BF8F48",
",$	c #263842",
"'$	c #5D00A3",
")$	c #D527FF",
"!$	c #B03CDC",
"~$	c #A180B5",
"{$	c #9694B1",
"]$	c #78A2A3",
"^$	c #86B0B0",
"/$	c #ACD8C8",
"($	c #C8E4D9",
"_$	c #D7C9E6",
":$	c #E29DF1",
"<$	c #E644EF",
"[$	c #EC47F9",
"}$	c #EA48FB",
"|$	c #D139F9",
"1$	c #B229F3",
"2$	c #7B09F3",
"3$	c #7F0BF9",
"4$	c #5707AE",
"5$	c #31404C",
"6$	c #C99951",
"7$	c #C6964F",
"8$	c #375364",
"9$	c #470091",
"0$	c #8B0BFF",
"a$	c #C122FF",
"b$	c #A642D7",
"c$	c #AE7CBF",
"d$	c #C286D2",
"e$	c #B782C8",
"f$	c #BA79D2",
"g$	c #DF48F0",
"h$	c #E52EFF",
"i$	c #B124F3",
"j$	c #B426FA",
"k$	c #BE32F7",
"l$	c #8610F4",
"m$	c #8215F4",
"n$	c #A725FB",
"o$	c #C72FE4",
"p$	c #372635",
"q$	c #DFB16A",
"r$	c #BC8C44",
"s$	c #BD8D45",
"t$	c #3C5D71",
"u$	c #460A7E",
"v$	c #7A00FF",
"w$	c #7200FF",
"x$	c #990FFF",
"y$	c #BC20FC",
"z$	c #B018FD",
"A$	c #B317FF",
"B$	c #B119FC",
"C$	c #AF25FA",
"D$	c #9E1DF7",
"E$	c #6800F6",
"F$	c #6604F4",
"G$	c #6606F9",
"H$	c #7400FF",
"I$	c #A31BFF",
"J$	c #F74BFF",
"K$	c #DF3EEB",
"L$	c #2F1F35",
"M$	c #D4A45A",
"N$	c #D9A95F",
"O$	c #1F0921",
"P$	c #8E02FF",
"Q$	c #700CDC",
"R$	c #280348",
"S$	c #4F00A4",
"T$	c #6B00FC",
"U$	c #6906FF",
"V$	c #6703FF",
"W$	c #6C00FF",
"X$	c #7002FF",
"Y$	c #790DFF",
"Z$	c #7A09FE",
"`$	c #8505FF",
" %	c #4D0893",
".%	c #4300AD",
"+%	c #A612FF",
"@%	c #D537E8",
"#%	c #322332",
"$%	c #B9905C",
"%%	c #D8A85E",
"&%	c #363E5D",
"*%	c #6405CA",
"=%	c #6D00DB",
"-%	c #2E264B",
";%	c #408883",
">%	c #364467",
",%	c #2A0240",
"'%	c #6007B1",
")%	c #7B01F2",
"!%	c #7404EA",
"~%	c #7305EC",
"{%	c #7005F0",
"]%	c #7D02F7",
"^%	c #5E05AE",
"/%	c #27023E",
"(%	c #3B5067",
"_%	c #324154",
":%	c #5200B2",
"<%	c #9D11FF",
"[%	c #9F2BB2",
"}%	c #3C4655",
"|%	c #BB8B43",
"1%	c #241639",
"2%	c #8900FF",
"3%	c #52009C",
"4%	c #244339",
"5%	c #373F63",
"6%	c #260D35",
"7%	c #2C1A45",
"8%	c #2D1A44",
"9%	c #250F37",
"0%	c #896A54",
"a%	c #BB8A43",
"b%	c #BB8A44",
"c%	c #B98A46",
"d%	c #242E48",
"e%	c #6A02C7",
"f%	c #D42DE8",
"g%	c #212127",
"h%	c #CA9A52",
"i%	c #25102D",
"j%	c #430078",
"k%	c #3A416B",
"l%	c #DDAD62",
"m%	c #DAAA5F",
"n%	c #D5A55C",
"o%	c #E1B267",
"p%	c #2C1A39",
"q%	c #AD16D1",
"r%	c #683083",
"s%	c #D3A45A",
"t%	c #2F3D55",
"u%	c #6E624C",
"v%	c #C89950",
"w%	c #364A5B",
"x%	c #540090",
"y%	c #790272",
"z%	c #292226",
"A%	c #C7974E",
"B%	c #BD8C46",
"C%	c #C7974F",
"D%	c #BC8B45",
"E%	c #C5954D",
"F%	c #A78553",
"G%	c #28363A",
"H%	c #3E5779",
"                                                                ",
"  . + + @ # $ % & + % $ + % + + + % + * % & + + % & * = + + -   ",
"    ; >   ; ,   ' ;   ) ! ~ { ; ; . ; ;   ] ; ' . ^ / ( _ ; :   ",
"    <   [ ; @ } ; ; . | 1 2 3 4 ; . ; ; . 5 ; 6 . 7 8 9 0 ; :   ",
"      a ; ; . b ; !   c d e f g h i ; j . ; ; k . l m n o ; :   ",
"    ' ; ; p . ; ; } q r s t u v w x y z A ; ; B C D E F G ; :   ",
"    ; ; 5 . H I J K L M N O P Q R S T U V W X Y Z `  ...+.; :   ",
"    ; ; - @.#.$.%.&.*.=.-.;.>.,.'.).!.~.{.].^./.(._.:.<.[.; :   ",
"    ; [ }.|.1.2.3.4.5.6.7.8.9.0.a.b.c.d.e.e.f.g.h.i.j.k.; ; :   ",
"  . ^   l.m.n.o.p.q.r.s.t.u.v.w.x.y.z.A.B.C.D.E.F.G.H.I.; ; :   ",
"      J.K.L.M.N.O.P.Q.R.S.T.U.V.W.X.Y.Z.`. +.+++@+#+$+%+; ; :   ",
"  . &+; *+=+-+;+>+,+'+)+!+~+{+]+^+/+(+_+:+<+[+}+|+1+2+3+; ; :   ",
"    5 4+5+6+7+8+9+0+a+b+c+d+e+f+g+h+i+j+k+l+m+n+o+p+q+r+; ; :   ",
"  . . s+t+u+v+w+x+y+z+A+B+C+D+E+F+G+H+I+J+K+L+M+N+O+P+Q+; ; :   ",
"  . 5 R+S+T+U+V+W+X+Y+Z+`+ @.@+@@@#@$@%@&@*@=@-@;@>@,@'@; ; :   ",
"    )@!@~@{@]@^@/@(@_@:@<@[@}@|@@@1@2@3@4@5@6@7@8@9@0@a@b@; :   ",
"    c@d@e@f@g@h@i@j@k@l@m@n@o@p@q@r@1@s@t@u@v@w@x@y@z@A@B@C@:   ",
"  . D@E@F@G@H@I@J@K@L@M@N@O@P@Q@R@S@T@U@V@W@X@Y@Z@`@ #.#+#@###  ",
"      $#%#&#*#=#-#;#>#,#'#)#!#~#{#]#^#/#(#_#:#<#[#}#|#1#2#3#4#  ",
"    ; 5#6#7#8#9#0#a#b#c#d#e#f#g#h#i#j#k#l#m#n#o#p#q#r#s#; ; @   ",
"    ; ; t#u#v#w#x#y#z#A#B#C#D#E#F#G#H#I#J#K#L#M#N#O#P#; ; Q#%   ",
"  . ; ; R#S#T#U#V#W#X#Y#Z#`# $.$+$@$#$$$%$&$*$=$-$;$; ; b . >$  ",
"    . Q#5 ,$'$)$!$~${$]$^$/$($_$:$<$[$}$|$1$2$3$4$5$; ; . 6$:   ",
"  . ' % . 7$8$9$0$a$b$c$d$e$f$g$h$i$j$k$l$m$n$o$p$q$; r$s$; :   ",
"    ; j % . t$u$v$w$x$y$z$A$B$C$D$E$F$G$H$I$J$K$L$; M$  ) ; :   ",
"  . ; ; ; N$O$P$Q$R$S$w$T$U$V$W$X$Y$Z$`$ %.%+%@%#%$%  %%; ; :   ",
"    Q#; ; &%*%=%-%;%>%,%'%)%!%~%{%]%^%/%(%_%:%<%[%}%! ; ; ; :   ",
"    |%  j 1%2%3%4%. 6$; 5%6%7%7%8%9%0%a%b%c%d%e%f%g%; ; ; ; :   ",
"  . ; h%. i%j%k%; l%. m%; b . 5 ; ; j M$n%| o%p%q%r%; ; ; ; :   ",
"    ; ; s%t%u%; ; ; p   ; ; - v%; ; ; ; ; ; ; w%x%y%z%; ; ; :   ",
"  . A%A%A%B%r$C%A%A%A%D%E%A%: r$E%A%A%A%A%A%A%A%F%G%H%A%A%A%%   ",
"                                                                "};
