/* XPM */
static char * EN3_xpm[] = {
"32 32 593 2",
"  	c #BA8A42",
". 	c #BA8A43",
"+ 	c #C09048",
"@ 	c #BD8C45",
"# 	c #BE8E46",
"$ 	c #BF8F47",
"% 	c #BC8C45",
"& 	c #BE8E47",
"* 	c #C08F48",
"= 	c #BB8B44",
"- 	c #E2B266",
"; 	c #CE9E55",
"> 	c #D0A057",
", 	c #DCAC61",
"' 	c #D7A85D",
") 	c #5B3E75",
"! 	c #3F0027",
"~ 	c #E0B166",
"{ 	c #D9AA5F",
"] 	c #D2A259",
"^ 	c #BA8943",
"/ 	c #D6AA63",
"( 	c #C19149",
"_ 	c #D3A35A",
": 	c #DBAB60",
"< 	c #C89850",
"[ 	c #2C6864",
"} 	c #7E1771",
"| 	c #A71FA4",
"1 	c #175248",
"2 	c #E1B269",
"3 	c #E1B165",
"4 	c #D6A65C",
"5 	c #D6A65B",
"6 	c #39504E",
"7 	c #242757",
"8 	c #7F0296",
"9 	c #4E002F",
"0 	c #D6A75D",
"a 	c #DFAF63",
"b 	c #E0B064",
"c 	c #628585",
"d 	c #231C58",
"e 	c #A820DD",
"f 	c #942B9A",
"g 	c #07161B",
"h 	c #20284D",
"i 	c #1A1A41",
"j 	c #232B4D",
"k 	c #E1B167",
"l 	c #DEAE63",
"m 	c #D1A158",
"n 	c #23383C",
"o 	c #040008",
"p 	c #8505C7",
"q 	c #B627D3",
"r 	c #4F426F",
"s 	c #CB9B53",
"t 	c #3B766E",
"u 	c #321F60",
"v 	c #7100D6",
"w 	c #8C0DFF",
"x 	c #7408F4",
"y 	c #6602D2",
"z 	c #7810C6",
"A 	c #7E11CF",
"B 	c #7507C0",
"C 	c #3D0C4A",
"D 	c #323153",
"E 	c #A2835C",
"F 	c #CC9C53",
"G 	c #2B3251",
"H 	c #4800A8",
"I 	c #A81BF8",
"J 	c #C124D5",
"K 	c #282A2C",
"L 	c #2C0017",
"M 	c #5B3978",
"N 	c #206A70",
"O 	c #3E6887",
"P 	c #4B7386",
"Q 	c #302750",
"R 	c #340052",
"S 	c #7002E8",
"T 	c #840AFF",
"U 	c #6C06F4",
"V 	c #7D0CFD",
"W 	c #D732FF",
"X 	c #FF88FF",
"Y 	c #FFA1FF",
"Z 	c #E250FF",
"` 	c #EA46F4",
" .	c #BC48C5",
"..	c #4D1B47",
"+.	c #39315D",
"@.	c #2C7D80",
"#.	c #2B2B54",
"$.	c #5500B7",
"%.	c #A315FF",
"&.	c #E843FF",
"*.	c #812A82",
"=.	c #DBAD66",
"-.	c #543B72",
";.	c #8F2494",
">.	c #7A2061",
",.	c #1F0711",
"'.	c #12001E",
").	c #7807E4",
"!.	c #8602FF",
"~.	c #7600FF",
"{.	c #6300FB",
"].	c #5C00F4",
"^.	c #8400FA",
"/.	c #AC19F4",
"(.	c #E15CF5",
"_.	c #FC74F8",
":.	c #E44CFA",
"<.	c #FB8BFF",
"[.	c #FF9EFE",
"}.	c #FF8BFF",
"|.	c #AE3CBC",
"1.	c #4E0D4F",
"2.	c #6703CB",
"3.	c #9912FF",
"4.	c #F84DFF",
"5.	c #C92FCC",
"6.	c #162224",
"7.	c #CCA463",
"8.	c #2F004B",
"9.	c #FF41FF",
"0.	c #D043C5",
"a.	c #7B0FD5",
"b.	c #7A00FF",
"c.	c #6B00F5",
"d.	c #8A5BD4",
"e.	c #B690EC",
"f.	c #B98CEE",
"g.	c #BA9BEF",
"h.	c #712DEB",
"i.	c #7000F2",
"j.	c #CE23F7",
"k.	c #E544F6",
"l.	c #F88EF4",
"m.	c #F392EE",
"n.	c #FB9CF3",
"o.	c #F572FF",
"p.	c #F539FF",
"q.	c #C630FE",
"r.	c #D640FB",
"s.	c #EB40F2",
"t.	c #662272",
"u.	c #304E63",
"v.	c #480184",
"w.	c #BD23FF",
"x.	c #8B06FF",
"y.	c #5E37B8",
"z.	c #8683B6",
"A.	c #D8E6DA",
"B.	c #F0FFE9",
"C.	c #F2FFEA",
"D.	c #F7FFE3",
"E.	c #D7D6E9",
"F.	c #B1A8EE",
"G.	c #9233EF",
"H.	c #9112F6",
"I.	c #DB57ED",
"J.	c #F78BF2",
"K.	c #F991F6",
"L.	c #F98EF4",
"M.	c #DE58F6",
"N.	c #E13FFD",
"O.	c #F047FF",
"P.	c #BD2ED4",
"Q.	c #19242F",
"R.	c #D5A55B",
"S.	c #3A6966",
"T.	c #390075",
"U.	c #6A23E1",
"V.	c #5A6B89",
"W.	c #82939E",
"X.	c #CEE9D8",
"Y.	c #F0F0F7",
"Z.	c #DDE0EA",
"`.	c #DCE1E8",
" +	c #DAE0E9",
".+	c #E6F4E9",
"++	c #F0FFE8",
"@+	c #D4DDEB",
"#+	c #AEA6E9",
"$+	c #8D06EF",
"%+	c #DC3BF8",
"&+	c #E460F5",
"*+	c #F996F0",
"=+	c #E562FB",
"-+	c #D838FE",
";+	c #DB3BF3",
">+	c #4C215A",
",+	c #D3A45A",
"'+	c #C5964D",
")+	c #E2B265",
"!+	c #C5A66F",
"~+	c #2D0343",
"{+	c #7D0BFA",
"]+	c #6F59AD",
"^+	c #81A795",
"/+	c #A6B6C4",
"(+	c #EFF1FB",
"_+	c #FFFFFF",
":+	c #F7FDFF",
"<+	c #DCE1E6",
"[+	c #DEE2EB",
"}+	c #DDE5E6",
"|+	c #DDE1EA",
"1+	c #E9FEE7",
"2+	c #DDEFE5",
"3+	c #943FF0",
"4+	c #BC25F5",
"5+	c #DA3BFC",
"6+	c #D844F5",
"7+	c #DB3FF7",
"8+	c #E641FF",
"9+	c #D239EE",
"0+	c #191724",
"a+	c #CA9B52",
"b+	c #CE9F55",
"c+	c #384A5D",
"d+	c #5600B0",
"e+	c #6F23DC",
"f+	c #7B9F8C",
"g+	c #9DA5C6",
"h+	c #DBE8F5",
"i+	c #D0D6DE",
"j+	c #868797",
"k+	c #B1B2BD",
"l+	c #FAFFFF",
"m+	c #DAE0E4",
"n+	c #DFE2E8",
"o+	c #DEE3EB",
"p+	c #EBF8E9",
"q+	c #C4BFE9",
"r+	c #7B00F1",
"s+	c #DA39FA",
"t+	c #DD3CFE",
"u+	c #D638FC",
"v+	c #D735FE",
"w+	c #D93BF9",
"x+	c #702778",
"y+	c #BF9049",
"z+	c #D8A85D",
"A+	c #738580",
"B+	c #2F0048",
"C+	c #7D12FF",
"D+	c #7165A5",
"E+	c #8BA3A9",
"F+	c #A2ACCD",
"G+	c #ADB1C9",
"H+	c #3F405E",
"I+	c #000001",
"J+	c #060517",
"K+	c #AEB0BA",
"L+	c #FDFFFF",
"M+	c #DADFE6",
"N+	c #DEE3E9",
"O+	c #DEE3EA",
"P+	c #E2ECE8",
"Q+	c #D3E1E5",
"R+	c #B46BEF",
"S+	c #DA37F8",
"T+	c #D436FB",
"U+	c #D956F8",
"V+	c #EA6FF5",
"W+	c #E447FF",
"X+	c #D72CED",
"Y+	c #311B32",
"Z+	c #E0B165",
"`+	c #22312B",
" @	c #310060",
".@	c #692CCE",
"+@	c #7CA291",
"@@	c #A7AFCC",
"#@	c #8492AC",
"$@	c #31324B",
"%@	c #05031B",
"&@	c #1B1A2F",
"*@	c #07041C",
"=@	c #050514",
"-@	c #A2A2AE",
";@	c #F3F6F8",
">@	c #DAE1EA",
",@	c #E4FFE7",
"'@	c #EDD2EB",
")@	c #D429FE",
"!@	c #DF52F4",
"~@	c #F890F7",
"{@	c #FA9DF4",
"]@	c #FC84FF",
"^@	c #CD35DA",
"/@	c #1D1E31",
"(@	c #E1B267",
"_@	c #21112F",
":@	c #6700C6",
"<@	c #7222D7",
"[@	c #799495",
"}@	c #A2B1C7",
"|@	c #75819F",
"1@	c #11112E",
"2@	c #0E0B1D",
"3@	c #1E1C30",
"4@	c #23213A",
"5@	c #000000",
"6@	c #514F64",
"7@	c #DEE3E8",
"8@	c #E0F8E8",
"9@	c #D9BCEB",
"0@	c #D225FB",
"a@	c #E460F3",
"b@	c #FF9AF4",
"c@	c #F695F6",
"d@	c #FE93FC",
"e@	c #CD48E9",
"f@	c #330D2C",
"g@	c #363F52",
"h@	c #DFB168",
"i@	c #4B7991",
"j@	c #3B007A",
"k@	c #6827CA",
"l@	c #7CA393",
"m@	c #A9B0CC",
"n@	c #838DAB",
"o@	c #2F3150",
"p@	c #08051A",
"q@	c #1E1B33",
"r@	c #0A081F",
"s@	c #00000B",
"t@	c #9292A0",
"u@	c #F7FAFA",
"v@	c #E1FDE8",
"w@	c #DFCAED",
"x@	c #D931F6",
"y@	c #D637F6",
"z@	c #E763F5",
"A@	c #F586F6",
"B@	c #DE4EFA",
"C@	c #E544FD",
"D@	c #F245FF",
"E@	c #AB28D9",
"F@	c #581F5F",
"G@	c #5A4A7B",
"H@	c #D0A259",
"I@	c #2C0046",
"J@	c #7B16F8",
"K@	c #7270A1",
"L@	c #93A5B1",
"M@	c #9EAAC6",
"N@	c #8590AA",
"O@	c #32344F",
"P@	c #00000C",
"Q@	c #9698A3",
"R@	c #F8FCFF",
"S@	c #DCE1E7",
"T@	c #E0E2E9",
"U@	c #DCE8E6",
"V@	c #DEE9EA",
"W@	c #D78AF0",
"X@	c #D42DF8",
"Y@	c #D93CF8",
"Z@	c #D53DF8",
"`@	c #D83DFB",
" #	c #E544FF",
".#	c #D333FF",
"+#	c #8412AA",
"@#	c #5E0092",
"##	c #A81C99",
"$#	c #4A0030",
"%#	c #373E56",
"&#	c #6200C3",
"*#	c #6D29D1",
"=#	c #7DA38E",
"-#	c #A1ABC7",
";#	c #98ACC5",
">#	c #8D94AF",
",#	c #6C6A7E",
"'#	c #9C9CAA",
")#	c #F9FEFF",
"!#	c #DDE5E7",
"~#	c #DCE2EA",
"{#	c #DDE3E9",
"]#	c #DCE2E9",
"^#	c #DDF8E9",
"/#	c #D9D1EB",
"(#	c #DB39F5",
"_#	c #E14DFB",
":#	c #D43AF8",
"<#	c #DA40F7",
"[#	c #DC3EFD",
"}#	c #BA29FD",
"|#	c #460A91",
"1#	c #1C424E",
"2#	c #28504C",
"3#	c #264958",
"4#	c #DCAE65",
"5#	c #5E8377",
"6#	c #280044",
"7#	c #8412FF",
"8#	c #6E63AC",
"9#	c #85A89F",
"0#	c #92A2BF",
"a#	c #9FAFC2",
"b#	c #DFE3E9",
"c#	c #DEE2E7",
"d#	c #DDF2E9",
"e#	c #DEE7E6",
"f#	c #D97DED",
"g#	c #F07AF7",
"h#	c #FB97F6",
"i#	c #E558F5",
"j#	c #DD3DF4",
"k#	c #EA48FF",
"l#	c #8506F5",
"m#	c #0B0822",
"n#	c #314D4E",
"o#	c #540099",
"p#	c #8235EB",
"q#	c #708B7E",
"r#	c #899CAA",
"s#	c #8AA9B3",
"t#	c #B2BAC9",
"u#	c #DBDFE9",
"v#	c #DFE6EE",
"w#	c #E5E8EC",
"x#	c #E2EFEA",
"y#	c #DCF6E7",
"z#	c #E1EEE7",
"A#	c #DDCCEC",
"B#	c #D533F5",
"C#	c #EF62F9",
"D#	c #FE8AF1",
"E#	c #DF4CF6",
"F#	c #D23BF9",
"G#	c #B01FFF",
"H#	c #3D0167",
"I#	c #B08C5E",
"J#	c #C4944C",
"K#	c #DDAF68",
"L#	c #1F0140",
"M#	c #AA16F1",
"N#	c #D43BFF",
"O#	c #9465B3",
"P#	c #9D96AF",
"Q#	c #859DAD",
"R#	c #83ACAF",
"S#	c #A3C8C0",
"T#	c #CDEEDB",
"U#	c #D0D7DE",
"V#	c #DECEEE",
"W#	c #E672F1",
"X#	c #E64AF3",
"Y#	c #E646F8",
"Z#	c #DA41F8",
"`#	c #CC3AF8",
" $	c #9213F2",
".$	c #840DF7",
"+$	c #7406E3",
"@$	c #221A42",
"#$	c #BF8F48",
"$$	c #487A92",
"%$	c #3F1F64",
"&$	c #6B00D6",
"*$	c #B51BFF",
"=$	c #BF35F0",
"-$	c #9D6DB7",
";$	c #B289C6",
">$	c #B68ACB",
",$	c #B492CA",
"'$	c #CF63E4",
")$	c #EF3FFD",
"!$	c #C52BFB",
"~$	c #B81FF2",
"{$	c #C235F9",
"]$	c #A021F5",
"^$	c #820EF2",
"/$	c #941AF2",
"($	c #C72DFE",
"_$	c #5D1D57",
":$	c #326A76",
"<$	c #C99951",
"[$	c #889197",
"}$	c #353053",
"|$	c #5B03B4",
"1$	c #7900FF",
"2$	c #7D04FF",
"3$	c #B520FF",
"4$	c #BA21FD",
"5$	c #B220FD",
"6$	c #B51CFC",
"7$	c #AF21F8",
"8$	c #B423FA",
"9$	c #7F0BF2",
"0$	c #6502F4",
"a$	c #7006F7",
"b$	c #6B00FF",
"c$	c #890CFF",
"d$	c #DA42F6",
"e$	c #FF53FF",
"f$	c #511655",
"g$	c #4C727A",
"h$	c #BC8C44",
"i$	c #BD8D45",
"j$	c #284D42",
"k$	c #420079",
"l$	c #940CFF",
"m$	c #780DF5",
"n$	c #450288",
"o$	c #6300E6",
"p$	c #6D00FF",
"q$	c #6B02FF",
"r$	c #6E03FF",
"s$	c #6904FF",
"t$	c #7909FF",
"u$	c #7C0CFF",
"v$	c #8208FF",
"w$	c #6406C1",
"x$	c #3F0094",
"y$	c #DC3EFF",
"z$	c #5F1D59",
"A$	c #A4916F",
"B$	c #D4A45A",
"C$	c #2E5F4F",
"D$	c #40006C",
"E$	c #9303FF",
"F$	c #430B7B",
"G$	c #31594E",
"H$	c #30214B",
"I$	c #470478",
"J$	c #7800EE",
"K$	c #7105ED",
"L$	c #7003EB",
"M$	c #7203E7",
"N$	c #7403F2",
"O$	c #7200DD",
"P$	c #37035B",
"Q$	c #353957",
"R$	c #2B5242",
"S$	c #390098",
"T$	c #CB27FF",
"U$	c #652254",
"V$	c #C4A26B",
"W$	c #C09049",
"X$	c #D8A85E",
"Y$	c #354D66",
"Z$	c #6100AA",
"`$	c #7D00EA",
" %	c #271233",
".%	c #B89664",
"+%	c #506C7D",
"@%	c #2A1843",
"#%	c #2D1C47",
"$%	c #2F1D47",
"%%	c #2B1E48",
"&%	c #2A1840",
"*%	c #2C254A",
"=%	c #D7AC6B",
"-%	c #3F7B75",
";%	c #200557",
">%	c #CF2AF7",
",%	c #6A1F5D",
"'%	c #B58847",
")%	c #BB8B43",
"!%	c #260036",
"~%	c #6300A9",
"{%	c #351760",
"]%	c #D9A95E",
"^%	c #BB8A43",
"/%	c #BB8A44",
"(%	c #12534C",
"_%	c #901D9A",
":%	c #821780",
"<%	c #CA9A52",
"[%	c #B6915B",
"}%	c #DDAD62",
"|%	c #DAAA5F",
"1%	c #D5A55C",
"2%	c #564779",
"3%	c #8F148B",
"4%	c #502B62",
"5%	c #C89950",
"6%	c #633A32",
"7%	c #5D3771",
"8%	c #C7974E",
"9%	c #BD8C46",
"0%	c #C7974F",
"a%	c #BC8B45",
"b%	c #C5954D",
"                                                                ",
"  . + + @ # $ % & + % $ + % + + + % + * % & + + % & * % + + =   ",
"    - ;   - >   , -   ' ) ! ~ - - . - -   { - , . ] - ^ / ~ (   ",
"    _   : - @ < - - . [ } | 1 2 - . - - . 3 - 4 . 5 6 7 8 9 (   ",
"      0 - - . a - b c d e f g h i j k l . - - m . n o p q r (   ",
"    , - - s . - - t u v w x y z A B C D E - - F G H I J K - (   ",
"    - L M N O P Q R S T U V W X Y Z `  ...+.@.#.$.%.&.*.=.- (   ",
"    - -.;.>.,.'.).!.~.{.].^./.(._.:.<.[.}.|.1.2.3.4.5.6.- - (   ",
"    - 7.8.9.0.a.b.c.d.e.f.g.h.i.j.k.l.m.n.o.p.q.r.s.t.. - - (   ",
"  . ]   u.v.w.x.y.z.A.B.C.D.E.F.G.H.I.J.K.L.M.N.O.P.Q.$ - - (   ",
"      R.S.T.U.V.W.X.Y.Z.`. +.+++@+#+$+%+&+*+=+-+;+>+,+'+- - (   ",
"  . )+!+~+{+]+^+/+(+_+:+<+[+}+|+1+2+3+4+5+6+7+8+9+0+a+b+- - (   ",
"    3 c+d+e+f+g+h+i+j+k+l+m+n+o+n+p+q+r+s+t+u+v+w+x+y+z+- - (   ",
"  . A+B+C+D+E+F+G+H+I+J+K+L+M+N+O+P+Q+R+S+T+U+V+W+X+Y+Z+- - (   ",
"  . `+ @.@+@@@#@$@%@&@*@=@-@;@N+N+>@,@'@)@!@~@{@]@^@/@(@- - (   ",
"    _@:@<@[@}@|@1@2@3@4@5@6@_+7@N+O+8@9@0@a@b@c@d@e@f@g@h@- (   ",
"    i@j@k@l@m@n@o@p@q@r@s@t@u@N+N+|+v@w@x@y@z@A@B@C@D@E@F@G@(   ",
"  . H@I@J@K@L@M@N@O@5@P@Q@R@S@N+T@U@V@W@X@Y@Z@`@ #.#+#@###$#y+  ",
"      %#&#*#=#-#;#>#,#'#)#!#~#{#]#^#/#(#_#:#<#[#}#|#1#2#3#4#+   ",
"    - 5#6#7#8#9#0#a#L+_+b#]#7@c#d#e#f#g#h#i#j#k#l#m#- - - - @   ",
"    - - n#o#p#q#r#s#t#u#v#w#x#y#z#A#B#C#D#E#F#G#H#I#- - - J#%   ",
"  . - - K#L#M#N#O#P#Q#R#S#T#U#V#W#X#Y#Z#`# $.$+$@$- - - a . #$  ",
"    . J#3 $$%$&$*$=$-$;$>$,$'$)$!$~${$]$^$/$($_$:$- - - . <$(   ",
"  . , % . [$}$|$1$2$3$4$5$6$7$8$9$0$a$b$c$d$e$f$g$- - h$i$- (   ",
"    - l % j$k$l$m$n$o$p$q$q$r$s$t$u$v$w$x$T y$z$A$- B$  ' - (   ",
"  . - - - C$D$E$F$G$H$I$J$K$L$M$N$O$P$Q$R$S$T$U$V$W$  X$- - (   ",
"    J#- - Y$Z$`$ %.%- +%@%#%$%%%&%*%=%(@-%;%>%,%'%= b - - - (   ",
"    )%  l !%~%{%a . <$- - h$W$- ]%    ^%/%(%_%:%z+- - - - - (   ",
"  . - <%. X$[%- - }%. |%- a . 3 - - l B$1%2%3%4%- - - - - - (   ",
"    - - ,+. l - - - s   - - = 5%- - - - - 6%7%- - - - - - - (   ",
"  . 8%8%8%9%h$0%8%8%8%a%b%8%( h$b%8%8%8%8%8%8%8%8%8%8%8%8%8%%   ",
"                                                                "};
