/* XPM */
static char * EN4_xpm[] = {
"32 32 670 2",
"  	c #BA8A42",
". 	c #BA8A43",
"+ 	c #C09048",
"@ 	c #BD8C45",
"# 	c #BE8E46",
"$ 	c #BF8F47",
"% 	c #BC8C45",
"& 	c #BE8E47",
"* 	c #C08F48",
"= 	c #BB8B44",
"- 	c #E2B266",
"; 	c #CE9E55",
"> 	c #D0A057",
", 	c #DCAC61",
"' 	c #4A0032",
") 	c #731D7B",
"! 	c #3C6376",
"~ 	c #D9AA5F",
"{ 	c #D2A259",
"] 	c #E1B266",
"^ 	c #3B0027",
"/ 	c #6F1C72",
"( 	c #C19149",
"_ 	c #D3A35A",
": 	c #DBAB60",
"< 	c #C89850",
"[ 	c #BA8A44",
"} 	c #405A77",
"| 	c #911B83",
"1 	c #6F176F",
"2 	c #276565",
"3 	c #E1B165",
"4 	c #D6A65C",
"5 	c #D6A65B",
"6 	c #2A6A70",
"7 	c #721F8A",
"8 	c #AC1DA9",
"9 	c #12302C",
"0 	c #D6A75D",
"a 	c #DFAF63",
"b 	c #E0B064",
"c 	c #467D89",
"d 	c #1C1959",
"e 	c #AC23E3",
"f 	c #AB29A5",
"g 	c #000600",
"h 	c #202844",
"i 	c #1B1C39",
"j 	c #171C32",
"k 	c #9D8E7F",
"l 	c #DEAE63",
"m 	c #D1A158",
"n 	c #538188",
"o 	c #271456",
"p 	c #B622F2",
"q 	c #A21F9B",
"r 	c #1B3E42",
"s 	c #CB9B53",
"t 	c #447377",
"u 	c #301257",
"v 	c #7400E8",
"w 	c #8F0DFF",
"x 	c #750FEF",
"y 	c #6207D3",
"z 	c #7304CB",
"A 	c #7107D1",
"B 	c #7404D7",
"C 	c #400F66",
"D 	c #241A2E",
"E 	c #3E6787",
"F 	c #CC9C53",
"G 	c #507884",
"H 	c #200B53",
"I 	c #8603DE",
"J 	c #F847FF",
"K 	c #791878",
"L 	c #1C393D",
"M 	c #D9A95E",
"N 	c #7B8388",
"O 	c #221834",
"P 	c #3B0A5B",
"Q 	c #7804F4",
"R 	c #850BFF",
"S 	c #6B08F4",
"T 	c #7508FC",
"U 	c #C325FF",
"V 	c #FA72FF",
"W 	c #FFA1FF",
"X 	c #EE58FF",
"Y 	c #D536EF",
"Z 	c #D443E3",
"` 	c #5A2A5B",
" .	c #2A1933",
"..	c #3E738C",
"+.	c #2F7782",
"@.	c #301058",
"#.	c #6600E1",
"$.	c #C025FF",
"%.	c #A735BA",
"&.	c #0A0C09",
"*.	c #7F746B",
"=.	c #5B2F70",
"-.	c #571546",
";.	c #46214F",
">.	c #305E67",
",.	c #33175E",
"'.	c #7400E6",
").	c #7903FD",
"!.	c #7500FF",
"~.	c #6500FC",
"{.	c #5A00F7",
"].	c #8700FA",
"^.	c #C01EFC",
"/.	c #EE64F8",
"(.	c #FF97F8",
"_.	c #E150F2",
":.	c #F06FFE",
"<.	c #FF98FF",
"[.	c #FF88FE",
"}.	c #D953E7",
"|.	c #4D194D",
"1.	c #3E114E",
"2.	c #6300E7",
"3.	c #A41CFF",
"4.	c #FF50FF",
"5.	c #9E1E9D",
"6.	c #0E2A26",
"7.	c #37312B",
"8.	c #6B0059",
"9.	c #DE32FF",
"0.	c #E846FA",
"a.	c #6E2671",
"b.	c #7502E9",
"c.	c #7E00FF",
"d.	c #7500FA",
"e.	c #7E3BDB",
"f.	c #9951F0",
"g.	c #9A50EE",
"h.	c #995DF0",
"i.	c #6E16F3",
"j.	c #7600F6",
"k.	c #D333F5",
"l.	c #E943F6",
"m.	c #F57EF5",
"n.	c #FA97F5",
"o.	c #F990FA",
"p.	c #FD88FB",
"q.	c #E542FD",
"r.	c #D22EFF",
"s.	c #A521FC",
"t.	c #E245F9",
"u.	c #DF3BE7",
"v.	c #6C257E",
"w.	c #44606E",
"x.	c #1C3537",
"y.	c #40118A",
"z.	c #B325EF",
"A.	c #CB1CFF",
"B.	c #6321CA",
"C.	c #8053C6",
"D.	c #C4DED1",
"E.	c #EEFFE6",
"F.	c #E9FAE6",
"G.	c #F9FFE4",
"H.	c #BFB1E8",
"I.	c #845DED",
"J.	c #9B21F3",
"K.	c #9C00F8",
"L.	c #DD51F5",
"M.	c #FF9BF6",
"N.	c #FA9BF4",
"O.	c #F28CF6",
"P.	c #E55EFA",
"Q.	c #DD3EFB",
"R.	c #DF41F9",
"S.	c #FA4EFF",
"T.	c #AA1EB0",
"U.	c #102524",
"V.	c #70B9EC",
"W.	c #17301A",
"X.	c #5200B3",
"Y.	c #6D27DA",
"Z.	c #633CB6",
"`.	c #7F9D98",
" +	c #C7E2D2",
".+	c #E8EDF1",
"++	c #DEE2EA",
"@+	c #DEE3EA",
"#+	c #DDE0E5",
"$+	c #E5F1EB",
"%+	c #FFFFE6",
"&+	c #BDA6E5",
"*+	c #8D65EB",
"=+	c #9B2EF2",
"-+	c #DB46FB",
";+	c #F06EF5",
">+	c #F792F3",
",+	c #FB9CF2",
"'+	c #DA46F9",
")+	c #DC3EF9",
"!+	c #D037DE",
"~+	c #672875",
"{+	c #42697C",
"]+	c #E2B265",
"^+	c #425E78",
"/+	c #421184",
"(+	c #7200F0",
"_+	c #637390",
":+	c #719B86",
"<+	c #A3ADBF",
"[+	c #E6EDF7",
"}+	c #E0E5EC",
"|+	c #DDE2ED",
"1+	c #DDE3EC",
"2+	c #DDE4E9",
"3+	c #DBDFEB",
"4+	c #E7FAE5",
"5+	c #FFFFE9",
"6+	c #7F38EC",
"7+	c #AB00F9",
"8+	c #E73EF9",
"9+	c #E15CF9",
"0+	c #E663F6",
"a+	c #DB42F3",
"b+	c #F045FF",
"c+	c #A021AA",
"d+	c #0B3025",
"e+	c #CE9F55",
"f+	c #1B1F19",
"g+	c #6600C1",
"h+	c #7B42E1",
"i+	c #788FA5",
"j+	c #A1ADC3",
"k+	c #CED1DA",
"l+	c #E0E4EC",
"m+	c #E3E7EE",
"n+	c #E4EAEA",
"o+	c #E1E6EB",
"p+	c #DCE2E9",
"q+	c #DFE3EA",
"r+	c #DDE1E9",
"s+	c #DDE4EC",
"t+	c #DFF0E8",
"u+	c #BFB4E8",
"v+	c #9B28F6",
"w+	c #C428F8",
"x+	c #D53CFB",
"y+	c #D633FB",
"z+	c #DA3BFA",
"A+	c #EF45FF",
"B+	c #A225B1",
"C+	c #183030",
"D+	c #D8A85D",
"E+	c #3C566E",
"F+	c #470B8C",
"G+	c #7800EC",
"H+	c #676F9E",
"I+	c #8BA6B0",
"J+	c #A7AFC3",
"K+	c #EDF2FF",
"L+	c #EDEFF8",
"M+	c #EAECF2",
"N+	c #EAEDF5",
"O+	c #E9EDF4",
"P+	c #E4E9ED",
"Q+	c #DCE3E7",
"R+	c #E1E1E9",
"S+	c #DCE4EB",
"T+	c #DAE4E7",
"U+	c #F4FFE7",
"V+	c #823EF1",
"W+	c #AD11F9",
"X+	c #E747F7",
"Y+	c #D83EF4",
"Z+	c #D040FA",
"`+	c #DF3FFA",
" @	c #DD3AEA",
".@	c #7B2786",
"+@	c #375462",
"@@	c #152C20",
"#@	c #5D00BE",
"$@	c #7C4CD7",
"%@	c #8596A3",
"&@	c #97A7B9",
"*@	c #99A5C0",
"=@	c #787C99",
"-@	c #414357",
";@	c #454152",
">@	c #2E2E40",
",@	c #7A7D91",
"'@	c #F3F8FD",
")@	c #DDE3E7",
"!@	c #E1E3EB",
"~@	c #DBE5E7",
"{@	c #DCE3E5",
"]@	c #DFE7E9",
"^@	c #CDC7E6",
"/@	c #D250F0",
"(@	c #D82DF6",
"_@	c #D941FD",
":@	c #F27CF4",
"<@	c #EA73F6",
"[@	c #F34BFF",
"}@	c #AC1DB2",
"|@	c #192B2F",
"1@	c #8F704D",
"2@	c #170113",
"3@	c #6805CA",
"4@	c #7065B4",
"5@	c #92ADAA",
"6@	c #9DA8C4",
"7@	c #66738E",
"8@	c #13152B",
"9@	c #000016",
"0@	c #060317",
"a@	c #000011",
"b@	c #828491",
"c@	c #FAFCFC",
"d@	c #DDE4E8",
"e@	c #DEE2EC",
"f@	c #DFE0EE",
"g@	c #DDE6E5",
"h@	c #E1FBE6",
"i@	c #D663F5",
"j@	c #D82CF4",
"k@	c #F07FF7",
"l@	c #F996F3",
"m@	c #F997F6",
"n@	c #FC7DFF",
"o@	c #981FA3",
"p@	c #052928",
"q@	c #ACA5A7",
"r@	c #4B4C42",
"s@	c #450281",
"t@	c #7A06F3",
"u@	c #6D5DA5",
"v@	c #91A6AA",
"w@	c #9EAAC4",
"x@	c #565E82",
"y@	c #0C091C",
"z@	c #19152B",
"A@	c #1C1B32",
"B@	c #211F36",
"C@	c #000000",
"D@	c #525264",
"E@	c #FFFFFF",
"F@	c #DCE4E5",
"G@	c #DEE4E9",
"H@	c #DDE8EA",
"I@	c #E2E8E8",
"J@	c #DB5AF4",
"K@	c #D72FFA",
"L@	c #F47FF0",
"M@	c #F798F2",
"N@	c #F996F4",
"O@	c #FD7FFF",
"P@	c #AF2EC6",
"Q@	c #270D23",
"R@	c #3C5167",
"S@	c #4E6690",
"T@	c #29081D",
"U@	c #5B5A5D",
"V@	c #2E344D",
"W@	c #5E01B3",
"X@	c #7266B1",
"Y@	c #92B1AF",
"Z@	c #9FA9C3",
"`@	c #6B7692",
" #	c #1D223A",
".#	c #050116",
"+#	c #000012",
"@#	c #00000C",
"##	c #020216",
"$#	c #8A8C9B",
"%#	c #F7FAFB",
"&#	c #E0E3E9",
"*#	c #DBE4E7",
"=#	c #DBE5E6",
"-#	c #E1E3ED",
";#	c #DDF9E5",
">#	c #DA64F3",
",#	c #D427FC",
"'#	c #DC44F8",
")#	c #EB7FF9",
"!#	c #EC72F6",
"~#	c #DA42F5",
"{#	c #EB48FF",
"]#	c #F941FF",
"^#	c #9625BD",
"/#	c #7D1E80",
"(#	c #691161",
"_#	c #1B2A26",
":#	c #5E00BF",
"<#	c #7D46DA",
"[#	c #8192A1",
"}#	c #94A6C0",
"|#	c #97A7C1",
"1#	c #6A7791",
"2#	c #3F3E58",
"3#	c #524E60",
"4#	c #3C3B4A",
"5#	c #868A9B",
"6#	c #F6FBFF",
"7#	c #DCE1E7",
"8#	c #DEE5E7",
"9#	c #DEE3E9",
"0#	c #DDE6E8",
"a#	c #DEC3F3",
"b#	c #D747F4",
"c#	c #D831F7",
"d#	c #D33FF9",
"e#	c #D33EFD",
"f#	c #DE3FF9",
"g#	c #E542FF",
"h#	c #C735FC",
"i#	c #7D0FA4",
"j#	c #7C00A3",
"k#	c #6A1C69",
"l#	c #56696F",
"m#	c #4D606F",
"n#	c #450B83",
"o#	c #6E01EF",
"p#	c #676C9C",
"q#	c #93AEAD",
"r#	c #9DA4C0",
"s#	c #919DBD",
"t#	c #B3BAD3",
"u#	c #F6FAFF",
"v#	c #F5F8FF",
"w#	c #EAF0F8",
"x#	c #DFE5EA",
"y#	c #DCE5E7",
"z#	c #E1E0ED",
"A#	c #DDE2E8",
"B#	c #DCFFE4",
"C#	c #D361EE",
"D#	c #DA39F8",
"E#	c #D542FB",
"F#	c #D53CFF",
"G#	c #DF3FF7",
"H#	c #DF41FB",
"I#	c #A020E6",
"J#	c #3E1184",
"K#	c #1C3F3C",
"L#	c #1C2D2F",
"M#	c #DFB067",
"N#	c #1A2016",
"O#	c #6200BC",
"P#	c #7B3CE9",
"Q#	c #7E8CA3",
"R#	c #9CABBA",
"S#	c #8C97B7",
"T#	c #A8B1CA",
"U#	c #EDF3F7",
"V#	c #E4E6E9",
"W#	c #E0E4EB",
"X#	c #DFE2EA",
"Y#	c #DCEAEA",
"Z#	c #D9B6EC",
"`#	c #E86AF1",
" $	c #F887F4",
".$	c #ED77F7",
"+$	c #D341F5",
"@$	c #E73FF8",
"#$	c #E33CFF",
"$$	c #5300B8",
"%$	c #0E2313",
"&$	c #DCB175",
"*$	c #C4944C",
"=$	c #637186",
"-$	c #461073",
";$	c #7100EE",
">$	c #586498",
",$	c #6D9D92",
"'$	c #97A4B7",
")$	c #97A1BD",
"!$	c #C4CEDB",
"~$	c #EEF3F9",
"{$	c #E4E6F2",
"]$	c #DCDFE9",
"^$	c #DBE1E7",
"/$	c #E0E0EB",
"($	c #DDF4E7",
"_$	c #E1FFE8",
":$	c #D560F3",
"<$	c #E140F6",
"[$	c #F999F5",
"}$	c #F077F3",
"|$	c #E54CF7",
"1$	c #E942FC",
"2$	c #991ADF",
"3$	c #3D146C",
"4$	c #4D6A83",
"5$	c #BF8F48",
"6$	c #1A1D23",
"7$	c #6700C5",
"8$	c #BD50EA",
"9$	c #AB5AC0",
"0$	c #74919B",
"a$	c #87A8AF",
"b$	c #97A1BE",
"c$	c #ADB6C8",
"d$	c #C4CCD6",
"e$	c #E8EDF7",
"f$	c #E2F0ED",
"g$	c #DFFFE9",
"h$	c #DCB3EE",
"i$	c #DF76F2",
"j$	c #DE54F4",
"k$	c #D031F5",
"l$	c #E65DF8",
"m$	c #DC45F9",
"n$	c #A71FF6",
"o$	c #9619FF",
"p$	c #5400C5",
"q$	c #172620",
"r$	c #C99951",
"s$	c #447594",
"t$	c #361955",
"u$	c #960CE7",
"v$	c #B119FF",
"w$	c #C048DA",
"x$	c #B768D0",
"y$	c #758F9C",
"z$	c #7E9DA5",
"A$	c #95AAB0",
"B$	c #A5CCC6",
"C$	c #C19DD6",
"D$	c #E373F1",
"E$	c #DB47FB",
"F$	c #DD1DF7",
"G$	c #DF3AF8",
"H$	c #E545F9",
"I$	c #A718F3",
"J$	c #8111F4",
"K$	c #7904F8",
"L$	c #9717DA",
"M$	c #38195D",
"N$	c #497595",
"O$	c #BC8C44",
"P$	c #BD8D45",
"Q$	c #67A0C9",
"R$	c #1F2719",
"S$	c #5700CA",
"T$	c #7605FF",
"U$	c #A108FF",
"V$	c #A415FD",
"W$	c #BE50D6",
"X$	c #CC5CE8",
"Y$	c #C654E4",
"Z$	c #BA53DC",
"`$	c #CB3DEB",
" %	c #E826FA",
".%	c #AB1DF8",
"+%	c #8114F6",
"@%	c #8E1AFA",
"#%	c #8D19F4",
"$%	c #7204FD",
"%%	c #A925F6",
"&%	c #DD3FFF",
"*%	c #CA35CC",
"=%	c #1B2F21",
"-%	c #67A0D0",
";%	c #D4A45A",
">%	c #D7A85D",
",%	c #32384D",
"'%	c #5809A8",
")%	c #8109F7",
"!%	c #7C08FF",
"~%	c #5C00DD",
"{%	c #6F00E8",
"]%	c #9E0BFF",
"^%	c #9708FF",
"/%	c #9108FF",
"(%	c #9405FF",
"_%	c #8E0EFE",
":%	c #8819F2",
"<%	c #780BF5",
"[%	c #6804F9",
"}%	c #7207FF",
"|%	c #7105FF",
"1%	c #6A00E7",
"2%	c #9517FB",
"3%	c #E543FF",
"4%	c #E846FB",
"5%	c #9E2D9F",
"6%	c #26383F",
"7%	c #D8A85E",
"8%	c #23171B",
"9%	c #6E00E8",
"0%	c #8A07FF",
"a%	c #660FCB",
"b%	c #272037",
"c%	c #301953",
"d%	c #5E00CF",
"e%	c #6B00E7",
"f%	c #7A06FF",
"g%	c #7604FF",
"h%	c #7506FF",
"i%	c #7505FF",
"j%	c #7D05FF",
"k%	c #830CFF",
"l%	c #7004E4",
"m%	c #6500CF",
"n%	c #381753",
"o%	c #5000A7",
"p%	c #6F00D8",
"q%	c #A717FF",
"r%	c #BF29DC",
"s%	c #2F2538",
"t%	c #BB8B43",
"u%	c #363C4A",
"v%	c #5D00AB",
"w%	c #7E00F0",
"x%	c #222030",
"y%	c #5CA0B7",
"z%	c #507EA0",
"A%	c #1E252C",
"B%	c #38145D",
"C%	c #6400C1",
"D%	c #6000BE",
"E%	c #6000BB",
"F%	c #6100BE",
"G%	c #6100C3",
"H%	c #331659",
"I%	c #1E2A28",
"J%	c #4F7B9C",
"K%	c #2F444E",
"L%	c #1B122F",
"M%	c #5200BE",
"N%	c #A814FF",
"O%	c #A82AB4",
"P%	c #24353D",
"Q%	c #CA9A52",
"R%	c #2F3C57",
"S%	c #4D0088",
"T%	c #411671",
"U%	c #4F7BA6",
"V%	c #DCAD65",
"W%	c #9A8D83",
"X%	c #232531",
"Y%	c #27313A",
"Z%	c #28313B",
"`%	c #27303A",
" &	c #222737",
".&	c #BD9E78",
"+&	c #D5A55C",
"@&	c #DFAF64",
"#&	c #A1A199",
"$&	c #283757",
"%&	c #7614C7",
"&&	c #C226D3",
"*&	c #211E23",
"=&	c #D3A45A",
"-&	c #3B3D61",
";&	c #42006F",
">&	c #190C23",
",&	c #C89950",
"'&	c #476C89",
")&	c #7B237B",
"!&	c #7F147B",
"~&	c #A58964",
"{&	c #C7974E",
"]&	c #BD8C46",
"^&	c #64594D",
"/&	c #BC8B45",
"(&	c #C5954D",
"_&	c #260015",
":&	c #740A6D",
"<&	c #395C67",
"                                                                ",
"  . + + @ # $ % & + % $ + % + + + % + * % & + + % & * % + + =   ",
"    - ;   - >   , -   ' ) ! - - - . - -   ~ - , . { ] ^ / - (   ",
"    _   : - @ < - - [ } | 1 2 - - . - - . 3 - 4 . 5 6 7 8 9 (   ",
"      0 - - . a - b c d e f g h i j k l . - - m . n o p q r (   ",
"    , - - s . - - t u v w x y z A B C D E - - F G H I J K L (   ",
"    - - 3 . M N O P Q R S T U V W X Y Z `  ...+.@.#.$.%.&.*.(   ",
"    - =.-.;.>.,.'.).!.~.{.].^./.(._.:.<.[.}.|.1.2.3.4.5.6.- (   ",
"    7.8.9.0.a.b.c.d.e.f.g.h.i.j.k.l.m.n.o.p.q.r.s.t.u.v.w.- (   ",
"  . { x.y.z.A.c.B.C.D.E.F.G.H.I.J.K.L.M.N.O.P.Q.R.S.T.U.- - (   ",
"      V.W.X.Y.Z.`. +.+++@+#+$+%+&+*+=+-+;+>+,+'+)+!+~+{+- - (   ",
"  . ]+^+/+(+_+:+<+[+}+@+|+1+2+3+4+5+6+7+8+9+0+a+b+c+d+e+- - (   ",
"    3 f+g+h+i+j+k+l+m+n+o+p+q+r+s+t+u+v+w+x+y+z+A+B+C+D+- - (   ",
"  . E+F+G+H+I+J+K+L+M+N+O+P+Q+R+S+T+U+V+W+X+Y+Z+`+ @.@+@- - (   ",
"  . @@#@$@%@&@*@=@-@;@>@,@'@)@!@~@{@]@^@/@(@_@:@<@[@}@|@- - (   ",
"  1@2@3@4@5@6@7@8@9@0@a@a@b@c@d@e@f@g@h@i@j@k@l@m@n@o@p@q@- (   ",
"  r@s@t@u@v@w@x@y@z@A@B@C@D@E@F@q+G@H@I@J@K@L@M@N@O@P@Q@R@S@T@U@",
"  . V@W@X@Y@Z@`@ #.#+#@###$#%#&#*#=#-#;#>#,#'#)#!#~#{#]#^#/#(#  ",
"    _#:#<#[#}#|#1#2#3#4#5#6#7#8#9#G@0#a#b#c#d#e#f#g#h#i#j#k#l#  ",
"    m#n#o#p#q#r#s#t#u#v#w#x#q+y#z#A#B#C#D#E#F#G#H#I#J#K#L#M#@   ",
"    - N#O#P#Q#R#S#T#U#V#W#9#A#p+X#Y#Z#`# $.$+$@$#$$$%$&$- *$%   ",
"  . - =$-$;$>$,$'$)$!$~${$]$^$/$($_$:$<$[$}$|$1$2$3$4$- a . 5$  ",
"    . *$6$7$8$9$0$a$b$c$d$e$f$g$h$i$j$k$l$m$n$o$p$q$- - . r$(   ",
"  . , % s$t$u$v$w$x$y$z$A$B$C$D$E$F$G$H$I$J$K$L$M$N$- O$P$- (   ",
"    - l Q$R$S$T$U$V$W$X$Y$Z$`$ %.%+%@%#%$%%%&%*%=%-%;%  >%- (   ",
"  . - - ,%'%)%!%~%{%]%^%/%(%_%:%<%[%}%|%1%2%3%4%5%6%  7%- - (   ",
"    *$- 8%9%0%a%b%c%d%e%f%g%h%i%j%k%l%m%n%o%p%q%r%s%b - - - (   ",
"    t%  u%v%w%x%y%z%A%B%C%D%E%F%O#G%H%I%J%K%L%M%N%O%P%- - - (   ",
"  . - Q%. R%S%T%U%V%. W%X%Y%Z%Z%`% &.&;%+&@&#&$&%&&&*&- - - (   ",
"    - - =&. -&;&>&- s   - - = ,&- - - - - - - '&)&!&~&- - - (   ",
"  . {&{&{&]&O$^&{&{&{&/&(&{&( O$(&{&{&{&{&{&{&_&:&<&{&{&{&{&%   ",
"                                                                "};
