/* XPM */
static char * exit32_xpm[] = {
"32 32 32 1",
" 	c #70492A",
".	c #3E1D0E",
"+	c #A07147",
"@	c #C98959",
"#	c #8B5D39",
"$	c #482310",
"%	c #60371B",
"&	c #8D5D37",
"*	c #72492B",
"=	c #8B8E93",
"-	c #C3C3CB",
";	c #C0C0C8",
">	c #5B6161",
",	c #FFFFFF",
"'	c #A9ACB3",
")	c #D5D6DB",
"!	c #8A8F93",
"~	c #8C8F94",
"{	c #000000",
"]	c #F7BE15",
"^	c #2E312A",
"/	c #F8BE15",
"(	c #212622",
"_	c #2B2B21",
":	c #967250",
"<	c #D5AD4B",
"[	c #71482A",
"}	c #636768",
"|	c #787C7F",
"1	c #5D6162",
"2	c #5E6464",
"3	c #3E1C10",
"  .++@+#$++++$++++%++@+  ++@+$++",
"  .++@+&$++++$++++%++@+  ++@+$++",
"  .++@+#$++++$++++%++@+* ++@+$++",
"  .++@+#$++++$++++%++@+* ++@+$++",
"================================",
"==-;===>,====,====')====,====-!=",
"===================~=========~==",
"{{{{{{{{{{{{{{{{{{{{{{{{{{{{{{{{",
"  .++@+#$++++$++++%++@+* ++@+$++",
"  .++@+#$++++$++++%++@+* ++@+$++",
"  .++@+#$++++$++++%++@+  ++@+$++",
"  .++@+#$++++$++++%++@+  ++@]]^+",
"  .++@+#$++++$++++%++@+  ++@]]/+",
"  .++@+#$++++$++++%++@+  ++(]]](",
"  .++@+#$++++$++++%++@+  ++]+_:<",
"  .++@+#$++++$++++%++@+  ++{{{{{",
"  .++@+#$++++$++++%++@+* ++@{{++",
"  .++@+#$++++$++++%++@+* ++@+$++",
"  .++@+#$++++$++++%++@+* ++@+$++",
"  .++@+#$++++$++++%++@+* ++@+$++",
"  .++@+#$++++$++++%++@+* ++@+$++",
"  .++@+#$++++$++++%++@+* ++@+$++",
"  .++@+#$++++$++++%++@+* ++@+$++",
"  .++@+#$++++$++++%++@+[ ++@+$++",
"{{{{{{{{{{{{{{{{{{{{{{{{{{{{{{{{",
"================================",
"==}|==============1====2=====1==",
"================================",
"  .++@+#$++++$++++%++@+  ++@+$++",
"  .++@+#$++++$++++%++@+* ++@+$++",
"  3++@+&$++++$++++%++@+* ++@+$++",
"  .++@+#$++++$++++%++@+* ++@+$++"};
