/* XPM */
static char * muro32_xpm[] = {
"32 32 74 1",
" 	c #57300F",
".	c #56300E",
"+	c #5A320E",
"@	c #56300C",
"#	c #5A330E",
"$	c #5B330F",
"%	c #59320E",
"&	c #57300E",
"*	c #62370F",
"=	c #6E3F11",
"-	c #774512",
";	c #59310E",
">	c #5C340F",
",	c #56300D",
"'	c #714111",
")	c #5F350F",
"!	c #653910",
"~	c #58310E",
"{	c #663A10",
"]	c #704112",
"^	c #704111",
"/	c #663A0F",
"(	c #5C340E",
"_	c #56310E",
":	c #63380F",
"<	c #744312",
"[	c #60360F",
"}	c #704011",
"|	c #673B10",
"1	c #5D340F",
"2	c #5B340E",
"3	c #62380F",
"4	c #6F3F11",
"5	c #5D350F",
"6	c #63390F",
"7	c #6D3F11",
"8	c #764512",
"9	c #754412",
"0	c #5F360F",
"a	c #57310E",
"b	c #5D340E",
"c	c #6A3D10",
"d	c #734311",
"e	c #5E350F",
"f	c #5B330E",
"g	c #774513",
"h	c #59320F",
"i	c #683C11",
"j	c #764412",
"k	c #5A320F",
"l	c #734212",
"m	c #683B11",
"n	c #724211",
"o	c #61370F",
"p	c #58310F",
"q	c #643910",
"r	c #714211",
"s	c #734211",
"t	c #6F4011",
"u	c #6C3E11",
"v	c #633810",
"w	c #59310F",
"x	c #5A330F",
"y	c #724212",
"z	c #6B3D11",
"A	c #5D350E",
"B	c #6B3D10",
"C	c #653A10",
"D	c #693C10",
"E	c #724111",
"F	c #714112",
"G	c #55300D",
"H	c #5C330F",
"I	c #58310D",
"                                ",
" .+@#$$$$$$$$$$$$$$$$$$%..$$$$& ",
" .*@ =------------------;.----> ",
" ,-', )-----------------!&----> ",
" ,---~ .{---------------].{---> ",
" ,----{. %--------^/(&_.& .:--> ",
" ,-----<[ .}|1....     234<.*-> ",
" ,-------^  &  56..78------9.0> ",
" ,--------a bcd--.&---------0.# ",
" ,-------{ $-----a.----------3  ",
" ,------},a------e&-----------f ",
" ,-----e..g------|&<----------> ",
"  h---i. j-------}.^----------> ",
"   b-'.kl--------j.em7n8------> ",
" ,7,o.&g---------- &.,,.,.. .pa ",
" ,-q& -----------e.r--stu|v1w.. ",
" ,-j. -----------. ---------j<x ",
" ,--y.~--------<k <-----------> ",
" ,---z #<------..6------------> ",
" ,----o&.9----$  -------------> ",
" ,-----x&.---z&Aj-----n-------> ",
" ,------7 .Bj,.------c.&%<----> ",
" ,-----5 .e. &<-----C.D>. an--> ",
" ,---C&.o--9a&k----[.=---}&..t( ",
" ,--D. t----'&.e^-<.%-----E& .% ",
" ,F.G!--------C  ~&>--------9f  ",
" &,H-----------o, o-----------> ",
" &<------------[& ------------> ",
" ,-------------b.p------------> ",
" ,-------------(.k------------> ",
" .oooooooooooooI.woooooooooooo~ ",
"                                "};
