/* XPM */
static char * pavimento32_xpm[] = {
"32 32 98 2",
"  	c #BA8A42",
". 	c #BB8B44",
"+ 	c #C09048",
"@ 	c #BC8C45",
"# 	c #C08F48",
"$ 	c #BE8E47",
"% 	c #BF8F47",
"& 	c #BE8E46",
"* 	c #BD8C45",
"= 	c #BA8A43",
"- 	c #C19149",
"; 	c #E2B266",
"> 	c #BA8943",
", 	c #D2A259",
"' 	c #DCAC61",
") 	c #D9AA5F",
"! 	c #E0B064",
"~ 	c #D7A85D",
"{ 	c #D0A057",
"] 	c #CE9E55",
"^ 	c #D6A65B",
"/ 	c #D6A65C",
"( 	c #E1B165",
"_ 	c #BA8A44",
": 	c #D7A75D",
"< 	c #DFAF64",
"[ 	c #C89850",
"} 	c #DBAB60",
"| 	c #D3A35A",
"1 	c #D1A158",
"2 	c #DEAE63",
"3 	c #BB8B43",
"4 	c #DFAF63",
"5 	c #D6A75D",
"6 	c #CC9C53",
"7 	c #D4A45B",
"8 	c #C5954D",
"9 	c #BC8C44",
"0 	c #CB9B53",
"a 	c #E1B166",
"b 	c #C7974F",
"c 	c #BD8D45",
"d 	c #C99951",
"e 	c #D8A85E",
"f 	c #D9A95E",
"g 	c #C5964D",
"h 	c #C5954C",
"i 	c #CA9A52",
"j 	c #C8984F",
"k 	c #D1A157",
"l 	c #C4944D",
"m 	c #BB8A44",
"n 	c #D6A75C",
"o 	c #DAAA5F",
"p 	c #D5A55B",
"q 	c #CC9C54",
"r 	c #D3A45A",
"s 	c #CF9F57",
"t 	c #C89950",
"u 	c #DEAF63",
"v 	c #C09049",
"w 	c #CE9F55",
"x 	c #CA9B52",
"y 	c #DBAC61",
"z 	c #D1A258",
"A 	c #C99950",
"B 	c #DDAD62",
"C 	c #E2B265",
"D 	c #D8A85D",
"E 	c #C3934C",
"F 	c #E0B165",
"G 	c #CFA056",
"H 	c #CA9A51",
"I 	c #C3934B",
"J 	c #CB9B52",
"K 	c #D7A75C",
"L 	c #C4944C",
"M 	c #D4A45A",
"N 	c #BB8A43",
"O 	c #DEAE62",
"P 	c #E0B065",
"Q 	c #BC8B44",
"R 	c #D2A258",
"S 	c #C6964E",
"T 	c #C1914A",
"U 	c #CF9F56",
"V 	c #BF8F48",
"W 	c #DDAD63",
"X 	c #DAAA60",
"Y 	c #C6964F",
"Z 	c #DDAE62",
"` 	c #C4954D",
" .	c #C6964D",
"..	c #D9A95F",
"+.	c #D5A55C",
"@.	c #C7974E",
"#.	c #BC8B45",
"$.	c #BD8C46",
"                                                                ",
"  . + + @ # $ @ + + $ @ # + @ + + + @ + % @ + $ @ % & * + + =   ",
"  - ; ; > ; , = ' ; )   ; ; = ; ; ; = ! ~   ; '   { ;   ] ;     ",
"  - ; ; > ; ^ = / ; ( = ; ; = ; ; ; _ : < = ; ; [ * ; }   |     ",
"  - ; ; > ; } = 1 ; ; = 2 ; = ; ; ; 3 ] ;   ! ; 4 = ; ; 5       ",
"  - ; ; = ; ! = 6 ; ; = 7 ; 3 2 ; ; + 8 ; 9 [ ; ; = 0 ; ; '     ",
"  - ; ; = a ( = b ; ; c d ; & e ; ; [ $ ; : = ; ; f = ( ; ;     ",
"  - ; ; = ( ; = - ; ; g % ; h , ; ; ]   ; ;   0 ; ; & . ; ;     ",
"  - ; ; = < ;   & ; ; i 9 ; j { ; ; k = ; ; l m e ; n = } ;     ",
"  - ; ; % o ; = 3 ; ; ,   ; 6 6 ; ; p = ; ; ; = = ( ; q   , =   ",
"  - ; ; g r ; =   ; ; ~   ; s t ; ; ~   ; ; ; u v = ( ; p       ",
"  - ; ; w x ; @   ; ; y   ; z A ; ; o = ; ; ; ; ; % = B ; C =   ",
"  - ; ; D + ; b   ( ; B = ; z A ; ; o = ; ; ; ; ; ; t = E (     ",
"  - ; ; F   ; / = D ; '   ; G H ; ; o = ; ; ; ; ; ; ; 4 9 = =   ",
"  - ; ; ; = ; ; v I ; D   ; J ] ; ; D = ; ; ; ; ; ; ; ; ; ( =   ",
"  - ; ; ; = ( ; K   ; [ & ; L | ; ; M = ; ; ; ; ; ; ; ; ; ;     ",
"  - ; ; ; N O ; P   < Q t ; % : ; ; R N ; ; ; ; ; ; ; ; ; ;     ",
"  - ; ; ; i ] ; ; S     ; ; N ! ; ; x - ; ; ; ; ; ; ; ; ; z =   ",
"  + ; ; ; O 9 ; ; ; ( ; ; ; = ; ; ; + J ; ; ; ; ; ; ( T         ",
"  * ; ; ; ; = ; ; ; ; ; ; 2 N ; ; ; = : ; ; ; ; ; I = $ 2 ;     ",
"  @ L ; ; ; d ] ; ; ; ; ; T U ; ; ; _ ( ; ; ; + = 3 4 ; ; ;     ",
"  V = 4 ; ; ; = L ; ; ; 2 = ; ; ; B = ; ; ! _ 3 U ; ; ; ; ; =   ",
"  - d = ; ; ; 5 . + u : = / ; ; ; E % ; W = E ; ; ; ; ( L =     ",
"  - ; c 9 ; ; ; ; 8 = @ ' ; ; ; ; = X 4   d ; ; ; ; Y = @ ' =   ",
"  - ; ~   M ; ; ; ( e < ; ; ; ; Z = ( ` = ( ; ; ; ] = @ 2 ;     ",
"  - ; ; e   v ; ; ; ; ; ; ; ; , =  .M = < ; ; z . = ..; ; ; =   ",
"  - ; ; ; ! . = Q ' ; ; ; ; 0   3 a = r ; ; b = $ ; ; ; ; L     ",
"  - ; ; ; ; ; D 8 = = m N     f ; v 9 ; ; d = 4 ; ; ; 2   3     ",
"  - ; ; ; ; ; ; ; ; < +.M 2 ; ; ( = 4 ; o = B ; ; ; f = i ; =   ",
"  - ; ; ; ; ; ; ; ; ; ; ; ; ; ; t . ; ;   0 ; ; ; 2 = r ; ;     ",
"  @ @.@.@.@.@.@.@.@.@.@.@.@.@.8 9 - @.8 #.@.@.@.b 9 $.@.@.@.=   ",
"                                                                "};
