/* XPM */
static char * pdes_xpm[] = {
"32 32 801 2",
"  	c #BA8A42",
". 	c #BA8A43",
"+ 	c #B6894E",
"@ 	c #B8894A",
"# 	c #B88A48",
"$ 	c #B98A45",
"% 	c #A58774",
"& 	c #73084E",
"* 	c #820354",
"= 	c #73174A",
"- 	c #6E0540",
"; 	c #830956",
"> 	c #79074D",
", 	c #800C49",
"' 	c #7C0B4B",
") 	c #A8866B",
"! 	c #AD8A5F",
"~ 	c #9D7F95",
"{ 	c #770B47",
"] 	c #7F084C",
"^ 	c #B08865",
"/ 	c #B28958",
"( 	c #B28959",
"_ 	c #B68A4C",
": 	c #C09048",
"< 	c #BD8C45",
"[ 	c #BE8E47",
"} 	c #BA8E56",
"| 	c #B78B57",
"1 	c #B08D70",
"2 	c #83054E",
"3 	c #E73737",
"4 	c #EE3B12",
"5 	c #DF4124",
"6 	c #F14634",
"7 	c #E93A1F",
"8 	c #E33E1E",
"9 	c #E63C1B",
"0 	c #E33F24",
"a 	c #76064E",
"b 	c #860E56",
"c 	c #750D4C",
"d 	c #E33826",
"e 	c #7E0F44",
"f 	c #A98769",
"g 	c #BB8D50",
"h 	c #BB8D59",
"i 	c #B98B50",
"j 	c #BE8F4F",
"k 	c #C09049",
"l 	c #BB8B44",
"m 	c #E2B266",
"n 	c #CE9E55",
"o 	c #BA8A44",
"p 	c #D9AC6C",
"q 	c #CF9F59",
"r 	c #D1A66B",
"s 	c #750C47",
"t 	c #D2441C",
"u 	c #F6422B",
"v 	c #E63418",
"w 	c #E03E18",
"x 	c #EB3B23",
"y 	c #E63726",
"z 	c #E8462F",
"A 	c #E33920",
"B 	c #E63D28",
"C 	c #E8391E",
"D 	c #A40E3B",
"E 	c #B60D38",
"F 	c #B20B3F",
"G 	c #E33E20",
"H 	c #77144A",
"I 	c #860053",
"J 	c #862D42",
"K 	c #B0886F",
"L 	c #DEB069",
"M 	c #E0B168",
"N 	c #C19149",
"O 	c #B88A49",
"P 	c #B98A47",
"Q 	c #D3A35A",
"R 	c #B5894D",
"S 	c #D7A964",
"T 	c #E0B167",
"U 	c #BB8C4A",
"V 	c #C09563",
"W 	c #750D48",
"X 	c #EB3C1F",
"Y 	c #E8400F",
"Z 	c #EB3327",
"` 	c #ED3D2E",
" .	c #EA4120",
"..	c #EF3921",
"+.	c #EC3C25",
"@.	c #E4401D",
"#.	c #EF4021",
"$.	c #E73622",
"%.	c #F34029",
"&.	c #E53B21",
"*.	c #AC1133",
"=.	c #B20D37",
"-.	c #E24222",
";.	c #E93429",
">.	c #EE3E26",
",.	c #EA3F2B",
"'.	c #71034C",
").	c #D1A571",
"!.	c #BF914E",
"~.	c #AF8863",
"{.	c #D6A75E",
"].	c #DEAF6B",
"^.	c #DDAE6A",
"/.	c #9D828B",
"(.	c #730B46",
"_.	c #EB3C1D",
":.	c #E83D33",
"<.	c #EA3732",
"[.	c #EF4220",
"}.	c #E13D18",
"|.	c #E33B21",
"1.	c #F03C25",
"2.	c #E93A25",
"3.	c #E43A2D",
"4.	c #EB3726",
"5.	c #E93D19",
"6.	c #EE3C1E",
"7.	c #D94129",
"8.	c #EA3325",
"9.	c #B40C47",
"0.	c #E73C28",
"a.	c #E8422A",
"b.	c #E7431D",
"c.	c #F03A36",
"d.	c #781148",
"e.	c #CCA378",
"f.	c #BD9052",
"g.	c #B48955",
"h.	c #DCAC61",
"i.	c #C69D74",
"j.	c #86094D",
"k.	c #7E1152",
"l.	c #740B46",
"m.	c #E93B23",
"n.	c #EA3B20",
"o.	c #E73D26",
"p.	c #EA3B26",
"q.	c #E73B23",
"r.	c #E73D24",
"s.	c #ED4228",
"t.	c #EA3B1C",
"u.	c #E53818",
"v.	c #EE3F20",
"w.	c #F23E1D",
"x.	c #E74226",
"y.	c #EC3918",
"z.	c #E0401E",
"A.	c #EF491F",
"B.	c #EA3C17",
"C.	c #EB3728",
"D.	c #DE3F18",
"E.	c #E43C22",
"F.	c #E83924",
"G.	c #DE390C",
"H.	c #750D4A",
"I.	c #BB8F5A",
"J.	c #B2895B",
"K.	c #B98A44",
"L.	c #E1B167",
"M.	c #780A53",
"N.	c #DF3923",
"O.	c #E8411F",
"P.	c #EB4015",
"Q.	c #ED3A1C",
"R.	c #E84026",
"S.	c #EC3821",
"T.	c #DF3C29",
"U.	c #E83F2C",
"V.	c #EB411E",
"W.	c #DE3715",
"X.	c #E03D2A",
"Y.	c #E9452A",
"Z.	c #E23918",
"`.	c #E5392B",
" +	c #EC3635",
".+	c #ED3922",
"++	c #F03A2D",
"@+	c #D83E24",
"#+	c #E73921",
"$+	c #E93D25",
"%+	c #E43927",
"&+	c #E94625",
"*+	c #E64626",
"=+	c #790C4D",
"-+	c #C39F7B",
";+	c #D2A876",
">+	c #B88E59",
",+	c #B78A4B",
"'+	c #860852",
")+	c #EA3D1F",
"!+	c #DF440B",
"~+	c #E3393C",
"{+	c #F23B1C",
"]+	c #E43A2B",
"^+	c #E0421F",
"/+	c #E64016",
"(+	c #ED391E",
"_+	c #F4352B",
":+	c #EF3B2C",
"<+	c #E6421F",
"[+	c #E63D20",
"}+	c #E93826",
"|+	c #ED4022",
"1+	c #E93C1C",
"2+	c #A7113E",
"3+	c #E53F17",
"4+	c #E83820",
"5+	c #F3431C",
"6+	c #E53A28",
"7+	c #F03E24",
"8+	c #EA341C",
"9+	c #810050",
"0+	c #B38958",
"a+	c #DFB068",
"b+	c #DDAF6A",
"c+	c #B78E61",
"d+	c #B68953",
"e+	c #DFB069",
"f+	c #810E49",
"g+	c #DF3E22",
"h+	c #E63A24",
"i+	c #EF3E14",
"j+	c #EB4128",
"k+	c #E43A19",
"l+	c #E33E22",
"m+	c #EB4120",
"n+	c #DD3F18",
"o+	c #E83928",
"p+	c #E04020",
"q+	c #ED4520",
"r+	c #E6371C",
"s+	c #E23F1C",
"t+	c #F33623",
"u+	c #B90C3A",
"v+	c #E63E21",
"w+	c #E8372F",
"x+	c #F14515",
"y+	c #E53C1D",
"z+	c #E93735",
"A+	c #F13C21",
"B+	c #A90F31",
"C+	c #7B0B46",
"D+	c #AD876A",
"E+	c #E1B267",
"F+	c #DAAD6E",
"G+	c #B68D62",
"H+	c #B98A43",
"I+	c #B7894F",
"J+	c #CFA05D",
"K+	c #6E0F49",
"L+	c #E6382D",
"M+	c #DF4523",
"N+	c #E9351E",
"O+	c #E53921",
"P+	c #EF3D31",
"Q+	c #EB3E16",
"R+	c #EB342C",
"S+	c #EB411D",
"T+	c #F13A2C",
"U+	c #F23522",
"V+	c #E33B20",
"W+	c #F53A27",
"X+	c #E74129",
"Y+	c #AB1240",
"Z+	c #E83A22",
"`+	c #E13C28",
" @	c #F5402F",
".@	c #D43D10",
"+@	c #EE3930",
"@@	c #E54013",
"#@	c #AC1234",
"$@	c #B10F48",
"%@	c #AD0945",
"&@	c #820B4F",
"*@	c #CEA871",
"=@	c #BA8E5D",
"-@	c #B48A57",
";@	c #75024F",
">@	c #AE1241",
",@	c #EE3A21",
"'@	c #F14227",
")@	c #E4382A",
"!@	c #DA422A",
"~@	c #EE3926",
"{@	c #7E0854",
"]@	c #730B40",
"^@	c #7D0A45",
"/@	c #7A0D4E",
"(@	c #AC0E3E",
"_@	c #AE0A2F",
":@	c #AD0F32",
"<@	c #DD3F24",
"[@	c #DD431D",
"}@	c #E53F27",
"|@	c #F03723",
"1@	c #7F0D4B",
"2@	c #800E4A",
"3@	c #76084D",
"4@	c #B30041",
"5@	c #AE0B44",
"6@	c #A90E47",
"7@	c #AE0D37",
"8@	c #7C0E4D",
"9@	c #CCA679",
"0@	c #BE9051",
"a@	c #B98A48",
"b@	c #B88A4A",
"c@	c #D1A673",
"d@	c #830F4C",
"e@	c #AA0240",
"f@	c #B3152E",
"g@	c #EA3516",
"h@	c #DE4324",
"i@	c #E74020",
"j@	c #86074C",
"k@	c #7D0646",
"l@	c #760B5B",
"m@	c #710C44",
"n@	c #81055B",
"o@	c #820A4A",
"p@	c #B81145",
"q@	c #AE0941",
"r@	c #E93E20",
"s@	c #EF3622",
"t@	c #7B094E",
"u@	c #6E0854",
"v@	c #7B0945",
"w@	c #7C0C5E",
"x@	c #770F4E",
"y@	c #AC103F",
"z@	c #B10C36",
"A@	c #B90B46",
"B@	c #710A41",
"C@	c #D4A872",
"D@	c #B88A4B",
"E@	c #DBAD6C",
"F@	c #A18A78",
"G@	c #880E57",
"H@	c #A8113C",
"I@	c #B60949",
"J@	c #F03838",
"K@	c #DC4226",
"L@	c #EA3C19",
"M@	c #C979AE",
"N@	c #CE77AA",
"O@	c #C3779E",
"P@	c #66104D",
"Q@	c #760749",
"R@	c #790846",
"S@	c #BE0143",
"T@	c #EC402A",
"U@	c #F03B26",
"V@	c #7B0951",
"W@	c #831047",
"X@	c #D376AB",
"Y@	c #CA74A3",
"Z@	c #730B4A",
"`@	c #AE133F",
" #	c #B70B31",
".#	c #CFA576",
"+#	c #BF914F",
"@#	c #B88A4C",
"##	c #B68950",
"$#	c #BA8C48",
"%#	c #B59780",
"&#	c #750243",
"*#	c #FEF4EA",
"=#	c #FFF1D8",
"-#	c #E23821",
";#	c #E5411C",
">#	c #FFF0E6",
",#	c #FEF4DB",
"'#	c #FFE7DF",
")#	c #791656",
"!#	c #7B0B55",
"~#	c #7A074A",
"{#	c #7A1444",
"]#	c #E0381B",
"^#	c #790A4C",
"/#	c #7D0B53",
"(#	c #700B47",
"_#	c #FEECE0",
":#	c #FFF2E5",
"<#	c #77084A",
"[#	c #C10949",
"}#	c #A90537",
"|#	c #CEA678",
"1#	c #C0914C",
"2#	c #B78A4E",
"3#	c #D4A970",
"4#	c #C59887",
"5#	c #830847",
"6#	c #FBF6D8",
"7#	c #D279A9",
"8#	c #FFF1D5",
"9#	c #E44120",
"0#	c #F6EDE4",
"a#	c #FFF5DA",
"b#	c #780540",
"c#	c #740846",
"d#	c #FEFBDC",
"e#	c #FFE8DF",
"f#	c #FFF3E4",
"g#	c #FFF5D5",
"h#	c #6D0D4D",
"i#	c #791052",
"j#	c #FFF5EC",
"k#	c #FFF3D8",
"l#	c #FEFBD8",
"m#	c #780747",
"n#	c #A5173F",
"o#	c #C8A574",
"p#	c #C0914B",
"q#	c #B98A46",
"r#	c #E0B069",
"s#	c #D0A872",
"t#	c #6E1D4D",
"u#	c #FFECDF",
"v#	c #C17FAD",
"w#	c #C374B5",
"x#	c #FFEFE4",
"y#	c #FDF6DA",
"z#	c #FFEEE2",
"A#	c #FFF3E7",
"B#	c #FFF3E8",
"C#	c #FFF0D9",
"D#	c #FFF3DA",
"E#	c #FEF1E0",
"F#	c #FDF6E4",
"G#	c #FFF1E2",
"H#	c #FDF1E5",
"I#	c #FFF0DF",
"J#	c #F7F3DA",
"K#	c #FFF0DE",
"L#	c #6B0E43",
"M#	c #BE064E",
"N#	c #BD9B82",
"O#	c #D6AA6E",
"P#	c #C1A079",
"Q#	c #81284E",
"R#	c #FFF5DC",
"S#	c #FFEAE8",
"T#	c #FFF8DE",
"U#	c #FFF1DA",
"V#	c #FFE8E7",
"W#	c #FFF8E2",
"X#	c #F3F6D9",
"Y#	c #FFE9E5",
"Z#	c #FAFFDC",
"`#	c #FFEDEC",
" $	c #FFF5E1",
".$	c #FEF0E3",
"+$	c #FFF2E9",
"@$	c #FFEFD6",
"#$	c #FFF3E5",
"$$	c #FBF3DE",
"%$	c #750841",
"&$	c #770C50",
"*$	c #AB886A",
"=$	c #D1A259",
"-$	c #CCA575",
";$	c #E2B267",
">$	c #C5A37B",
",$	c #78093C",
"'$	c #7D1747",
")$	c #770054",
"!$	c #7C0A50",
"~$	c #FCF8DD",
"{$	c #FFEDE6",
"]$	c #FAF9DB",
"^$	c #FFF3E2",
"/$	c #C66EA1",
"($	c #CE73B0",
"_$	c #BD7C9E",
":$	c #FFEED6",
"<$	c #FFF5E5",
"[$	c #F9F4E0",
"}$	c #FFEEF0",
"|$	c #F7FBE2",
"1$	c #7E0344",
"2$	c #D0A77F",
"3$	c #CD9D57",
"4$	c #C39761",
"5$	c #D6AC70",
"6$	c #C0914D",
"7$	c #BA9F84",
"8$	c #820D53",
"9$	c #E83425",
"0$	c #F2341A",
"a$	c #E9402D",
"b$	c #DB4419",
"c$	c #880549",
"d$	c #FFF8DC",
"e$	c #FFEFE1",
"f$	c #FFF3E3",
"g$	c #FFFCE6",
"h$	c #FFF1EA",
"i$	c #FDF6DC",
"j$	c #FFEEED",
"k$	c #FFF2C5",
"l$	c #FCF8D5",
"m$	c #71043B",
"n$	c #870454",
"o$	c #BDA077",
"p$	c #BB8C47",
"q$	c #DEAE62",
"r$	c #D8AC6E",
"s$	c #DDAE64",
"t$	c #AF8A67",
"u$	c #770A4D",
"v$	c #E73B25",
"w$	c #E94417",
"x$	c #E93B20",
"y$	c #F3C33D",
"z$	c #E64226",
"A$	c #E53B22",
"B$	c #7E023E",
"C$	c #CA7BA8",
"D$	c #FFF2F1",
"E$	c #FDF2F0",
"F$	c #F8EED3",
"G$	c #FFEADF",
"H$	c #FFECE7",
"I$	c #CC78B3",
"J$	c #750A42",
"K$	c #B01541",
"L$	c #AF114C",
"M$	c #76074B",
"N$	c #AF8761",
"O$	c #DBAE6C",
"P$	c #C7A480",
"Q$	c #7D084E",
"R$	c #FFF6DA",
"S$	c #FFF3E6",
"T$	c #E23B2B",
"U$	c #E63A26",
"V$	c #E43B24",
"W$	c #E33D27",
"X$	c #E84033",
"Y$	c #B20847",
"Z$	c #6D0A41",
"`$	c #78133F",
" %	c #82085B",
".%	c #6F0B41",
"+%	c #7E1154",
"@%	c #760A3E",
"#%	c #800A5E",
"$%	c #7F054E",
"%%	c #AE0943",
"&%	c #B2113B",
"*%	c #A70A3D",
"=%	c #A60B45",
"-%	c #7B0849",
";%	c #CBA277",
">%	c #DBAE6B",
",%	c #C4944C",
"'%	c #BC8C45",
")%	c #7B063B",
"!%	c #FFF6E4",
"~%	c #D377A6",
"{%	c #C477AF",
"]%	c #F53A19",
"^%	c #E4471E",
"/%	c #F0371B",
"(%	c #EC372C",
"_%	c #AF143C",
":%	c #B6083D",
"<%	c #B10F41",
"[%	c #E33D13",
"}%	c #EF3C1C",
"|%	c #E7342F",
"1%	c #E14129",
"2%	c #DC4122",
"3%	c #EE3E19",
"4%	c #DF4126",
"5%	c #A40D42",
"6%	c #BD1048",
"7%	c #B00E3D",
"8%	c #C7A0BF",
"9%	c #811046",
"0%	c #CFA676",
"a%	c #DFAF63",
"b%	c #BF8F48",
"c%	c #B88A4E",
"d%	c #78114E",
"e%	c #F6F1D1",
"f%	c #BC7ABA",
"g%	c #BD81A5",
"h%	c #C670AF",
"i%	c #FFF5E7",
"j%	c #E53420",
"k%	c #F23D1E",
"l%	c #FCF4DF",
"m%	c #F5F3DA",
"n%	c #B70948",
"o%	c #B20532",
"p%	c #EB3C2B",
"q%	c #F53E1F",
"r%	c #E93F1B",
"s%	c #F13A28",
"t%	c #EA3C24",
"u%	c #F23F1F",
"v%	c #FFE8DD",
"w%	c #FCF5E2",
"x%	c #B10A3E",
"y%	c #C09BC4",
"z%	c #7C053D",
"A%	c #C99951",
"B%	c #BA8A45",
"C%	c #DBAB63",
"D%	c #AF8A6D",
"E%	c #870B53",
"F%	c #C075AD",
"G%	c #D577B5",
"H%	c #D076AC",
"I%	c #B97CA8",
"J%	c #B1113F",
"K%	c #F3F5DD",
"L%	c #FFF3DC",
"M%	c #FFEFDF",
"N%	c #FBF2E0",
"O%	c #E93B22",
"P%	c #E73D1C",
"Q%	c #EF3828",
"R%	c #DB411F",
"S%	c #FAF7D8",
"T%	c #FFF4DE",
"U%	c #FEF4D9",
"V%	c #730C53",
"W%	c #C7A17F",
"X%	c #BC8C44",
"Y%	c #BD8D46",
"Z%	c #CFA470",
"`%	c #7E0C4A",
" &	c #C676B1",
".&	c #CE75AF",
"+&	c #C77CA3",
"@&	c #A60E3D",
"#&	c #FFF0E8",
"$&	c #F8F6DD",
"%&	c #FFF2DD",
"&&	c #FAF3D9",
"*&	c #FCF0E4",
"=&	c #EE3F24",
"-&	c #DD3A27",
";&	c #F43C24",
">&	c #E5392D",
",&	c #E7422F",
"'&	c #DF4020",
")&	c #ED3722",
"!&	c #FDFCCE",
"~&	c #FFEFD3",
"{&	c #FDF1E1",
"]&	c #FFFCDF",
"^&	c #760543",
"/&	c #C89E69",
"(&	c #D7A85D",
"_&	c #E1B266",
":&	c #DAAD6F",
"<&	c #850A49",
"[&	c #B97AA7",
"}&	c #C67DA8",
"|&	c #B30947",
"1&	c #B70333",
"2&	c #FBF9E2",
"3&	c #FEECE2",
"4&	c #FFF5D6",
"5&	c #F9F8DC",
"6&	c #EE3A17",
"7&	c #F69D25",
"8&	c #F4F7CC",
"9&	c #F6BF40",
"0&	c #F39426",
"a&	c #E63C19",
"b&	c #F43B39",
"c&	c #FEECEA",
"d&	c #F5F6E4",
"e&	c #FBFADE",
"f&	c #FBECE5",
"g&	c #890A4D",
"h&	c #D8A85E",
"i&	c #6C0D47",
"j&	c #CF7AB3",
"k&	c #C474A7",
"l&	c #AF004B",
"m&	c #AF0C4B",
"n&	c #BF8095",
"o&	c #FFF3D6",
"p&	c #FFF5E8",
"q&	c #800846",
"r&	c #7F024C",
"s&	c #7B0456",
"t&	c #7F0B3A",
"u&	c #7C0859",
"v&	c #7E094F",
"w&	c #820444",
"x&	c #7E0B44",
"y&	c #BF79AD",
"z&	c #FFEDDF",
"A&	c #FFF0E5",
"B&	c #770A43",
"C&	c #AB8A66",
"D&	c #DEAF66",
"E&	c #B98A4A",
"F&	c #C9A178",
"G&	c #791446",
"H&	c #8A084E",
"I&	c #78104F",
"J&	c #86084F",
"K&	c #720C4B",
"L&	c #7A0A52",
"M&	c #80014E",
"N&	c #770D4F",
"O&	c #75104C",
"P&	c #74104E",
"Q&	c #76105C",
"R&	c #72053F",
"S&	c #850D4B",
"T&	c #7D0B50",
"U&	c #730E52",
"V&	c #760C54",
"W&	c #7C0756",
"X&	c #C79D75",
"Y&	c #E0B067",
"Z&	c #CA9A52",
"`&	c #D0A467",
" *	c #D2A972",
".*	c #D3AA72",
"+*	c #C89F79",
"@*	c #770C44",
"#*	c #AF0A2C",
"$*	c #AA1942",
"%*	c #E33918",
"&*	c #E6381F",
"**	c #F13B25",
"=*	c #ED3B2D",
"-*	c #AE0C3B",
";*	c #AA0837",
">*	c #AE0836",
",*	c #AC0E3F",
"'*	c #750943",
")*	c #CEA570",
"!*	c #D7AC6E",
"~*	c #D1A874",
"{*	c #DAAD6C",
"]*	c #D3A45A",
"^*	c #D8AA68",
"/*	c #DCAF6C",
"(*	c #D8AC6F",
"_*	c #7D0656",
":*	c #B10947",
"<*	c #E5471A",
"[*	c #F53C28",
"}*	c #F7341E",
"|*	c #E03C21",
"1*	c #AF1247",
"2*	c #AD0B3C",
"3*	c #B81238",
"4*	c #770E51",
"5*	c #D7AA72",
"6*	c #D8AB6E",
"7*	c #DAAD6B",
"8*	c #E0B068",
"9*	c #BF904F",
"0*	c #C7974E",
"a*	c #BD8C46",
"b*	c #C59652",
"c*	c #C7974F",
"d*	c #C0965B",
"e*	c #760B51",
"f*	c #EF3B2A",
"g*	c #EC3621",
"h*	c #E0412B",
"i*	c #B80B39",
"j*	c #B30938",
"k*	c #6E0A4A",
"l*	c #BB906B",
"m*	c #C49655",
"n*	c #C39655",
"o*	c #C69750",
"p*	c #C69751",
"q*	c #A68673",
"r*	c #79064B",
"s*	c #FFB641",
"t*	c #F2FCE3",
"u*	c #F1C332",
"v*	c #B40F3A",
"w*	c #790856",
"x*	c #A98574",
"y*	c #AA8860",
"z*	c #B2885F",
"  . + @ . .   # # $ % & * = - ; > , ' ) ! ~ { ] ^ / ( _ .       ",
"  . : : < [ } | [ 1 2 3 4 5 6 7 8 9 0 a b c d e f g h i j k l   ",
"    m n o p q   r s t u v w x y z A B C D E F G H I J K L M N   ",
"O P Q R S T U V W X Y Z `  ...+.@.#.$.%.&.*.=.-.;.>.,.'.).M !.  ",
"~.~.  {.].^./.(._.:.<.[.}.|.1.2.3.4.5.6.7.8.9.0.a._.b.c.d.e.f.. ",
"g.# h.i.j.k.l.m.n.o.p.q.r.s.t.u.v.w.x.y.z.A.B.C.D.E.F.G.H.e.I.  ",
"J.K.L.M.N.O.P.Q.R.S.T.U.V.W.X.Y.Z.`. +.+++@+#+$+%+&+*+=+-+;+>+. ",
",+K.L '+)+!+~+{+]+^+/+(+_+:+<+[+}+|+1+2+3+4+5+6+7+8+9+0+a+b+c+. ",
"K.d+e+f+g+h+i+j+k+l+m+n+o+p+q+r+s+t+u+v+w+x+y+z+A+B+C+D+E+F+G+  ",
"H+I+J+K+L+M+N+O+P+Q+R+S+T+U+V+W+X+Y+Z+`+ @.@+@@@#@$@%@&@*@a+=@  ",
"$ P -@;@>@,@'@)@!@~@{@]@^@/@(@_@:@<@[@}@|@1@2@3@4@5@6@7@8@9@0@  ",
"a@b@c@d@e@f@g@h@i@j@k@l@m@n@o@p@q@[+r@s@t@u@v@w@x@y@z@A@B@C@0@  ",
"D@b@E@F@G@H@I@J@K@L@M@N@O@P@Q@R@S@T@U@V@W@X@Y@Z@`@ #z@A@B@.#+#  ",
"@#a@##$#%#&#*#=#-#;#>#,#'#)#!#~#{#]#^#/#(#_#:#<#[#}#6@7@8@|#1#  ",
"2#b@3#m 4#5#6#7#8#9#6#0#a#b#c#d#e#f#g#h#i#j#k#l#m#n#%@&@o#a+p#  ",
"q#O r#m s#t#u#v#w#x#y#z#A#B#C#D#E#F#G#H#I#=#J#K#L#M#C+N#E+L.N   ",
"b@P E+e+O#P#Q#R#S#T#U#V#W#X#Y#Z#`# $.$6#+$@$#$$$%$&$*$m M L.N   ",
"a@o =$-$e+;$>$,$'$)$!$~${$]$^$/$($_$:$<$[$}$|$1$2$3$4$5$e+m N   ",
"o b@# O 6$7$8$9$0$a$b$c$d$e$U#f$g$h$i$j$k$l$m$n$o$p$q$r$a+m :   ",
". P m s$t$u$v$w$x$y$z$A$B$C$D$E$F$G$y#H$I$J$K$L$M$N$L.E+O$m <   ",
"q#q#m P$Q$R$S$T$U$V$W$X$Y$Z$`$ %.%+%@%#%$%%%&%*%=%-%;%m >%,%'%  ",
"$ P M )%!%~%{%<$]%^%/%(%_%:%<%[%}%|%1%2%3%4%5%6%7%8%9%0%a%. b%  ",
". $ c%d%e%f%g%h%i%j%k%l%m%n%o%p%q%r%9 s%t%u%v%w%x%y%z%e+o A%N   ",
"  B%C%D%E%F%G%H%I%J%K%L%M%N%a$O%-.E.P%Q%R%S%T%I#U%V%W%X%Y%m N   ",
". # E+Z%`% &.&+&@&#&$&%&&&*&=&-&;&>&,&'&)&!&~&{&]&^&/&  (&m N   ",
". O _&:&<&[&}&|&1&2&3&4&x#5&6&7&8&9&0&a&b&c&d&e&f&g&g.h&E+m N   ",
"  P ,%].i&j&k&l&m&n&o&p&H$q&r&s&t&u&v&w&x&y&z&A&B&C&D&m m m N   ",
"  B%E&o F&G&H&I&J&K&L&M&N&O&P&Q&R&S&T&U&V&C+Q@W&X&m m L.m m N . ",
"  . Y&Z&. `& *.*+*@*#*$*%*&***=*-*;*>*,*'*)*!*~*_&m {*m m m !.. ",
"    m m ]*B%^*/*m (*_*:*<*[*}*|*1*2*3*4*5*m 6*7*M 8*m m m L.9*. ",
"  . 0*0*0*a*'%b*b*c*d*e*f*n+g*h*i*j*k*l*c*c*m*n*c*0*0*0*o*p*'%  ",
"        .     . b@o P q*r*s*t*u*v*w*x*  q#y*z*      . $ .       "};
