/* XPM */
static char * psin_xpm[] = {
"32 32 801 2",
"  	c #BA8A42",
". 	c #BA8A43",
"+ 	c #B68A4C",
"@ 	c #B28959",
"# 	c #B28958",
"$ 	c #B08865",
"% 	c #7F084C",
"& 	c #770B47",
"* 	c #9D7F95",
"= 	c #AD8A5F",
"- 	c #A8866B",
"; 	c #7C0B4B",
"> 	c #800C49",
", 	c #79074D",
"' 	c #830956",
") 	c #6E0540",
"! 	c #73174A",
"~ 	c #820354",
"{ 	c #73084E",
"] 	c #A58774",
"^ 	c #B98A45",
"/ 	c #B88A48",
"( 	c #B8894A",
"_ 	c #B6894E",
": 	c #BB8B44",
"< 	c #C09049",
"[ 	c #BE8F4F",
"} 	c #B98B50",
"| 	c #BB8D59",
"1 	c #BB8D50",
"2 	c #A98769",
"3 	c #7E0F44",
"4 	c #E33826",
"5 	c #750D4C",
"6 	c #860E56",
"7 	c #76064E",
"8 	c #E33F24",
"9 	c #E63C1B",
"0 	c #E33E1E",
"a 	c #E93A1F",
"b 	c #F14634",
"c 	c #DF4124",
"d 	c #EE3B12",
"e 	c #E73737",
"f 	c #83054E",
"g 	c #B08D70",
"h 	c #BE8E47",
"i 	c #B78B57",
"j 	c #BA8E56",
"k 	c #BD8C45",
"l 	c #C09048",
"m 	c #C19149",
"n 	c #E0B168",
"o 	c #DEB069",
"p 	c #B0886F",
"q 	c #862D42",
"r 	c #860053",
"s 	c #77144A",
"t 	c #E33E20",
"u 	c #B20B3F",
"v 	c #B60D38",
"w 	c #A40E3B",
"x 	c #E8391E",
"y 	c #E63D28",
"z 	c #E33920",
"A 	c #E8462F",
"B 	c #E63726",
"C 	c #EB3B23",
"D 	c #E03E18",
"E 	c #E63418",
"F 	c #F6422B",
"G 	c #D2441C",
"H 	c #750C47",
"I 	c #D1A66B",
"J 	c #CF9F59",
"K 	c #D9AC6C",
"L 	c #BA8A44",
"M 	c #CE9E55",
"N 	c #E2B266",
"O 	c #BF914E",
"P 	c #D1A571",
"Q 	c #71034C",
"R 	c #EA3F2B",
"S 	c #EE3E26",
"T 	c #E93429",
"U 	c #E24222",
"V 	c #B20D37",
"W 	c #AC1133",
"X 	c #E53B21",
"Y 	c #F34029",
"Z 	c #E73622",
"` 	c #EF4021",
" .	c #E4401D",
"..	c #EC3C25",
"+.	c #EF3921",
"@.	c #EA4120",
"#.	c #ED3D2E",
"$.	c #EB3327",
"%.	c #E8400F",
"&.	c #EB3C1F",
"*.	c #750D48",
"=.	c #C09563",
"-.	c #BB8C4A",
";.	c #E0B167",
">.	c #D7A964",
",.	c #B5894D",
"'.	c #D3A35A",
").	c #B98A47",
"!.	c #B88A49",
"~.	c #BD9052",
"{.	c #CCA378",
"].	c #781148",
"^.	c #F03A36",
"/.	c #E7431D",
"(.	c #EB3C1D",
"_.	c #E8422A",
":.	c #E73C28",
"<.	c #B40C47",
"[.	c #EA3325",
"}.	c #D94129",
"|.	c #EE3C1E",
"1.	c #E93D19",
"2.	c #EB3726",
"3.	c #E43A2D",
"4.	c #E93A25",
"5.	c #F03C25",
"6.	c #E33B21",
"7.	c #E13D18",
"8.	c #EF4220",
"9.	c #EA3732",
"0.	c #E83D33",
"a.	c #730B46",
"b.	c #9D828B",
"c.	c #DDAE6A",
"d.	c #DEAF6B",
"e.	c #D6A75E",
"f.	c #AF8863",
"g.	c #BB8F5A",
"h.	c #750D4A",
"i.	c #DE390C",
"j.	c #E83924",
"k.	c #E43C22",
"l.	c #DE3F18",
"m.	c #EB3728",
"n.	c #EA3C17",
"o.	c #EF491F",
"p.	c #E0401E",
"q.	c #EC3918",
"r.	c #E74226",
"s.	c #F23E1D",
"t.	c #EE3F20",
"u.	c #E53818",
"v.	c #EA3B1C",
"w.	c #ED4228",
"x.	c #E73D24",
"y.	c #E73B23",
"z.	c #EA3B26",
"A.	c #E73D26",
"B.	c #EA3B20",
"C.	c #E93B23",
"D.	c #740B46",
"E.	c #7E1152",
"F.	c #86094D",
"G.	c #C69D74",
"H.	c #DCAC61",
"I.	c #B48955",
"J.	c #B88E59",
"K.	c #D2A876",
"L.	c #C39F7B",
"M.	c #790C4D",
"N.	c #E64626",
"O.	c #E94625",
"P.	c #E43927",
"Q.	c #E93D25",
"R.	c #E73921",
"S.	c #D83E24",
"T.	c #F03A2D",
"U.	c #ED3922",
"V.	c #EC3635",
"W.	c #E5392B",
"X.	c #E23918",
"Y.	c #E9452A",
"Z.	c #E03D2A",
"`.	c #DE3715",
" +	c #EB411E",
".+	c #E83F2C",
"++	c #DF3C29",
"@+	c #EC3821",
"#+	c #E84026",
"$+	c #ED3A1C",
"%+	c #EB4015",
"&+	c #E8411F",
"*+	c #DF3923",
"=+	c #780A53",
"-+	c #E1B167",
";+	c #B98A44",
">+	c #B2895B",
",+	c #B78E61",
"'+	c #DDAF6A",
")+	c #DFB068",
"!+	c #B38958",
"~+	c #810050",
"{+	c #EA341C",
"]+	c #F03E24",
"^+	c #E53A28",
"/+	c #F3431C",
"(+	c #E83820",
"_+	c #E53F17",
":+	c #A7113E",
"<+	c #E93C1C",
"[+	c #ED4022",
"}+	c #E93826",
"|+	c #E63D20",
"1+	c #E6421F",
"2+	c #EF3B2C",
"3+	c #F4352B",
"4+	c #ED391E",
"5+	c #E64016",
"6+	c #E0421F",
"7+	c #E43A2B",
"8+	c #F23B1C",
"9+	c #E3393C",
"0+	c #DF440B",
"a+	c #EA3D1F",
"b+	c #860852",
"c+	c #B78A4B",
"d+	c #B68D62",
"e+	c #DAAD6E",
"f+	c #E1B267",
"g+	c #AD876A",
"h+	c #7B0B46",
"i+	c #A90F31",
"j+	c #F13C21",
"k+	c #E93735",
"l+	c #E53C1D",
"m+	c #F14515",
"n+	c #E8372F",
"o+	c #E63E21",
"p+	c #B90C3A",
"q+	c #F33623",
"r+	c #E23F1C",
"s+	c #E6371C",
"t+	c #ED4520",
"u+	c #E04020",
"v+	c #E83928",
"w+	c #DD3F18",
"x+	c #EB4120",
"y+	c #E33E22",
"z+	c #E43A19",
"A+	c #EB4128",
"B+	c #EF3E14",
"C+	c #E63A24",
"D+	c #DF3E22",
"E+	c #810E49",
"F+	c #DFB069",
"G+	c #B68953",
"H+	c #BA8E5D",
"I+	c #CEA871",
"J+	c #820B4F",
"K+	c #AD0945",
"L+	c #B10F48",
"M+	c #AC1234",
"N+	c #E54013",
"O+	c #EE3930",
"P+	c #D43D10",
"Q+	c #F5402F",
"R+	c #E13C28",
"S+	c #E83A22",
"T+	c #AB1240",
"U+	c #E74129",
"V+	c #F53A27",
"W+	c #E33B20",
"X+	c #F23522",
"Y+	c #F13A2C",
"Z+	c #EB411D",
"`+	c #EB342C",
" @	c #EB3E16",
".@	c #EF3D31",
"+@	c #E53921",
"@@	c #E9351E",
"#@	c #DF4523",
"$@	c #E6382D",
"%@	c #6E0F49",
"&@	c #CFA05D",
"*@	c #B7894F",
"=@	c #B98A43",
"-@	c #BE9051",
";@	c #CCA679",
">@	c #7C0E4D",
",@	c #AE0D37",
"'@	c #A90E47",
")@	c #AE0B44",
"!@	c #B30041",
"~@	c #76084D",
"{@	c #800E4A",
"]@	c #7F0D4B",
"^@	c #F03723",
"/@	c #E53F27",
"(@	c #DD431D",
"_@	c #DD3F24",
":@	c #AD0F32",
"<@	c #AE0A2F",
"[@	c #AC0E3E",
"}@	c #7A0D4E",
"|@	c #7D0A45",
"1@	c #730B40",
"2@	c #7E0854",
"3@	c #EE3926",
"4@	c #DA422A",
"5@	c #E4382A",
"6@	c #F14227",
"7@	c #EE3A21",
"8@	c #AE1241",
"9@	c #75024F",
"0@	c #B48A57",
"a@	c #D4A872",
"b@	c #710A41",
"c@	c #B90B46",
"d@	c #B10C36",
"e@	c #AC103F",
"f@	c #770F4E",
"g@	c #7C0C5E",
"h@	c #7B0945",
"i@	c #6E0854",
"j@	c #7B094E",
"k@	c #EF3622",
"l@	c #E93E20",
"m@	c #AE0941",
"n@	c #B81145",
"o@	c #820A4A",
"p@	c #81055B",
"q@	c #710C44",
"r@	c #760B5B",
"s@	c #7D0646",
"t@	c #86074C",
"u@	c #E74020",
"v@	c #DE4324",
"w@	c #EA3516",
"x@	c #B3152E",
"y@	c #AA0240",
"z@	c #830F4C",
"A@	c #D1A673",
"B@	c #B88A4A",
"C@	c #B98A48",
"D@	c #BF914F",
"E@	c #CFA576",
"F@	c #B70B31",
"G@	c #AE133F",
"H@	c #730B4A",
"I@	c #CA74A3",
"J@	c #D376AB",
"K@	c #831047",
"L@	c #7B0951",
"M@	c #F03B26",
"N@	c #EC402A",
"O@	c #BE0143",
"P@	c #790846",
"Q@	c #760749",
"R@	c #66104D",
"S@	c #C3779E",
"T@	c #CE77AA",
"U@	c #C979AE",
"V@	c #EA3C19",
"W@	c #DC4226",
"X@	c #F03838",
"Y@	c #B60949",
"Z@	c #A8113C",
"`@	c #880E57",
" #	c #A18A78",
".#	c #DBAD6C",
"+#	c #B88A4B",
"@#	c #C0914C",
"##	c #CEA678",
"$#	c #A90537",
"%#	c #C10949",
"&#	c #77084A",
"*#	c #FFF2E5",
"=#	c #FEECE0",
"-#	c #700B47",
";#	c #7D0B53",
">#	c #790A4C",
",#	c #E0381B",
"'#	c #7A1444",
")#	c #7A074A",
"!#	c #7B0B55",
"~#	c #791656",
"{#	c #FFE7DF",
"]#	c #FEF4DB",
"^#	c #FFF0E6",
"/#	c #E5411C",
"(#	c #E23821",
"_#	c #FFF1D8",
":#	c #FEF4EA",
"<#	c #750243",
"[#	c #B59780",
"}#	c #BA8C48",
"|#	c #B68950",
"1#	c #B88A4C",
"2#	c #C0914B",
"3#	c #C8A574",
"4#	c #A5173F",
"5#	c #780747",
"6#	c #FEFBD8",
"7#	c #FFF3D8",
"8#	c #FFF5EC",
"9#	c #791052",
"0#	c #6D0D4D",
"a#	c #FFF5D5",
"b#	c #FFF3E4",
"c#	c #FFE8DF",
"d#	c #FEFBDC",
"e#	c #740846",
"f#	c #780540",
"g#	c #FFF5DA",
"h#	c #F6EDE4",
"i#	c #FBF6D8",
"j#	c #E44120",
"k#	c #FFF1D5",
"l#	c #D279A9",
"m#	c #830847",
"n#	c #C59887",
"o#	c #D4A970",
"p#	c #B78A4E",
"q#	c #BD9B82",
"r#	c #BE064E",
"s#	c #6B0E43",
"t#	c #FFF0DE",
"u#	c #F7F3DA",
"v#	c #FFF0DF",
"w#	c #FDF1E5",
"x#	c #FFF1E2",
"y#	c #FDF6E4",
"z#	c #FEF1E0",
"A#	c #FFF3DA",
"B#	c #FFF0D9",
"C#	c #FFF3E8",
"D#	c #FFF3E7",
"E#	c #FFEEE2",
"F#	c #FDF6DA",
"G#	c #FFEFE4",
"H#	c #C374B5",
"I#	c #C17FAD",
"J#	c #FFECDF",
"K#	c #6E1D4D",
"L#	c #D0A872",
"M#	c #E0B069",
"N#	c #B98A46",
"O#	c #AB886A",
"P#	c #770C50",
"Q#	c #750841",
"R#	c #FBF3DE",
"S#	c #FFF3E5",
"T#	c #FFEFD6",
"U#	c #FFF2E9",
"V#	c #FEF0E3",
"W#	c #FFF5E1",
"X#	c #FFEDEC",
"Y#	c #FAFFDC",
"Z#	c #FFE9E5",
"`#	c #F3F6D9",
" $	c #FFF8E2",
".$	c #FFE8E7",
"+$	c #FFF1DA",
"@$	c #FFF8DE",
"#$	c #FFEAE8",
"$$	c #FFF5DC",
"%$	c #81284E",
"&$	c #C1A079",
"*$	c #D6AA6E",
"=$	c #D6AC70",
"-$	c #C39761",
";$	c #CD9D57",
">$	c #D0A77F",
",$	c #7E0344",
"'$	c #F7FBE2",
")$	c #FFEEF0",
"!$	c #F9F4E0",
"~$	c #FFF5E5",
"{$	c #FFEED6",
"]$	c #BD7C9E",
"^$	c #CE73B0",
"/$	c #C66EA1",
"($	c #FFF3E2",
"_$	c #FAF9DB",
":$	c #FFEDE6",
"<$	c #FCF8DD",
"[$	c #7C0A50",
"}$	c #770054",
"|$	c #7D1747",
"1$	c #78093C",
"2$	c #C5A37B",
"3$	c #E2B267",
"4$	c #CCA575",
"5$	c #D1A259",
"6$	c #D8AC6E",
"7$	c #DEAE62",
"8$	c #BB8C47",
"9$	c #BDA077",
"0$	c #870454",
"a$	c #71043B",
"b$	c #FCF8D5",
"c$	c #FFF2C5",
"d$	c #FFEEED",
"e$	c #FDF6DC",
"f$	c #FFF1EA",
"g$	c #FFFCE6",
"h$	c #FFF3E3",
"i$	c #FFEFE1",
"j$	c #FFF8DC",
"k$	c #880549",
"l$	c #DB4419",
"m$	c #E9402D",
"n$	c #F2341A",
"o$	c #E83425",
"p$	c #820D53",
"q$	c #BA9F84",
"r$	c #C0914D",
"s$	c #DBAE6C",
"t$	c #AF8761",
"u$	c #76074B",
"v$	c #AF114C",
"w$	c #B01541",
"x$	c #750A42",
"y$	c #CC78B3",
"z$	c #FFECE7",
"A$	c #FFEADF",
"B$	c #F8EED3",
"C$	c #FDF2F0",
"D$	c #FFF2F1",
"E$	c #CA7BA8",
"F$	c #7E023E",
"G$	c #E53B22",
"H$	c #E64226",
"I$	c #F3C33D",
"J$	c #E93B20",
"K$	c #E94417",
"L$	c #E73B25",
"M$	c #770A4D",
"N$	c #AF8A67",
"O$	c #DDAE64",
"P$	c #BC8C45",
"Q$	c #C4944C",
"R$	c #DBAE6B",
"S$	c #CBA277",
"T$	c #7B0849",
"U$	c #A60B45",
"V$	c #A70A3D",
"W$	c #B2113B",
"X$	c #AE0943",
"Y$	c #7F054E",
"Z$	c #800A5E",
"`$	c #760A3E",
" %	c #7E1154",
".%	c #6F0B41",
"+%	c #82085B",
"@%	c #78133F",
"#%	c #6D0A41",
"$%	c #B20847",
"%%	c #E84033",
"&%	c #E33D27",
"*%	c #E43B24",
"=%	c #E63A26",
"-%	c #E23B2B",
";%	c #FFF3E6",
">%	c #FFF6DA",
",%	c #7D084E",
"'%	c #C7A480",
")%	c #BF8F48",
"!%	c #DFAF63",
"~%	c #CFA676",
"{%	c #811046",
"]%	c #C7A0BF",
"^%	c #B00E3D",
"/%	c #BD1048",
"(%	c #A40D42",
"_%	c #DF4126",
":%	c #EE3E19",
"<%	c #DC4122",
"[%	c #E14129",
"}%	c #E7342F",
"|%	c #EF3C1C",
"1%	c #E33D13",
"2%	c #B10F41",
"3%	c #B6083D",
"4%	c #AF143C",
"5%	c #EC372C",
"6%	c #F0371B",
"7%	c #E4471E",
"8%	c #F53A19",
"9%	c #C477AF",
"0%	c #D377A6",
"a%	c #FFF6E4",
"b%	c #7B063B",
"c%	c #C99951",
"d%	c #7C053D",
"e%	c #C09BC4",
"f%	c #B10A3E",
"g%	c #FCF5E2",
"h%	c #FFE8DD",
"i%	c #F23F1F",
"j%	c #EA3C24",
"k%	c #F13A28",
"l%	c #E93F1B",
"m%	c #F53E1F",
"n%	c #EB3C2B",
"o%	c #B20532",
"p%	c #B70948",
"q%	c #F5F3DA",
"r%	c #FCF4DF",
"s%	c #F23D1E",
"t%	c #E53420",
"u%	c #FFF5E7",
"v%	c #C670AF",
"w%	c #BD81A5",
"x%	c #BC7ABA",
"y%	c #F6F1D1",
"z%	c #78114E",
"A%	c #B88A4E",
"B%	c #BD8D46",
"C%	c #BC8C44",
"D%	c #C7A17F",
"E%	c #730C53",
"F%	c #FEF4D9",
"G%	c #FFF4DE",
"H%	c #FAF7D8",
"I%	c #DB411F",
"J%	c #EF3828",
"K%	c #E73D1C",
"L%	c #E93B22",
"M%	c #FBF2E0",
"N%	c #FFEFDF",
"O%	c #FFF3DC",
"P%	c #F3F5DD",
"Q%	c #B1113F",
"R%	c #B97CA8",
"S%	c #D076AC",
"T%	c #D577B5",
"U%	c #C075AD",
"V%	c #870B53",
"W%	c #AF8A6D",
"X%	c #DBAB63",
"Y%	c #BA8A45",
"Z%	c #D7A85D",
"`%	c #C89E69",
" &	c #760543",
".&	c #FFFCDF",
"+&	c #FDF1E1",
"@&	c #FFEFD3",
"#&	c #FDFCCE",
"$&	c #ED3722",
"%&	c #DF4020",
"&&	c #E7422F",
"*&	c #E5392D",
"=&	c #F43C24",
"-&	c #DD3A27",
";&	c #EE3F24",
">&	c #FCF0E4",
",&	c #FAF3D9",
"'&	c #FFF2DD",
")&	c #F8F6DD",
"!&	c #FFF0E8",
"~&	c #A60E3D",
"{&	c #C77CA3",
"]&	c #CE75AF",
"^&	c #C676B1",
"/&	c #7E0C4A",
"(&	c #CFA470",
"_&	c #D8A85E",
":&	c #890A4D",
"<&	c #FBECE5",
"[&	c #FBFADE",
"}&	c #F5F6E4",
"|&	c #FEECEA",
"1&	c #F43B39",
"2&	c #E63C19",
"3&	c #F39426",
"4&	c #F6BF40",
"5&	c #F4F7CC",
"6&	c #F69D25",
"7&	c #EE3A17",
"8&	c #F9F8DC",
"9&	c #FFF5D6",
"0&	c #FEECE2",
"a&	c #FBF9E2",
"b&	c #B70333",
"c&	c #B30947",
"d&	c #C67DA8",
"e&	c #B97AA7",
"f&	c #850A49",
"g&	c #DAAD6F",
"h&	c #E1B266",
"i&	c #DEAF66",
"j&	c #AB8A66",
"k&	c #770A43",
"l&	c #FFF0E5",
"m&	c #FFEDDF",
"n&	c #BF79AD",
"o&	c #7E0B44",
"p&	c #820444",
"q&	c #7E094F",
"r&	c #7C0859",
"s&	c #7F0B3A",
"t&	c #7B0456",
"u&	c #7F024C",
"v&	c #800846",
"w&	c #FFF5E8",
"x&	c #FFF3D6",
"y&	c #BF8095",
"z&	c #AF0C4B",
"A&	c #AF004B",
"B&	c #C474A7",
"C&	c #CF7AB3",
"D&	c #6C0D47",
"E&	c #C79D75",
"F&	c #7C0756",
"G&	c #760C54",
"H&	c #730E52",
"I&	c #7D0B50",
"J&	c #850D4B",
"K&	c #72053F",
"L&	c #76105C",
"M&	c #74104E",
"N&	c #75104C",
"O&	c #770D4F",
"P&	c #80014E",
"Q&	c #7A0A52",
"R&	c #720C4B",
"S&	c #86084F",
"T&	c #78104F",
"U&	c #8A084E",
"V&	c #791446",
"W&	c #C9A178",
"X&	c #B98A4A",
"Y&	c #DAAD6C",
"Z&	c #D1A874",
"`&	c #D7AC6E",
" *	c #CEA570",
".*	c #750943",
"+*	c #AC0E3F",
"@*	c #AE0836",
"#*	c #AA0837",
"$*	c #AE0C3B",
"%*	c #ED3B2D",
"&*	c #F13B25",
"**	c #E6381F",
"=*	c #E33918",
"-*	c #AA1942",
";*	c #AF0A2C",
">*	c #770C44",
",*	c #C89F79",
"'*	c #D3AA72",
")*	c #D2A972",
"!*	c #D0A467",
"~*	c #CA9A52",
"{*	c #E0B067",
"]*	c #BF904F",
"^*	c #E0B068",
"/*	c #DAAD6B",
"(*	c #D8AB6E",
"_*	c #D7AA72",
":*	c #770E51",
"<*	c #B81238",
"[*	c #AD0B3C",
"}*	c #AF1247",
"|*	c #E03C21",
"1*	c #F7341E",
"2*	c #F53C28",
"3*	c #E5471A",
"4*	c #B10947",
"5*	c #7D0656",
"6*	c #D8AC6F",
"7*	c #DCAF6C",
"8*	c #D8AA68",
"9*	c #D3A45A",
"0*	c #C69751",
"a*	c #C69750",
"b*	c #C7974E",
"c*	c #C7974F",
"d*	c #C39655",
"e*	c #C49655",
"f*	c #BB906B",
"g*	c #6E0A4A",
"h*	c #B30938",
"i*	c #B80B39",
"j*	c #E0412B",
"k*	c #EC3621",
"l*	c #EF3B2A",
"m*	c #760B51",
"n*	c #C0965B",
"o*	c #C59652",
"p*	c #BD8C46",
"q*	c #B2885F",
"r*	c #AA8860",
"s*	c #A98574",
"t*	c #790856",
"u*	c #B40F3A",
"v*	c #F1C332",
"w*	c #F2FCE3",
"x*	c #FFB641",
"y*	c #79064B",
"z*	c #A68673",
"      . + @ # $ % & * = - ; > , ' ) ! ~ { ] ^ / /   . . ( _ .   ",
"  : < [ } | 1 2 3 4 5 6 7 8 9 0 a b c d e f g h i j h k l l .   ",
"  m n o p q r s t u v w x y z A B C D E F G H I   J K L M N     ",
"  O n P Q R S T U V W X Y Z `  ...+.@.#.$.%.&.*.=.-.;.>.,.'.).!.",
". ~.{.].^./.(._.:.<.[.}.|.1.2.3.4.5.6.7.8.9.0.(.a.b.c.d.e.  f.f.",
"  g.{.h.i.j.k.l.m.n.o.p.q.r.s.t.u.v.w.x.y.z.A.B.C.D.E.F.G.H./ I.",
". J.K.L.M.N.O.P.Q.R.S.T.U.V.W.X.Y.Z.`. +.+++@+#+$+%+&+*+=+-+;+>+",
". ,+'+)+!+~+{+]+^+/+(+_+:+<+[+}+|+1+2+3+4+5+6+7+8+9+0+a+b+o ;+c+",
"  d+e+f+g+h+i+j+k+l+m+n+o+p+q+r+s+t+u+v+w+x+y+z+A+B+C+D+E+F+G+;+",
"  H+)+I+J+K+L+M+N+O+P+Q+R+S+T+U+V+W+X+Y+Z+`+ @.@+@@@#@$@%@&@*@=@",
"  -@;@>@,@'@)@!@~@{@]@^@/@(@_@:@<@[@}@|@1@2@3@4@5@6@7@8@9@0@).^ ",
"  -@a@b@c@d@e@f@g@h@i@j@k@l@|+m@n@o@p@q@r@s@t@u@v@w@x@y@z@A@B@C@",
"  D@E@b@c@d@F@G@H@I@J@K@L@M@N@O@P@Q@R@S@T@U@V@W@X@Y@Z@`@ #.#B@+#",
"  @###>@,@'@$#%#&#*#=#-#;#>#,#'#)#!#~#{#]#^#/#(#_#:#<#[#}#|#C@1#",
"  2#)+3#J+K+4#5#6#7#8#9#0#a#b#c#d#e#f#g#h#i#j#k#l#i#m#n#N o#B@p#",
"  m -+f+q#h+r#s#t#u#_#v#w#x#y#z#A#B#C#D#E#F#G#H#I#J#K#L#N M#!.N#",
"  m -+n N O#P#Q#R#S#T#U#i#V#W#X#Y#Z#`# $.$+$@$#$$$%$&$*$F+f+).B@",
"  m N F+=$-$;$>$,$'$)$!$~${$]$^$/$($_$:$<$[$}$|$1$2$3$F+4$5$L C@",
"  l N )+6$7$8$9$0$a$b$c$d$e$f$g$h$+$i$j$k$l$m$n$o$p$q$r$!./ B@L ",
"  k N s$f+-+t$u$v$w$x$y$z$F#A$B$C$D$E$F$G$H$I$J$K$L$M$N$O$N ).. ",
"  P$Q$R$N S$T$U$V$W$X$Y$Z$`$ %.%+%@%#%$%%%&%*%=%-%;%>%,%'%N N#N#",
"  )%. !%~%{%]%^%/%(%_%:%<%[%}%|%1%2%3%4%5%6%7%8%~$9%0%a%b%n ).^ ",
"  m c%L F+d%e%f%g%h%i%j%k%9 l%m%n%o%p%q%r%s%t%u%v%w%x%y%z%A%^ . ",
"  m N B%C%D%E%F%v#G%H%I%J%K%k.U L%m$M%N%O%P%Q%R%S%T%U%V%W%X%Y%  ",
"  m N Z%  `% &.&+&@&#&$&%&&&*&=&-&;&>&,&'&)&!&~&{&]&^&/&(&f+/ . ",
"  m N f+_&I.:&<&[&}&|&1&2&3&4&5&6&7&8&G#9&0&a&b&c&d&e&f&g&h&!.. ",
"  m N N N i&j&k&l&m&n&o&p&q&r&s&t&u&v&z$w&x&y&z&A&B&C&D&d.Q$).  ",
". m N N -+N N E&F&Q@h+G&H&I&J&K&L&M&N&O&P&Q&R&S&T&U&V&W&L X&Y%  ",
". O N N N Y&N h&Z&`& *.*+*@*#*$*%*&***=*-*;*>*,*'*)*!*. ~*{*.   ",
". ]*-+N N N ^*n /*(*N _*:*<*[*}*|*1*2*3*4*5*6*N 7*8*Y%9*N N     ",
"  P$0*a*b*b*b*c*d*e*c*c*f*g*h*i*j*k*w+l*m*n*c*o*o*P$p*b*b*b*.   ",
"      . ^ .       q*r*N#  s*t*u*v*w*x*y*z*).L B@.     .         "};
