/* XPM */
static char * T_xpm[] = {
"32 32 189 2",
"  	c #BA8A42",
". 	c #B88841",
"+ 	c #9F7537",
"@ 	c #7E5D2A",
"# 	c #5C421C",
"$ 	c #33230C",
"% 	c #000000",
"& 	c #BB8B44",
"* 	c #C09048",
"= 	c #BC8C45",
"- 	c #C08F48",
"; 	c #BE8E47",
"> 	c #B18441",
", 	c #81602E",
"' 	c #33240D",
") 	c #7F5E2D",
"! 	c #BF8F47",
"~ 	c #BE8E46",
"{ 	c #BD8C45",
"] 	c #BA8A43",
"^ 	c #C1924B",
"/ 	c #E2B266",
"( 	c #BA8943",
"_ 	c #E1B165",
": 	c #9D7941",
"< 	c #261907",
"[ 	c #5A5A5A",
"} 	c #7D7D7D",
"| 	c #898989",
"1 	c #9C773F",
"2 	c #CE9E55",
"3 	c #C19149",
"4 	c #B58541",
"5 	c #7B5F34",
"6 	c #707070",
"7 	c #BDBDBD",
"8 	c #E2E2E2",
"9 	c #FAFAFA",
"0 	c #FFFFFF",
"a 	c #D6A75D",
"b 	c #D3A35A",
"c 	c #DEAF64",
"d 	c #5C421D",
"e 	c #6E6E6E",
"f 	c #DADADA",
"g 	c #71572F",
"h 	c #D2A45B",
"i 	c #8B6D3C",
"j 	c #A9A9A9",
"k 	c #FCFCFC",
"l 	c #DCAC61",
"m 	c #C19856",
"n 	c #AAAAAA",
"o 	c #6D542D",
"p 	c #696969",
"q 	c #FDFDFD",
"r 	c #AF8341",
"s 	c #D0D0D0",
"t 	c #A97D3B",
"u 	c #8F6B34",
"v 	c #323232",
"w 	c #FBFBFB",
"x 	c #8A6630",
"y 	c #765729",
"z 	c #808080",
"A 	c #715325",
"B 	c #674C23",
"C 	c #999999",
"D 	c #634820",
"E 	c #694E24",
"F 	c #9F9F9F",
"G 	c #654A20",
"H 	c #79592B",
"I 	c #989898",
"J 	c #F6F6F6",
"K 	c #745527",
"L 	c #8E6A33",
"M 	c #D6D6D6",
"N 	c #CECECE",
"O 	c #F1F1F1",
"P 	c #767676",
"Q 	c #606060",
"R 	c #E6E6E6",
"S 	c #89642F",
"T 	c #A77D3E",
"U 	c #5F5F5F",
"V 	c #F5F5F5",
"W 	c #424242",
"X 	c #EAEAEA",
"Y 	c #929292",
"Z 	c #515151",
"` 	c #EDEDED",
" .	c #A17738",
"..	c #BE8E48",
"+.	c #2B1F0D",
"@.	c #2E2E2E",
"#.	c #FEFEFE",
"$.	c #161616",
"%.	c #B78741",
"&.	c #816537",
"*.	c #1C1C1C",
"=.	c #737373",
"-.	c #858585",
";.	c #775B2F",
">.	c #B99152",
",.	c #838383",
"'.	c #B4B4B4",
").	c #987034",
"!.	c #DBAD63",
"~.	c #8B8B8B",
"{.	c #DBDBDB",
"].	c #C4C4C4",
"^.	c #C4944C",
"/.	c #8D6E3D",
"(.	c #656565",
"_.	c #C5C5C5",
":.	c #262626",
"<.	c #717171",
"[.	c #C0914E",
"}.	c #A48047",
"|.	c #E0E0E0",
"1.	c #F2F2F2",
"2.	c #CFCFCF",
"3.	c #D3D3D3",
"4.	c #9C9C9C",
"5.	c #A68249",
"6.	c #C99951",
"7.	c #956E34",
"8.	c #404040",
"9.	c #BFBFBF",
"0.	c #F9F9F9",
"a.	c #C2C2C2",
"b.	c #CDCDCD",
"c.	c #9E763C",
"d.	c #B78842",
"e.	c #30210B",
"f.	c #454545",
"g.	c #CACACA",
"h.	c #474747",
"i.	c #2F210B",
"j.	c #B68742",
"k.	c #D7A85D",
"l.	c #A87D3B",
"m.	c #785C30",
"n.	c #0D0D0D",
"o.	c #BABABA",
"p.	c #797979",
"q.	c #555555",
"r.	c #694C22",
"s.	c #AA7E3E",
"t.	c #DEAE63",
"u.	c #D8A85E",
"v.	c #B18543",
"w.	c #91713F",
"x.	c #141311",
"y.	c #E8E8E8",
"z.	c #F0F0F0",
"A.	c #775728",
"B.	c #AC7F3D",
"C.	c #D9A95F",
"D.	c #E0B064",
"E.	c #A07639",
"F.	c #C3C3C3",
"G.	c #9E7538",
"H.	c #D8A85D",
"I.	c #C5954D",
"J.	c #DFAF63",
"K.	c #BB8B43",
"L.	c #584935",
"M.	c #9A9A9A",
"N.	c #544021",
"O.	c #D9A95E",
"P.	c #CA9A52",
"Q.	c #A58249",
"R.	c #D7D7D7",
"S.	c #C8C8C8",
"T.	c #D3A45A",
"U.	c #E2B267",
"V.	c #C7974E",
"W.	c #C6964E",
"X.	c #7F5F2F",
"Y.	c #C7974F",
"Z.	c #BC8C44",
"`.	c #BD8C46",
" +	c #987035",
".+	c #674B21",
"++	c #12110F",
"@+	c #383838",
"#+	c #3D3D3D",
"                  . + @ # $ % % % % $ # @ + .                   ",
"  & * * = - ; > , ' % % % % % % % % % % % % ' ) > ! ~ { * * ]   ",
"  ^ / / ( _ : < % % % % % [ } | | } [ % % % % % < 1 _   2 /     ",
"  3 / / 4 5 % % % 6 7 8 9 0 0 0 0 0 0 9 8 7 6 % % % 5 a   b     ",
"  3 / c d % % e f 0 0 0 0 0 0 0 0 0 0 0 0 0 0 f e % % g h       ",
"  3 / i % % j k 0 0 0 0 0 0 0 0 0 0 0 0 0 0 0 0 k j % % i l     ",
"  3 m % % n 0 0 0 0 0 0 0 0 0 0 0 0 0 0 0 0 0 0 0 0 n % % m     ",
"  3 o % p q 0 0 0 0 0 0 0 0 0 0 0 0 0 0 0 0 0 0 0 0 q p % o     ",
"  r % % s 0 0 0 0 0 0 0 0 0 0 0 0 0 0 0 0 0 0 0 0 0 0 s % % t   ",
"  u % v w 0 0 0 0 0 0 0 0 0 0 0 0 0 0 0 0 0 0 0 0 0 0 w v % x   ",
"  y % z 0 0 0 0 0 0 0 0 0 0 0 0 0 0 0 0 0 0 0 0 0 0 0 0 z % A   ",
"  B % C 0 0 0 0 0 0 0 0 0 0 0 0 0 0 0 0 0 0 0 0 0 0 0 0 C % D   ",
"  E % F 0 0 0 0 0 0 0 0 0 0 0 0 0 0 0 0 0 0 0 0 0 0 0 0 F % G   ",
"  H % I 0 0 J 0 0 0 0 0 0 0 0 0 0 0 0 0 0 0 0 0 0 J 0 0 I % K   ",
"  L % | 0 M N 0 O P Q R 0 0 0 0 0 0 0 0 R Q P O 0 N M 0 | % S   ",
"  T % U V W X 0 Y % % Z ` 0 0 0 0 0 0 ` Z % % Y 0 X W V U %  .  ",
"  ..+.% n @.#.w $.% % % e J 0 0 0 0 J e % % % $.w #.@.n % +.%.  ",
"  3 &.% *.=.0 k *.% % % % -.q 0 0 q -.% % % % *.k 0 =.*.% ;.]   ",
"  * >.% % | 0 0 ,.% % % % % '.0 0 '.% % % % % ,.0 0 | % % ).    ",
"  { !.@.% ~.0 0 {.% % % % % ].0 0 ].% % % % % {.0 0 ~.% @.!.    ",
"  = ^./.% (.0 0 0 _.:.% % <.w 0 0 w <.% % :._.0 0 0 (.% /./     ",
"  [.] }.% % |.0 0 0 1.2.3.9 #.4.F 0 9 3.2.1.0 0 0 |.% % 5./ ]   ",
"  3 6.7.% % 8.9.0.0 0 0 0 0 a.% % b.0 0 0 0 0 0.9.8.% % c.]     ",
"  3 / d.e.% % % f.g.0 0 0 9 h.% % 6 0 0 0 0 g.f.% % % i.j.l ]   ",
"  3 / k.l.m.n.% % % o.0 0 ` % p.h.q.0 0 0 o.% % % n.r.s.t./     ",
"  3 / / u.  v.w.x.% $.` 0 0 y.9 1.z.0 0 ` $.% $.A.B.C./ / / ]   ",
"  3 / / / D.& ] E.% % F.0 0 0 0 0 0 0 0 F.% % G.; / / / / ^.    ",
"  3 / / / / / H.I.% % '.0 0 0 0 0 0 0 0 '.% % J./ / / t.  K.    ",
"  3 / / / / / / / L.% M.0 0 0 0 0 0 0 0 M.% N./ / / O.] P./ ]   ",
"  3 / / / / / / / Q.% n.=.R.].S.S.].R.=.n.% Q./ / t.] T./ U.    ",
"  = V.V.V.V.V.V.V.W.X.% % % % % % % % % % X.W.V.Y.Z.`.V.V.V.]   ",
"                       +.+++@+#+#+@+$..+ +                      "};
