/* XPM */
static const char *Z2lhbGxv[] = {
/* columns rows colors chars-per-pixel */
"64 64 109 2 ",
"   c #332D1E",
".  c #2B2C2A",
"X  c #363020",
"o  c #3B3423",
"O  c #3F3826",
"+  c #353633",
"@  c #393A37",
"#  c #403825",
"$  c #4A3E20",
"%  c #4D4222",
"&  c #524524",
"*  c #544925",
"=  c #5C4C26",
"-  c #5E4F28",
";  c #5F5026",
":  c #5F5029",
">  c #41423F",
",  c #635327",
"<  c #6B5B26",
"1  c #655429",
"2  c #68562A",
"3  c #675A29",
"4  c #6C5A2B",
"5  c #715F27",
"6  c #715E2D",
"7  c #6F602C",
"8  c #726127",
"9  c #7C6B25",
"0  c #75622D",
"q  c #79652E",
"w  c #77682E",
"e  c #7D6B2B",
"r  c #7F712C",
"t  c #7A6530",
"y  c #7E6A32",
"u  c #434541",
"i  c #4A4C48",
"p  c #545651",
"a  c #565852",
"s  c #6D6F68",
"d  c #6F716B",
"f  c #72746E",
"g  c #747770",
"h  c #757872",
"j  c #806E24",
"k  c #816E2D",
"l  c #847226",
"z  c #84732D",
"x  c #89772F",
"c  c #8C7A2C",
"v  c #907F2D",
"b  c #806B34",
"n  c #856F38",
"m  c #867331",
"M  c #8A7633",
"N  c #877931",
"B  c #8C7B33",
"V  c #917E33",
"C  c #94812E",
"Z  c #9C8B2C",
"A  c #9F902E",
"S  c #978430",
"D  c #998632",
"F  c #9B8833",
"G  c #A49326",
"H  c #A1922E",
"J  c #AC9D2C",
"K  c #A49532",
"L  c #AC9D32",
"P  c #AFA12E",
"I  c #AFA02F",
"U  c #AFA92E",
"Y  c #B0A22F",
"T  c #AFA231",
"R  c #B1A331",
"E  c #B3A632",
"W  c #B3AF32",
"Q  c #CCBC3D",
"!  c #CCC43D",
"~  c #888569",
"^  c #8B896E",
"/  c #8D8B71",
"(  c #8F8D74",
")  c #918F78",
"_  c #91917A",
"`  c #93927C",
"'  c #94937D",
"]  c #969681",
"[  c #979885",
"{  c #979987",
"}  c #989986",
"|  c #979A8A",
" . c #989C8D",
".. c #999E93",
"X. c #B8B786",
"o. c #B5BD93",
"O. c #B7BD94",
"+. c #B9BC94",
"@. c #B7BE9C",
"#. c #B9BE9C",
"$. c #B7BFA0",
"%. c #B8BFA0",
"&. c #B7BFA8",
"*. c #B7C1A5",
"=. c #B8C0A3",
"-. c #B9C2A7",
";. c #B7C0AA",
":. c #B8C2AB",
">. c #B9C3AE",
/* pixels */
"..2 2 b b b b b b b b m m m m m m m m n b b b b b b b b b b >.>.>.>.b b b b b b b b b b b b b b b b b b b b b b b n n V B B >...",
"2 2 2 E E E E E E E D D D D D b b b b b b b m m n D D D b D D >.>.b Q Q Q Q b b b b b b b b b b b b b b b E m B E B B V b b 2 ..",
"2 E E E E E E E E D E E D L L T R E E E E E E E D D D R D D D >.b Q E E E E E E Q E E E E E E E E E E b E E R T E L B b b b 2 >.",
"2 E E E E E E E E E E E E D E E E E E E E E E E E D E E E D D >.b Q E E Q E E E E E E R Q R R T R E E E E E E B E T B B B b 2 >.",
"1 E E E E E D E E E E E D E D D F D E E E R T T R T T R D D D >.b E E E E E E E E E E E E E R R E R B R E E E E R R B B B b b :.",
"1 E R R T D D D E E D E D D D D R D D R R T R T T T L L D b D >.b E E E E B R T E E R E R R E T R E V R R B R R T T T T B y y :.",
"1 R S S S S S S S S D D D D D D D D D D D R T L T L b D D b D >.b E E B E B B E E B B E B E B B V L B B B B B B B B B B B L V $.",
"1 J S S I S S S S S S S S S y S S S S S D D D D D D b b b b b >.y R L T E B E B B B E B B B B B V V B B B B B B B B B B B M N %.",
"- C C C C C t C C y S S S y t y y S S S Y S S y S S y y y y y >.b L B E B B E B B B B B B B B B y y y B B B B B N N M M x M M { ",
"- v C C C C q q q q t C C C C t C t C C y y t S y y y y y y y :.b L B B B B B B B B B B R B N t t t M t x x M M x x J x z z z } ",
"= 0 c c v v C C q q q q C C C C q q q q t t t t t t t 1 t y y :.b K M t M t M M M M x x M M t 0 0 0 0 0 0 0 0 0 6 z z 6 z k * { ",
"= 0 c 0 0 c 0 0 0 0 0 0 0 v q q q q q q q q q q q q q - - q : -.y v x 0 0 0 x 0 0 0 z z z z 6 6 6 6 6 6 * 6 4 4 4 4 e 4 e 2 ( { ",
"= 0 0 0 c c 0 0 0 0 0 0 c 0 0 0 = = = 0 0 0 0 0 0 0 0 0 0 = - *.0 z z 6 z 6 6 6 6 6 6 k k 6 4 4 4 4 & & 2 & & 2 2 2 2 2 1 0 2 { ",
"= 0 0 c 0 0 0 0 0 0 = = = = = = = = = = = 0 0 0 0 0 q q q : 1 :.t q e k 4 e 6 4 4 4 2 2 2 2 2 & 2 & % % 1 % % , 1 , , , < 2 & | ",
"o.' 0 0 0 = = = - = = = = - - ] > u u u 1 1 1 # O 1 - - = = ] d ' t t q 0 6 6 4 2 2 2 4 4 4 4 4 * o o = = = o = 6 6 6 6 4 * = _ ",
"............>.>.>.;.;.>.>.>.>.................>.>.>.........h h h ..>.>.>.>...........>.>.>.>.>.>.>.>.>.>.>.>.>.>.>.>.>.@ @ ....",
"b b b b b 2 @ i ..b b b b b b b y b b b b b b b b b b b b E E E b b b V b b b ..b b E E b b b b E E E E b b b b b b b b E E b b ",
"E E E b b b b @ ..b b Q Q Q E E E E E E E E E E E E E E E E E E E E E V E V b ..b E E E E E b E E E E E E E b E E E E Q E E E E ",
"E E E E E b b b ..b E E E Q E E E E E E E E E E E Q E E E E E E E E E Q E V b ..b E E Q E E b E E E E E E E E E E E E Q Q E E E ",
"E E E E E E y b ..b E Q Q E E E Q Q E E V V E E E E E E E E E E E E E E Q E V h b E E Q Q E E E E F E E E E E E E E E E E E E E ",
"E D D D E E y b >.y E E E V E E E E E V V E E E E V V V V V V V V V E E E V b h b E E E E E Q E E E E F F E E E E E E E E E E E ",
"D D D D D E E y >.R R E B B E E E V V V V V V V V V V V V V V V V V V V V V V h b E E E E E E E E E E E E D E E E E R R E E R E ",
"S S S D D D R y :.R R R R R Y E E B B B B B B B B V b B B B B B B B B B B B B g y E E E E E E E D D D D D D T L L L L L T L T D ",
"C C C C C C I t :.I I I B I B Y B B B B c c B B c B B B B B B y B B Y R Y R B f y Y Y S S S S S S S S S S S J J S S S J J S S S ",
"C C C C C C C q *.0 J J c J c J c c c q q c q c q q q q q q t t c c c J c c t d y J C C C C C C C C C C C C C C C C C C C C 0 C ",
"v 6 v v c c v 0 *.0 x J J x x J z x x 0 x x x 0 x 0 0 0 x 0 0 0 x x x J x x 0 s S v v v v v v v v v J v v v v v v v v v v v 6 v ",
"c c c c c c 4 6 =.6 z z z z z z z z 0 0 0 z 0 0 0 0 0 0 0 6 6 6 z z z z z z 4 { b c c c c 4 c c c c c c c 4 c c c c 4 c c c 4 4 ",
"2 z z z z z 2 4 | e 4 4 4 4 4 4 4 4 4 e 4 4 4 e 4 4 4 4 4 4 4 4 2 2 e e 2 2 2 { q 2 2 2 2 2 2 2 2 2 2 z 2 2 z z z z z 2 2 2 2 2 ",
", l l l l l , , + e 2 2 2 % % % 2 2 2 2 2 2 2 2 2 < 2 9 9 9 , , , , , 9 , , , ] 6 , , , , , , , , , , , , , , , , , , l l l , , ",
"= j j j j 9 = , + . , $ $ , $ , , , $ , , , , 8 = = = = = = = = = = = = = $ $ ] 2 = = = = = = $ = $ $ = = = = = = = 9 = 9 = = = ",
"2 c c c 4 1 2 X.d . . %     , , % % ; 1 , 1 1 1 1 1 2 2 2 2 4 6 6 6 6 6 6 = #. . .t t y y 1 1 1 6 * % , % , 1 2 1 1 = = , , , ; ",
":...........h h h h ..........>.:.:.:.:.:.;.:.&.:.:.>.>.>.>.>.>.>.>.>.>.>.>.>.......>.>.>.>.h >.>.>.>.>.>.>.>.>.>.>.>.>.>.>.>.>.",
"b b b b b b b b b b b b b b b b b b b b b K b >.>.3 3 b b b b b b m m m b b b b b m m m b b b b m m m b b i h ....b b b b b b b ",
"E E E E Q Q Q Q Q E E E E E E E E b b K K K b b >.3 b b b b b b W W m m b b W b W W ! ! W W W W W W W b y 3 i ..b b E E b E E E ",
"E E E E E E E E E E E E E E E E E E E b K K b b >.b b W W W W W W W W W b W W W ! W W ! ! W W W W W W W W W 3 ..b E b E E E Q Q ",
"E E E E E E E E E E E E E E E E E b E b b K K b >.b W B W W W W W W W W W W W W W W W ! W ! W W B B B B W W 3 ..b b E E E E Q Q ",
"E E E E E E E E E E E E K K K E E b E E E E b b >.m W W W W W W W W W ! W W W W W W ! W W ! W W W W B B B W y ..b E E E E Q E E ",
"E K E E E E E K E E K K K K K E E E E E E E K b >.m W B W W B B W W W W W W W W W W W W W W W W W B B B m m y ..b E E E Q E E K ",
"K E E K E K K K K K K K K K K E E E E E E E K b i m W W B B B W W W W W W W B B W B B B B B W W W B B B y y y ..y E E E Q R E E ",
"K K K E K E K K K M K K K K K K K K K K K E K @ @ B W B W W W B B B B W W B B B B B B B B N N N N W W N N y y ..y R R R R Y H H ",
"M K K K K K K M K K M M M K K K K K K K K K K i h B W W B B B B B B W B W N N N N N y N N N N N N N N N N y t ..t I I J m m m A ",
"M M K K K K M M M K M K K K M K K K K K K K K b h B B W W N N N N N N N N N N N N N y N y t N N N U N N N N t :.t t J H z J z J ",
"m m M M K M M M M M M m M M K M M M K K K K K b g N N N N N N N N N N N N N N N N N t N t N N m m N m U x x t *.0 q J z z k k k ",
"z m m m m m M M y y b b b M M K M K M M K K K y f t N N N N N N m m N N N N U z w w x w q q w q z z z z z q q -.6 J J k e 6 e e ",
"k k k z k z J m t t t t t m m m m A m m m m Z t d w w z z z U z z z z z z z I z 0 z z 0 0 r 0 r r r r r r 0 = =.o.J 6 e 6 4 e e ",
"e e e e e e e e 6 = = 6 6 6 6 6 k k 6 k e q 0 * ' 0 0 0 0 7 0 0 7 7 7 7 7 7 7 4 4 4 7 7 * 4 4 e 4 4 4 4 4 * * | 2 G 2 2 2 2 0 0 ",
"5 5 8 8 8 8 8 2 & & & 2 2 2 2 4 4 4 4 2 4 4 & 2 ( * * 2 2 2 w 2 2 2 3 3 3 3 3 3 3 3 3 3 % % 3 3 3 3 3 3 %   ( | 1 1 1 1 % 1 8 8 ",
"= = < = = = = p p a a       % % % % % % % % % ~ ~ ~ % % % % % % % % % % % % % % % ~ ~ ~ ~ ~ % , , , , ,     / | ^ , , % $ , , , ",
"-.*.=.$.$.| { { } ] _ _ ' ] { { { @.@.@.=.$.@.{ @.@.@.$.=.*.>.>.>.>.:.:.:.:.:.:.:... .| | { { { d *.f :.:... ... . ...:. .*.:.:.",
"b b b b b b 2 2 b E E E E E E b >.2 2 b b b b b b b b b b b b b b b b b b b b b b b b b b b b h h h @ 2 b b b b b b b b b b b b ",
"K K K K K K b E E E E E E E E b >.2 2 b E b E E E E E E E E E b E E E E E E E E E M b M M M b h h @ 2 b b b b b E E E E E E y K ",
"K K K K E K E K E E E E Q E E b >.2 b E E E E E E E E E E E E E E E E E E E E E E E E E M M M h h b b E E E E E E E E K E E R R ",
"E E E E K E E E E E K E E E E b >.2 b E E E M Q E E M E E E E E E E E E E E M E M E E E E E M h >.b E E E E Q E K E E R Y Y Y Y ",
"E E E K E K E E E K E K E E E b ..b b b E E M E E M E E E E E E E E E E E M M M M E E E E E M ....y E E E E R K R R H H H J Z I ",
"E E E K E K K K E K E K K K E ....b b b M E M E M M M M M M M M M M M M M E M E M E E E E E y y ..y R R R R Y Y H H A A Z Z Z J ",
"E E E K K K M M M K K K K K E b ..b b E M M M E E M E M M M M M M M M M M E M M M M E M E E R y  .t Y Y I H I A Z Z Z Z Z J J Z ",
"E M K K M M K K M K K K K K K y g y y M M M M M M M M M M M M M M M M M M M E R E M M m m Y I t | t J J J J Z Z Z k k Z J Z J J ",
"M M M M K M M M M M K K K K K y f y M M M M M M M t M y M M M m m m m m M m m m m m m z z J J 0 ] 0 k k k Z e e Z e Z Z e J J J ",
"m m m m m m m m A A A m A A A t d t m m m m m t t t t t t J m m z z 0 k 0 z z k k k k k e J J = ` 6 e e C e e e e e e w w w w w ",
"z 0 z z z z z z Z Z Z Z Z Z 0 0 ] = z z z z z 0 k 0 0 0 6 6 6 6 6 6 e 6 e e 6 e e e e e e G 4 & ( 2 0 8 8 0 2 0 0 0 0 0 2 0 0 0 ",
"6 6 e e J e e e e e Z Z 6 6 6 6 ' = 6 e e 6 6 6 6 6 4 4 4 4 4 4 4 4 4 2 2 0 0 8 2 8 0 8 1 1 1 1 ^ 1 % 1 1 1 8 8 G 8 8 1 1 1 1 1 ",
"* 4 4 4 4 4 4 e C C 4 4 Z 4 4 4 ) * * 4 4 4 2 2 2 2 2 2 & 2 2 2 1 1 1 1 1 1 1 8 5 , , , , % $ a ~ $ , , , , < , , , , , , $ $ $ ",
"& & & & & & & & X X X & & & & / / / & % 2 , 1 1 1 , , % , , , , , , $   $ $ , = = = = $ $ $ $ p p $ % % % % % % % % % % $ $ $ $ ",
"=.=.$.@.#.O.O.O.O.O.O.O.O.O.O.O.#.@.@.@.@.@.@.@.@.@.@.@.@.@.@.@.@.@.@.@.@.%.@.@.@.+.+.+.+.+.+.#.@.@.#.#.#.#.#.#.+.+.+.#.@.@.#.+."
};
