/* XPM */
static const char *dmlvbGE_[] = {
/* columns rows colors chars-per-pixel */
"64 64 97 2 ",
"   c #241C2A",
".  c #252424",
"X  c #2F2D2E",
"o  c #2C2233",
"O  c #33223D",
"+  c #333132",
"@  c #3E3B3D",
"#  c #403D3F",
"$  c #352441",
"%  c #392645",
"&  c #3B2748",
"*  c #3E294B",
"=  c #402A4F",
"-  c #442C54",
";  c #492D57",
":  c #472E58",
">  c #492F5A",
",  c #473057",
"<  c #4B305C",
"1  c #50325F",
"2  c #4F2E61",
"3  c #522E64",
"4  c #572E6B",
"5  c #582F6C",
"6  c #4E3361",
"7  c #523465",
"8  c #553669",
"9  c #5B356D",
"0  c #56386A",
"q  c #5A3C6F",
"w  c #5E3472",
"e  c #5E3A72",
"r  c #60376F",
"t  c #603773",
"y  c #633B76",
"u  c #643678",
"i  c #653C79",
"p  c #693C7C",
"a  c #464345",
"s  c #4F4C4F",
"d  c #504D4F",
"f  c #524E51",
"g  c #604074",
"h  c #6A666A",
"j  c #6D696D",
"k  c #706C6F",
"l  c #736F71",
"z  c #6C3680",
"x  c #6E3D82",
"c  c #713E85",
"v  c #76368B",
"b  c #763D89",
"n  c #793E8C",
"m  c #7D3C92",
"M  c #7F3F94",
"N  c #7A408D",
"B  c #7C6B81",
"V  c #7F7083",
"C  c #803E93",
"Z  c #803D94",
"A  c #823E95",
"S  c #823F96",
"D  c #883F96",
"F  c #804193",
"G  c #814294",
"H  c #844196",
"J  c #844298",
"K  c #87439A",
"L  c #8D439A",
"P  c #827285",
"I  c #837587",
"U  c #87798A",
"Y  c #887A8A",
"T  c #8B7D8D",
"R  c #994FAF",
"E  c #9A51B0",
"W  c #A051B0",
"Q  c #8E818F",
"!  c #8F8390",
"~  c #938793",
"^  c #938993",
"/  c #958B94",
"(  c #988F96",
")  c #999297",
"_  c #A88CAD",
"`  c #B397B0",
"'  c #B49BB4",
"]  c #B7A0B5",
"[  c #B8A3B5",
"{  c #B8A5B5",
"}  c #BBAAB7",
"|  c #BAACB6",
" . c #BCAEB7",
".. c #BBAAB8",
"X. c #BCABB8",
"o. c #BCADB8",
"O. c #BDAFB8",
/* pixels */
") , , q q q q q q q q e e e e e e e e e e e e q q q q q q q O.O.O.O.q q q q q q q q q q q q q q q q q q q q e e e g g g g p O.) ",
", , , K K K K K K K c c c c c e e e e e e e y e e c c c e x x  .O.q E E E E q q q q q q q q q q q q q q q K e p K p g g q q , ) ",
", K K K K K K K K c K K c G G G H K K K K K K K c c N H c c x O.q E K K K K K K E K K K K K K K K K K e K K H H K F p q q e , O.",
", K K K K K K K K K K K K c K K K K K K K K K K K c K K K c c O.q E K K E K K K K K K H E H H H K H K K K K K p K H p p p q , O.",
": K K K K K c K K K K K c K c c N N H K G H H H H H H H c c c O.q K K K K K K K K K K K K K H H K G p H K K K K H G p p p q q ..",
": K K K H x x x K K x K x x x x K N x H H H G G G G G G N e N O.q K K K K p K H K K H K H H K H H K p K H p K G G H G H p 0 0  .",
": H x x x x x x x x x x x x x x x x x x x H G G G G e c x q c O.q K K p H p p K K p p K p K p p p G p p p p p p p p p p p G p { ",
"- M x x S x x x x x x x x x 0 x x x x x x x x x c c 0 0 0 0 e O.0 H G G K p K p p p K p p p p p p p p p p p p p p p p p p p i ] ",
"- p p p p p 8 x x 0 x x x 0 0 0 0 x x x H x x 0 x x 0 0 0 0 0 O.0 G p K p p K p p p p p p p p p q 0 0 p p p p p u u y y y y y ~ ",
"= p p p p p 8 8 8 8 8 p p p p 8 p 8 x x 0 0 0 x 0 0 0 0 0 0 0  .e m p p p p p p p p p p K p u 0 0 0 y 0 y y y y y y M w w w e ~ ",
"* 7 p p p p p p 7 7 8 8 p p p p 8 8 8 8 8 8 8 8 8 8 8 - 0 0 0  .e n y 0 y 0 y y y y y y y y 8 7 7 7 7 7 7 7 7 7 6 w w 6 9 9 * ~ ",
"* 7 u 7 7 u 7 7 7 7 7 7 7 p 8 8 8 8 7 7 8 8 8 8 8 8 8 - - 8 - } 0 p y 7 7 7 y 7 7 7 w w w w 7 7 6 6 6 6 * 6 < < < < 9 < 9 > I ~ ",
"* 7 7 7 u u 7 7 7 7 7 7 u 7 7 7 * * * 7 7 7 7 7 7 7 7 7 7 = = } 7 w w 7 w 6 6 6 6 6 < 9 9 6 < < < < % % > % % > > : > > : 3 > ~ ",
"* 7 7 u 7 7 7 7 7 7 * * * * * * * * * * * 7 7 7 7 7 7 8 8 - - O.0 7 8 9 < 9 6 < < < > > > > > $ > $ $ $ : $ $ : : : : : > : $ ^ ",
"` T 7 7 7 * * * = * * * = = = Q @ @ @ # - - : o o - - - = * Q h T 0 0 7 7 7 6 < > , , < < < < < * o o * * * o * 6 6 6 6 < & = Y ",
") ) ) ) ) ) O.O.O.| | O.O.O.O.) ) ) ) ) ) ) ) O.O.O.) ) ) ) l l l ) O. .O.O.) ) ) ) ) O.O.O.O.O.O.O.O.O.O.O.O.O.O.O.O.O.+ + ) ) ",
"q q q q q , + a ) q q q q q q q q q q q q q q q q q q q q K K K e q q p q q q ) q q K K q q q q K K K K q q q q q q q q K K q q ",
"K K K q q q q + ) q q E E E K K K K K K K K K K K K K K K K K K K K K p K p q ) q K K K K K q K K K K K K K q K K K K E K K K K ",
"K K K K K q q e ) q K K K E K K K K K K K K K K K E K K K K K K K K K E K p q ) q K K E K K q K K K K K K K K K K K K E E K K K ",
"K K K K K K 0 e ) q K E E K K K E E K K p p K K K K K K K K K K K K K K E K p l q K K E E K K K K c K K K K K K K K K K K K K K ",
"K x x c K K 0 0 O.0 K K K p K K K K K p p K K K K p p p p p p p p p K K K p q l q K K K K K E K K K K c c K K K K K K K K K K K ",
"x x x x x K K 0 O.K K K p p K K K p p p p p p p p p p p p p p p p p p p p p p l q K K K K K K K K K K K K c K H H K K K K K K K ",
"x x x x x x K 0  .K K K K K K K K p p p p p p p p p e p p p p p p p p p p p p l 0 K K K K K K K x x x x x x G F G G G G G G S x ",
"x x x x x x S 0 X.S S S u S u H u u u u p p p p u u p p p u u 0 u u H H H H u j 0 H G x x x x x x x x x x x m m x x x S m x x x ",
"p p p p p p p 8 } 7 S m y S y S y y y 8 8 y 8 y 8 8 0 0 8 8 8 8 y y y S y y 8 j 0 C x p p p p p p p p p p p p p p p p p p p 7 z ",
"p 7 p p u u p 7 { 7 t m m t t m t t t 7 t w w 7 t 7 7 7 t 7 7 7 t t t m t t 7 h x p p p p p p p p p m p p p p p p p p p p p 7 p ",
"u u u u u u < 7 { 6 9 9 9 9 9 9 9 9 6 6 6 9 6 6 7 6 6 6 6 6 6 6 9 9 9 9 9 9 < ~ 0 u u u u < u u u u u u u 6 u u u u < u u u < 6 ",
"> w w w w w > > ^ 9 > > > > > > > > > 9 > > > 9 < < < < > > > > > > 9 9 > > > ! 8 > > > > > > > > > > w > > w w w w w > > > > > ",
": w w w w w : : X 8 : : : $ $ $ : : : : : : : : : > : 3 3 3 : : : : : 3 : : : Q 6 - - - : : : : : : : : - - - - : : : 9 w w : : ",
"- 5 5 5 4 4 - - X . - O O - O - - - O - - - - 3 - - = * = - = - = = = = = O O T > = = = = = = O = O O = = - = = = = 4 = 4 = = = ",
", t u u < > : _ j . . O     - - O O - : : : : : : > > > > , < 7 6 6 6 6 6 = ' / / 0 0 0 0 : : - 7 & $ - O - : , : : - - - - - - ",
"O.) ) ) ) ) l l l l ) ) ) ) ) O.O.O.O.O.| | } } ..O.O.O.O.O.O.O.O.O.O.O.O.O.O.) ) ) O.O. . .l O.O.O.O.O.O.O.O.O. .O. .O.O.O. .| ",
"q q q 0 q q q q q q q q q q q q q q q q q N q O.O., , q q q q q q q q q q q q q q q q q q q q q q q q q q a l ) ) q q q q q q q ",
"K K K K E E E E E K K K K K K K K q q N N N q q O., q q q q q q L L q q q q L q L L W W L L L L L L L q q < a ) q q K K q K K K ",
"K K K K K K K K K K K K K K K K K K K q N N q q O.q q L L L L L L L L L q L L L W L L W W L L L L L L L L L < ) q K q K K K E E ",
"K K K K K K K K K K K K K K K K K q K q q N N q O.q L p L L L L L L L L L L L L L L L W L W L L i i i i L L < ) q q K K K K E E ",
"K K K K K K K K K K K K N N N K K q K K K K q q O.q L L L L L L L L L W L L L L L L W L L W L L L L i i p L q ) q K K K K E K K ",
"K N K K K K K N K K N N N N N K K K K K K K N q O.q L p L L p p L L L L L L L L L L L L L L L L L i i i q q q ) q K K K E K K n ",
"N K K N K N N N N N N N N N N K K K K K K K N q a q L L p p p L L L L L L L p p L i p p p p L L L p p i q q q ) 0 K K K R K K K ",
"N N N K N K N N N p N N N N N N N N N N N K N + + p L p L L L i p p p L L p p p i i p p p i i i i L L i i q q ) 0 K H K H H b b ",
"y n N N N n n p N N i p p N N N N N N N N N N a l i L L i i i p p p L i L i i i i i q i i i y y y y y y y 0 0 ) 0 S S m e e e b ",
"y y n n N n p p p N p N N N y N N N N N N N N q l i i L L i i i i i i i i i y y y y 0 y 0 0 y y y D y y y y 0 X.8 8 S b w S e S ",
"y y y y n y p p p p p y y y N p p p N N N n n 0 l i i i i i y y y y y y y y y y y y 0 y 8 y y y t t t S t t 8 } 7 7 m w 9 9 9 9 ",
"e e e e e y y y 0 0 0 e 0 y y b y n y y b b b 0 j 0 y y y y y y y y y t t t D t 8 8 t 8 8 8 8 8 r r r 9 9 8 8 { 7 m m 9 9 6 9 9 ",
"9 9 9 9 e e S e 8 8 0 0 0 y e e e b e e e e b 8 h 8 8 t t t S r r r r r 9 9 S r 7 9 9 7 7 9 7 9 9 9 8 8 8 7 = { ` m 6 8 6 < 8 8 ",
"7 7 8 8 8 8 8 8 6 * * 6 7 7 7 7 9 9 7 9 9 8 7 * T 7 7 7 7 1 7 7 1 1 1 < 1 1 < < > < < < & < < 7 < > > > > % * ^ > v > > > > 7 7 ",
"2 2 2 2 3 7 7 > $ % % > > > > < < < < > > > % > I % % > > > 7 > > > ; ; > > > > > ; ; ; % $ ; ; ; ; ; ; $   P ^ : : : : $ : 3 3 ",
"= * > * * = - f d f f       O O $ $ $ $ $ $ O B B B O O O O O $ $ O O O O O O O O B B B l l O - - - - -     P ^ V : - O O - - - ",
"{ { { [ [ ^ ~ ~ ~ Q Y U T Q ~ ~ ~ ] ] [ [ [ ] ~ ] ] ] [ { { O.O.O.O.O. .X.X. .O.O.( / ^ ^ ~ ~ ~ h { k  .O.( / ) / / ( O./ } X.X.",
"q q q q q q , , q K K K K K K q O., , q q q q q q q q q q q q q q q q q q q q q q q q q q q q l l l + , q q q q q 0 q q q q q q ",
"N N N N N N q K K K K K K K K q O., , q K q K K K K K K K K K q K K K K K K K K K i q p p p q l l + , q q q q q K K K K K K 0 n ",
"N N N N K N K N K K K K E K K q O., q K K K K K K K K K K K K K K K K K K K K K K K K K p p p l l q q K K K K K K K K n K K K K ",
"K K K K N K K K K K N K K K K q  ., q K K K p E K K y K K K K K K K K K K K p K p K K K K K p l O.q K K K K E K n K K K K K S S ",
"K K K N K N K K K N K N K K K q ) q q q K K p K K i K K K K K K K K K K K p p p p K K K K K p ) ) 0 K K K K K n K K b b b S b S ",
"K K K N K N N N K N K N N N K ) ) q q q p K p K i i p p p i i i p p y y i K p K y K K K K K 0 0 ( 0 K K K K H H b b b b b b b S ",
"K K K N N N p p p N N N N N K q ) q q K p p p K K p K p p i i i p p y y i K p p i i K y K K K 0 / 0 H H S b S b b b b c c S m c ",
"K y n n y y n n i n n n n n n 0 l 0 0 y y y y y y y y y y y y y y y y y y y K K K y y y y H S 0 ^ 8 S S S S c c c 9 9 c m c m m ",
"y y y y b y y y y y b b b b b 0 j 0 y y y y y y y 0 y 0 y y y y y y y y y y e e e e e e e S S 7 ! 7 9 9 9 c 9 9 z 9 z z 9 n m n ",
"e e e e e e e e b b b e b b b 8 j 8 e e e e e 8 8 8 8 8 8 S e e e e 7 e 7 9 9 9 9 9 9 9 9 m m & T 6 8 8 z 8 8 8 8 7 7 7 7 7 7 7 ",
"9 7 9 9 9 9 9 9 c c c c c c 7 7 ! = 9 9 9 9 9 7 9 7 7 7 7 7 7 7 6 6 8 < 8 8 < 8 8 8 7 7 7 v < % I > 7 7 7 7 > 7 3 3 3 3 > 7 7 7 ",
"6 6 9 9 m 9 9 9 9 9 x x 6 6 6 6 T * 6 8 8 6 6 6 6 6 < < < < < < < < < > > 7 7 7 > 7 3 3 : : : : B : $ : : : 2 2 v 2 2 : : : : : ",
"& < < < < < < 8 z z < < z < < < U & % < < < > > > > > > % > > : : : : : : : : 2 2 : - - - O O f B O - - - - > - - - - - - O O O ",
"% % % % % % % %       % % % % P P P $ $ : : : : : : : $ : : - - - - O   O O - - - = = O O O O s s O $ $ $ $ $ $ $ $ $ $ O O O O ",
"{ { [ ] ' ' ` ` ` ` ` ` ` ` ` ' ' ' ' ' ] [ ] [ [ ] ] ] ] ] ] ' ' ' ' ' ] [ [ [ ] ' ` ` ` ` ` ' ' ] ' ' ' ' ' ' ' ' ' ' ] ] ' ' "
};
