/* XPM */
static const char *YXp6dXJybw__[] = {
/* columns rows colors chars-per-pixel */
"64 64 116 2 ",
"   c #172C2D",
".  c #182D2E",
"X  c #1B3333",
"o  c #1F3C3C",
"O  c #242426",
"+  c #2C2D30",
"@  c #303134",
"#  c #3A3B3E",
"$  c #3C3D40",
"%  c #194445",
"&  c #1A4549",
"*  c #1B4B4B",
"=  c #1E4E52",
"-  c #1F5454",
";  c #1E5B5B",
":  c #205657",
">  c #215B5B",
",  c #1F615F",
"<  c #20605E",
"1  c #215E63",
"2  c #1F6262",
"3  c #1D6468",
"4  c #1E6A6F",
"5  c #1E6C72",
"6  c #1C747D",
"7  c #226464",
"8  c #23656A",
"9  c #236B6B",
"0  c #236E72",
"q  c #257374",
"w  c #287677",
"e  c #24747B",
"r  c #29767A",
"t  c #25797E",
"y  c #2C7D7E",
"u  c #414246",
"i  c #4A4C4F",
"p  c #4C4E52",
"a  c #64666A",
"s  c #66686D",
"d  c #696B6F",
"f  c #6D6E73",
"g  c #1E7A84",
"h  c #247681",
"j  c #267C83",
"k  c #297C84",
"l  c #267F88",
"z  c #2B7C89",
"x  c #627F85",
"c  c #1F8697",
"v  c #298186",
"b  c #24818C",
"n  c #2A848C",
"m  c #308183",
"M  c #258692",
"N  c #2A8590",
"B  c #278995",
"V  c #288A97",
"C  c #218799",
"Z  c #248B9D",
"A  c #2A8C99",
"S  c #1B8FA3",
"D  c #1E92A7",
"F  c #1F93AA",
"G  c #268EA1",
"H  c #228EAE",
"J  c #2792A4",
"K  c #2991A4",
"L  c #2395AD",
"P  c #2695AD",
"I  c #2896AB",
"U  c #2896AC",
"Y  c #2798AF",
"T  c #2898AF",
"R  c #258FB0",
"E  c #2797B0",
"W  c #2790B4",
"Q  c #2897B0",
"!  c #2598B1",
"~  c #2699B3",
"^  c #279AB4",
"/  c #2899B3",
"(  c #289AB3",
")  c #299BB4",
"_  c #658086",
"`  c #678188",
"'  c #6C848A",
"]  c #6F868C",
"[  c #74878E",
"{  c #73888F",
"}  c #778A91",
"|  c #7B8B92",
" . c #7C8B92",
".. c #7F8C94",
"X. c #34A8CC",
"o. c #34B2CC",
"O. c #828E95",
"+. c #858E95",
"@. c #859097",
"#. c #889097",
"$. c #8F939B",
"%. c #81A9B7",
"&. c #8DA5BB",
"*. c #8EAABA",
"=. c #94ABBC",
"-. c #9AABBD",
";. c #9BABBD",
":. c #9FACBD",
">. c #A3ADBE",
",. c #A2ACBF",
"<. c #AAAFBF",
"1. c #A5B0BF",
"2. c #AAB0BF",
"3. c #A4AEC0",
"4. c #A7AEC0",
"5. c #A7B0C0",
/* pixels */
"$.7 7 y y y y y y y y k k k v v v v k k k y y y y y y y y y <.<.<.<.y y y y y y y y y y y y y y y y y y y y y y k m v n n n 5.$.",
"7 7 7 ^ ( ( ^ ^ ^ ( A A A A A k k k k k k k v v k A A A y A A <.<.y o.o.o.o.y y y y y y y y y y y y y y y ( v n ( n n n y y 7 $.",
"7 ^ ^ ^ ^ ^ ^ ^ ^ A ^ ^ A U U U ( ( ( ( ( ^ ^ ( A A A ( A A A <.y o.^ ^ ^ ^ ^ ^ o.^ ^ ( ^ ( ^ ( ^ ^ ) y ( ^ ( Q ( I n y y y 7 5.",
"7 ^ ^ ^ ^ ^ ^ ^ ^ ^ ^ ^ ^ A ( ^ ( ( ( ( ( ( ( ( ( A ( ^ ( A A <.y o.^ ^ o.^ ^ ^ ^ ^ ( ( o.( Q U ( Q ( ^ ^ ( ( n ( U n n n y 7 2.",
"7 ~ ~ ~ ~ ~ A ^ ^ ^ ^ ^ A ^ A A A A ( ( ( ( ( ( ( ( ( ( A A A <.y ^ ^ ^ ^ ^ ^ ^ ( ^ ^ ^ ( ( ( ( ( ( n ( ( ( ( ( ( ( n n n y y 1.",
"7 ~ ~ ~ E V V V ~ ~ A ~ A A A A ( V A ( ( Q ( U U U U U A k A <.y ^ ^ ^ ^ n ( Q ( ^ ( ( ( ( ^ ( ( ( n ( ( n ( ( ( Q ( Q n y y 4.",
"> ~ V V V V V V V V V V V V V V V V A A A ~ ~ P P P y A A y A <.y ^ ( n ( n n ^ ^ n n ^ n ^ n n n U n n n n n n n n n n n ~ n :.",
"> P B B ~ B B B B B B V V V y V V V V V V V V V V V y y y y y <.y ~ T P ^ n ^ n n n ^ n n n n n n n n n n n n n n n n v v v v ;.",
"> M M M M M r B B r B B B r r r r B B B ~ V V y V V y y y y y <.y Y n ~ n n ^ n n n n n n n n n y y y n n n v v v v v v l j k O.",
"> M M M M M w w w w r M M M M r M r B B r r r B r r r r r y y 4.k J v v v v n n v n n n ~ v v r r r v r l l v j j j L j j j j O.",
": q M M M M M M w w w w M M M M w w w w r r r r r r r > w r r 4.k J v r v r v v v v l l j j w w w q q q q q q q q j j 9 h h - O.",
"- q b q q b q w w w q q q M w w w w w w w w w w w w w > > w > 4.y M j w w w j q q q j j j j q q 0 9 9 9 - 9 9 9 9 9 e 9 e 9 ] ..",
"- q q q b b q q q q q q b q q q - : : q q q q q q q q q q : > >.q j j q j 9 9 9 9 9 9 h t 9 9 9 9 9 * * 8 * * 8 8 8 8 8 7 0 8 O.",
"- 0 0 b 0 0 0 0 0 0 - - - - - - - - - - - 0 0 0 q q w w w > > 4.r w e e 9 e 9 9 9 9 8 8 8 8 8 & 8 & & & 7 & & 7 7 2 , 2 2 2 & +.",
"&.} q q q : : : > : : : > > > | # # # $ > > > o o > > > > : | a | w w q q q 9 9 8 9 9 9 9 9 9 9 - X X - : : o - 9 9 9 9 9 - > [ ",
"$.$.$.$.$.$.<.<.<.>.>.<.<.<.<.$.$.$.$.$.$.$.$.<.<.<.$.$.$.$.f f f $.<.<.<.<.$.$.$.$.$.<.<.<.<.<.<.<.2.2.2.2.2.2.<.<.<.<.@ @ $.$.",
"y y y y y 7 @ u $.y y y y y y y y y y y y y y y y y y y y ^ ^ ^ y y y N y y y $.y y ^ ^ y y y y ^ ^ ^ ^ y y y y y y y y ^ ^ y y ",
"^ ^ ^ y y y y @ $.y y o.o.o.^ ^ ^ ^ ^ ^ ^ ^ ^ ^ ^ ^ ^ ^ ^ ^ ^ ^ ^ ^ ^ N ^ N y $.y ^ ^ ^ ^ ^ y ^ ^ ^ ^ ^ ^ ^ y ^ ^ ^ ^ o.^ ^ ^ ^ ",
"^ ^ ^ ^ ^ y y y $.y ^ ^ ^ o.^ ^ ^ ^ ^ ^ ^ ^ ^ ^ ^ o.^ ^ ^ ^ ^ ^ ^ ^ ^ o.^ N y $.y ^ ^ o.^ ^ y ^ ^ ^ ^ ^ ^ ^ ^ ^ ^ ^ ^ o.o.^ ^ ^ ",
"~ ~ ~ ^ ^ ^ y y $.y ^ o.o.^ ^ ^ o.o.^ ^ N N ^ ^ ^ ^ ^ ^ ^ ^ ^ ^ ^ ^ ^ ^ o.^ N f y ^ ^ o.o.^ ^ ^ ^ A ^ ^ ^ ^ ^ ^ ^ ^ ^ ^ ^ ^ ^ ^ ",
"~ A A A ~ ~ y y <.y ~ ~ ~ n ~ ^ ^ ^ ^ n n ( ^ ( ( N N N N N N N N N ^ ^ ^ N y f y ^ ^ ^ ^ ^ o.^ ^ ^ ^ A A ^ ^ ^ ^ ^ ^ ^ ~ ^ ~ ~ ",
"V V V A V ~ ~ y <.~ ~ ~ n n ~ ~ ~ n n n n n N N n n N n n n n n n N N N N N N f y ^ ^ ^ ^ ^ ^ ^ ^ ^ ~ ~ ~ A ~ E E ~ ~ ~ ~ ~ ~ ~ ",
"B B B V V V ~ y 4.~ ~ ~ ~ ~ ~ ~ ~ n n n n n n n n n k n n n n n n n n n n n n f y ~ ~ ~ ~ ~ ~ ~ A A A A A A P L P P P P P P P V ",
"B B B B B B ~ r 4.~ ~ ~ b ~ b ~ b b b b b b b b n b b b b b b y b b ~ ~ ~ ~ b d y ~ ~ B B B B B B B B B B B J J B B B P L B B B ",
"M M M M M M M r >.q L L l L l L l l l w w l w l w w w w w w r r l l l L l l w s y P B M M M M M M M M M M M M M M M M M M M w M ",
"M q M M b b M w >.q j L L j j L j j j w j j j w j w w w j w w w j j j L j j q a B M M M M b b b M M L M M b M M M b M M M M q M ",
"b b b b b b 9 q ;.9 h h h h h h h h 0 0 0 h 0 0 0 0 0 0 0 9 9 9 h h h h h h 9 O.t b b b b 9 b b b b b b b 9 b b b b 9 b b b 9 9 ",
"8 g g g g g 8 9 +.e 9 9 9 9 9 9 9 9 9 e 9 9 9 e 9 9 9 9 9 9 9 9 8 8 e e 8 8 8  .q 8 8 8 8 8 8 8 8 8 8 g 8 8 g g g g g 8 8 8 8 8 ",
"7 g g g g g 2 2 + 6 8 8 8 & & & 2 2 2 2 2 2 2 2 2 3 8 5 5 5 2 2 2 2 2 5 2 2 7  .9 2 2 2 2 2 ; 2 7 2 2 2 2 2 2 2 2 2 2 g g g 2 2 ",
"; 6 6 6 6 6 ; ; + O ; % % ; % ; ; ; % ; ; ; ; 5 ; ; ; ; ; ; ; ; ; ; ; ; ; % % | 8 ; ; ; ; ; ; % ; % % ; ; ; ; ; ; ; 6 ; 6 ; ; ; ",
"8 l b b 9 8 8 %.s O O %     , , % % ; ; < 7 7 7 7 7 8 8 8 8 9 q 9 9 9 9 9 > =.#.#.w r r r 7 7 > q - & ; % ; 7 8 7 > ; ; ; ; ; ; ",
"4.$.$.$.$.$.f f f f $.$.$.$.$.5.<.4.1.5.>.>.1.>.1.1.2.2.<.<.<.<.<.<.<.<.<.<.<.$.$.$.<.<.<.<.f <.<.<.<.<.<.<.<.<.<.<.<.<.<.<.<.<.",
"y y y y y y y y y y y y y y y y y y y y y K y <.<.1 1 y y y y y y y y y y y y y y y y y y y y y y y y y y u f $.$.y y y y y y y ",
"^ ^ ^ ^ o.o.o.o.o.^ ^ ^ ^ ^ ^ ^ ^ y y K K K y y <.1 y y y y y y W R y y y y W y R R X.X.W W W W W W W y y 1 u $.y y ^ ( y ^ ^ ^ ",
"^ ^ ^ ~ ^ ^ ^ ^ ^ ^ ^ ^ ^ ^ ^ ^ ^ ^ ^ y K K y y <.y y W W W W W R R R R y W W W X.R R X.X.R R R W W W W W R 1 $.y ^ y ^ ^ ^ o.o.",
"^ ^ ^ ~ ^ ^ ^ ^ ^ ^ ^ ^ ^ ^ ^ ^ ^ y ^ y y K K y <.y W z W W W W R R R R W W W W R R R X.R X.R R z z z z W R 1 $.y y ^ ^ ^ ^ o.o.",
"^ ^ ^ ^ ^ ^ ^ ^ ^ ^ ^ ^ K K K ^ ^ y ^ ^ ^ ^ y y <.y W R R R W W R R W X.W W W W W W X.W R X.R W R R z z z R y $.y ^ ^ ^ ^ o.^ ^ ",
"^ K ^ ^ ^ ^ ^ K ^ ^ K K K K K ^ ^ ^ ^ ^ ^ ^ K y <.y R z W R z z R R W W W W W W W W W W R R W W R z z z y y y $.y ^ ^ ^ o.~ ~ K ",
"K ^ ^ K ^ K K K K K K K K K K ^ ^ ^ ^ ^ ^ ^ K y u y R R z z z W R W W W W W z z W z z z z z W W R z z z y r y $.y ~ ~ ~ o.~ ~ ~ ",
"K K K ^ K ^ K K K n K K K K K K K K K K K ^ K @ @ z W z W W W z z z z W W z z z z z z z z z z z z R R z z r r $.r ~ ~ ~ ~ ~ G G ",
"v K K K K K K n K K n n n K K K K K K K K K K u f z W W z z z z z z W z W z z z z z r z z z k k k k k k k r r $.r ~ ~ P j j j Z ",
"v v K K K K n n n K n K K K n K K K K K K K K y f z z W W z z z z z z z z z k k k k r k r r k k k R k k h h r 4.w r P G j L j L ",
"k v v v K v v n n n n v n n K n n n K K K K K y f z z z z z z z z k k k k k k k k k r k r h h j h h h H h h r 4.w w L j t t t t ",
"j j j k k v v v y y y y k v v G v G v v G G G r s r k k k k k k j j h h h h H h 0 0 h 0 0 0 0 0 e e e e e 0 0 4.q L L t t 9 e e ",
"t t t t j j L j w w w w r k k k j Z j j j j Z w a 0 0 h h h H e e e e e e e H e 0 e e 0 0 e 0 e e e e e e 9 : ;.&.F 9 e 9 9 e e ",
"e e e e e e e e 9 - - 9 q q q q t t 0 t t q 0 - } 9 9 9 9 8 8 8 8 8 8 8 8 8 8 8 8 8 8 8 * 8 8 0 8 8 8 8 8 * = O.8 D 8 8 8 8 e e ",
"4 4 5 5 5 0 0 8 * * * 8 8 8 8 9 9 9 9 9 9 9 * 8 ] * * 7 7 7 0 7 1 1 1 1 1 7 7 7 1 1 1 1 & & 1 1 1 1 1 1 & . ' O.2 2 7 7 & 7 5 5 ",
"; ; 3 ; ; ; ; p p p p       % % & & & & & & & _ _ x % % % % % & & % % % % % % % % x x x x x % ; ; ; ; ;     ' +.` , ; % % ; ; ; ",
">.>.;.;.;.O.O.O.O.| { { } | O.O.O.;.;.;.;.;.;...;.;.;.;.;.>.<.<.5.5.4.4.4.4.4.4.4.$.#.@.O.O.O.O.s >.f 4.4.$.#.$.#.#.$.4.#.>.4.4.",
"y y y y y y 7 7 y ^ ^ ^ ^ ^ ^ y <.7 7 y y y y y y y y y y y y y y y y y y y y y y y y y y y y f f f @ 7 y y y y y y y y y y y y ",
"K K K K K K y ^ ^ ^ ^ ^ ^ ^ ^ y <.7 7 y ^ y ^ ^ ^ ^ ^ ^ ^ ^ ^ y ^ ^ ^ ^ ^ ^ ^ ^ ^ n y n n n y f f @ 7 y y y y y ^ ^ ^ ^ ^ ^ y K ",
"K K K K ^ K ^ K ^ ^ ^ ^ o.^ ^ y <.7 y ^ ^ ^ ^ ^ ^ ^ ^ ~ ^ ^ ^ ^ ^ ^ ^ ^ ^ ^ ^ ^ ^ ^ ^ ^ n n n f f y y ^ ^ ^ ^ ^ ^ ^ ~ K ~ ~ ~ ~ ",
"^ ^ ^ ^ K ^ ^ ^ ^ ^ K ^ ^ ^ ^ y <.7 y ^ ^ ^ n o.^ ~ n ~ ^ ^ ^ ^ ^ ^ ^ ^ ^ ^ n ^ n ^ ^ ^ ^ ^ n f <.y ^ ^ ^ ^ o.~ K ~ ~ ~ ~ ~ ~ ~ ",
"^ ^ ^ K ^ K ^ ^ ^ K ^ K ^ ^ ^ y $.y y y ^ ^ n ^ ^ n ~ ~ ^ ^ ^ ^ ^ ^ ^ ^ ^ n n n n ^ ^ ^ ^ ^ n $.$.y ~ ~ ~ ~ ~ G ~ ~ G G G ~ Z L ",
"^ ^ ^ K ^ K K K ^ K ^ K K K ^ $.$.y y y n ^ n ^ n n n n n n n n n n n n n ^ n ^ n ^ ^ ^ ^ ^ y y $.y ~ ~ ~ ~ ~ ~ G G Z Z Z Z Z L ",
"^ ^ ^ K K K n n n K K K K K ^ y $.y y ^ n n n ^ ^ n ^ n n n n n n n n n n ^ n n v v ~ v ~ ~ ~ r #.r ~ ~ ~ G ~ Z Z Z Z Z Z L L C ",
"~ v K K v v K K v K K K K K K y f y y v v v v v v v v v v v v v v v v v v v ~ ~ ~ v v v v ~ ~ r +.w P P L L Z Z C t t C L C L L ",
"v v v v G v v v v v G K G G G r d r v v v v v v v r v y v v v v v v v v k k j j j j j j j L L q  .q t t t C e e C e C C e F F F ",
"j j j j j j j j Z Z Z j Z Z Z w s w j j j j j w w w r r w Y j j j j w j q t t t t t t t t L L - } 9 e e C e e e e e e e e e e e ",
"t q t t t t t t Z Z Z Z Z Z q q  .> t t t t t q j q q q q q q q 9 9 e 9 e e 9 e e e e e e D 9 * ] 8 0 e e 0 8 0 0 0 0 0 8 0 0 0 ",
"9 9 e e L e e e e e C C 9 9 9 9 | - 9 e e 9 9 9 9 9 9 9 9 9 9 9 9 9 9 9 8 e 0 q 8 0 0 0 8 7 2 2 ` 7 & 7 7 7 5 5 S 5 5 7 7 7 7 7 ",
"- 9 9 9 9 9 9 e c c 9 9 c 9 9 9 { = * 9 9 9 9 9 8 8 8 8 * 8 8 8 8 7 7 7 7 7 7 4 4 ; ; ; ; % % p x % ; ; ; ; 4 ; ; ; ; ; ; % % % ",
"* * * * * * * * X X X * * * & ' ' ' & & 7 7 7 7 7 7 2 & ; ; ; ; ; ; %   % % ; ; ; ; ; % % % % i i % & & & & & & & & & & % % % % ",
";.;.;.;.=.=.&.&.&.&.&.&.*.*.*.=.=.=.=.=.;.;.;.;.;.;.;.;.;.;.;.=.=.=.=.=.;.;.;.;.;.=.*.*.*.*.*.=.=.;.=.=.=.=.=.=.=.=.=.=.;.;.=.=."
};
