/* XPM */
static const char *cm9zc28_[] = {
/* columns rows colors chars-per-pixel */
"64 64 106 2 ",
"   c #3B3A39",
".  c #432E2E",
"X  c #592F2E",
"o  c #44302E",
"O  c #5B312F",
"+  c #4C3232",
"@  c #5D3130",
"#  c #633432",
"$  c #6C3433",
"%  c #6E3833",
"&  c #743534",
"*  c #7A3736",
"=  c #753A35",
"-  c #7C3A37",
";  c #763A38",
":  c #7E3A38",
">  c #444342",
",  c #484744",
"<  c #504F4C",
"1  c #53524E",
"2  c #595854",
"3  c #615E5D",
"4  c #64625E",
"5  c #7A7773",
"6  c #7B7A75",
"7  c #7E7C79",
"8  c #8D392F",
"9  c #813732",
"0  c #833A34",
"q  c #8B3C35",
"w  c #843B3A",
"e  c #8C3E3D",
"r  c #923E34",
"t  c #983F34",
"y  c #923F39",
"u  c #8C4237",
"i  c #85413B",
"p  c #8D443D",
"a  c #954137",
"s  c #9C4136",
"d  c #94433A",
"f  c #9B453C",
"g  c #96493C",
"h  c #9B493D",
"j  c #B2442F",
"k  c #A54533",
"l  c #A94736",
"z  c #AB4A37",
"x  c #A34639",
"c  c #A6493B",
"v  c #AD4D39",
"b  c #B44630",
"n  c #B64A33",
"m  c #BA4E35",
"M  c #B14F3B",
"N  c #BC4F38",
"B  c #BD5237",
"V  c #BD5337",
"C  c #BC5936",
"Z  c #B0503A",
"A  c #B9513A",
"S  c #BC5338",
"D  c #BB553B",
"F  c #BF5539",
"G  c #BF5E39",
"H  c #924442",
"J  c #954641",
"K  c #817F7A",
"L  c #947A73",
"P  c #967F78",
"I  c #D65F43",
"U  c #D66044",
"Y  c #D66844",
"T  c #82817C",
"R  c #98817A",
"E  c #98827D",
"W  c #9A8580",
"Q  c #9A8981",
"!  c #9C8A83",
"~  c #9D8B84",
"^  c #9D8C86",
"/  c #9F8F89",
"(  c #9F938C",
")  c #9F948D",
"_  c #A0958C",
"`  c #A0958F",
"'  c #BF9B8D",
"]  c #A09791",
"[  c #A39D95",
"{  c #A6A29B",
"}  c #C4AC95",
"|  c #C3A798",
" . c #C4AE99",
".. c #C4AC9B",
"X. c #C4B19F",
"o. c #C4AFA0",
"O. c #C5B3A3",
"+. c #C6B7A5",
"@. c #C6BAA8",
"#. c #C6BDAB",
"$. c #C6BBAD",
"%. c #C5BFAF",
"&. c #C7BFB0",
"*. c #C7C0AE",
"=. c #C7C1B1",
"-. c #C8C3B3",
/* pixels */
"{ ; ; e e e e e e e e d d d d d H d d d p p e e e e e e e e -.-.-.-.e e e e e e e e e e e e e e e e e e e e e p H H J h h h -.{ ",
"; ; ; F F F F F F F c c c c c p p p p p p p d d d c c c e c c -.-.e U U U U e e e e e e e e e e e e e e e F d d F h h h e e ; { ",
"; F F F F F F F F c F F c A A A S F F F F F F F c c c S c c c -.e U F F F F F F U F F F F F F F F F F p F F F F F A h e e e ; -.",
"; F F F F F F F F F F F F c F F F F F F F F F F S c F F S c c -.e U F F U F F F F F S F U S F D S F F F F F S J F D h h h e ; -.",
"= F F F F F c F F F F F c F c c c c F S F S S S S S S S c c c -.e F F F F F F F F F F F S F F F F S f F F F F F F S h h h e e $.",
"= V S S S c c c F F c F c c c c S c c S S F S A A A A A c p c -.e F F F F f S F F F F S F F F S F F f F F f S S S F S F h e e =.",
"& V x x x x c c c c c c c c c c c c c c c S S A A A p c c p c -.e F F f F f f F F f f F f F f f f A f f f f f f f f f f f N f @.",
"% m x x N x x x x x x x x x e c c c c c c c c c c c e e e e p -.e S A A F f F f f f F f f f f f f f f f f f f f f f f f f f f +.",
"% x x x x x q x x q x x x q q q e x x x V x x e x x e e e e e -.p A f S f f F f f f f f f f f f e e e f f f f f f f f f a a g ` ",
"% s s s s s w w w w q x x x x q x q x x q q q x q q e q e e e =.p M f f f f f f f f f f V f f e q q f e a a a a a a m a y y d ` ",
"$ w s s s s s s w w w w s s s s w w w w q q q q q q q % q q e *.p M f e f e f f f f a a a a w w w w w w w w w w w r r : q q # ) ",
"$ w s w w s w w w w w w w s w w w w w w w w w w w w w % % w % %.q s a w w w a w w w y y y r w w w : : : # - - - - * q * q * E ` ",
"# w w w s s w w w w w w s w w w $ $ $ w w w w w w w w w w $ % #.w r r w r w : : : : : q q - - * * * # # * # # & & & & & & 9 * ) ",
"# w w s w w w w w w # # # # # # # # # # # w w w w w w w w % % =.q w q q - q 0 * * * * & & & & @ & @ @ @ & O O & & & & & & & @ ] ",
" .~ w w w $ $ $ % $ $ $ $ % % / < 1 1 1 % % & + + % % % $ $ / 6 ^ w w w w w : * * * * * * - : : # + + $ $ $ + $ : : w : * # $ Q ",
"{ { { { { { -.-.-.%.%.-.-.-.-.{ { { { { { { { -.-.-.{ { { { T T T { -.=.=.-.{ { { { { -.-.-.-.-.-.-.-.-.-.-.-.-.-.-.-.-., , { { ",
"e e e e e ; , 2 { e e e e e e e e e e e p e e e e e e e e F F F e e e h e e e { e e F F e e e e F F F F e e e e e e e e F F e e ",
"F F F e e e e , { e e U U U F F F F F F F F F F F F F F F F F F F F F h F h e { e F F F F F e F F F F F F F e F F F F U F F F F ",
"F F F F F e e e { e F F F U F F F F F F F F F F F U F F F F F F F F F U F h e { e F F U F F e F F F F F F F F F F F F U U F F F ",
"F F F F F F e e { e F U U F F F U U F F h h F F F F F F F F F F F F F F U F h T e F F U U F F F F c F F F F F F F F F F F F F F ",
"S c c c F F e e -.e F F F f F F F F F h h F F S F h h h h h h h h h F F F h e T e F F F F F U F F F F c c F F F F F F F F F F F ",
"c c c c c V V e -.S S S f f S F S f f f f f f f h h f h h h h h h h h h h h h T e F F F F F F F F F F F F c F F F F S S S S S S ",
"x x x x x x V e =.V V V V V V V V s s f f f f f h h p f f f f f f f f f f f f K e S F S S S S S c c c c c c A A A A A A V A V c ",
"x x x x x x N q %.N N N f N f V f f f f f f s s f f s s s s f e s s V V V V f 7 e V N x x x x x x x x x x x M M x x x V m x x x ",
"s s s s s s s w %.w m m a m a m a a a w w a w f w w w w w w q q f f f m f f w 6 e m x x x x x x x x x x x x x x x x x x x x w x ",
"s w s s s s s w @.w a n n a a m a a a w a a a w a w w w a w w w a a a m a a w 5 x s s s s s s s s s m s s s s s s s s s s s w s ",
"s s s s s s - w @.0 r q r r r r r q 0 0 0 r 0 0 0 0 0 0 0 0 0 0 q r r r r q - ) u s s s s - s s s s s s s - s s s s - s s s - - ",
"& r r r r r * * ] q * * * * * * * * * q * * * q * * * * * * * * & & q q & & & ( w & & & & & & & & & & r & & r r r r r & & & & & ",
"& r r r r r & & > q & & & @ @ @ & & & & & & & & & * & 0 0 0 & & & & & 0 & & & ( - & & & & & & & & & & & & & & & & & & r r r & & ",
"$ q q q q q $ $ >   $ X X $ X $ $ & X & & $ & 9 $ $ $ $ $ % $ $ $ $ $ $ $ X X / * $ $ $ $ $ $ X $ X X $ $ $ $ $ $ $ 8 $ 8 $ $ $ ",
"* t s s * & & ' 6     O . . & & O O $ & & & & & & & & & & * : w w w : : : $ X.[ ] w e e e = = % w # @ $ @ $ & = & & $ $ $ $ $ $ ",
"*.{ { { { { T T T T { { { { { -.=.%.=.&.&.%.%.%.%.&.=.-.-.-.-.-.-.-.-.-.-.-.-.{ { { -.-.-.-.T -.-.-.-.-.-.-.-.-.-.-.-.-.-.-.=.=.",
"e e e e e e e e e e e e e e e e e e e e e M e -.-.; ; p p p p p p p p p p p p p p p p p p p p p p p p p p 2 T { { e e e e e e e ",
"F F F F U U U U U F F F F F F F F e e M M M e e -.; p p p p p p G G p p p p G p G G Y Y G G G G G G G p p ; 2 { p p F F e F F F ",
"F F F F F F F F F F F F F F F F F F F e M M e e -.p p G G G G G G G G G p G G G Y G G Y Y G G G G G G G G G ; { e F p F F F U U ",
"F F F F F F F F F F F F F F F F F e F e e M M e -.p G h G G G G G G G G G G G G G G G Y G Y G G h h h h G G ; { e e F F F F U U ",
"F F F F F F F F F F F F M M M F F e F F F F e e -.p G G G G G G G G G Y G G G G G G Y G G Y G G G G h h h G p { e F F F F U F F ",
"F M F F F F F M F F M M M M M F F F F F F F M e -.p G h G G h h G G G G G G G G G G G G G G G G G h h h p p p { e F F F I F F Z ",
"M F F M F M M M M M M M M M M F F F F F F F M e 2 p G G h h h G G G G G G G h h G g h h h h G G G h g g p p p { e F S S I S V V ",
"M M M F M F M M M f M M M M M M M M M M M F M , , h G h G G G h h h h G G h h h h h g g g g g g g G G g g i p { e V V V V V v v ",
"d Z M M M M M f M M f f f M M M M M M M M M M 2 T h G G g g g g h h G g G g g g g g p g g g g g g g g g g i i { q N N m a d d z ",
"d d Z Z M M f f f M f M M M f M M M M M M M M e T h g G G g g g g g g g g g g g g g i g i i g g g C g g d d i %.w q m z d m y m ",
"a d a a v d f f f f f d f f M f f f M M M Z Z e K g g g g g g g g g g g g g g g g g i g i d d d g g d C d d i #.w w m y e e e e ",
"d y d d a d a a e e p p p d d v a v a a v v v e 6 i g g g g g g g g d d d d C d i i d i i i i i p p p p p w i @.w n n e e w q q ",
"e e e e y d m y w w e e e a d d d z d d y d l w 5 i i d d d C p p p p p p p V p w u p w w u w u u u u u u : % @.} n - q - - q q ",
"0 0 q q q q q q : $ $ w w w : w e e w e e w w # ~ : : : : : : : : : : : : : : - - - - - # - - q - * * * * # # ] * j * * * * 0 0 ",
"9 9 9 9 9 9 9 & @ # # * & & * * * * * * * * # * E # # * * = 0 = = = = = = = = = = = = = @ O = = = = = = O o R ] & & & & O & 9 9 ",
"$ $ * $ $ $ $ 4 4 4 4 . . . O @ @ @ @ @ @ @ @ L L L O O O O O @ O O O O O O O O O L L L L L O % % % % % . o R ] P & & O O $ $ $ ",
"@.@.@.@.@.] ` ` ` / Q Q ~ / ) ` ` O.O.@.@.@.+.` O.O.O.@.@.@.-.-.-.-.=.*.%.%.*.=.=.[ [ ] ] ` ` ` 6 @.7 =.=.[ [ { [ [ [ =.[ %.%.%.",
"e e e e e e ; ; e F F F F F F e -.; ; e e e e e e e e e e e e e p p e e e e e e e e e e e e e T T T , ; e e e e e e e e e e e e ",
"M M M M M M e F F F F F F F F e -.; ; e F e F F F F F F F F F e F F F F F F F F F f e f f f e T T , ; e e e e e F F F F F F e Z ",
"M M M M F M F M F F F F U F F e -.; e F F F F F F F F F F F F F F F F F F F F F F F F F f f f T T e e F F F F F F F F Z F S S V ",
"F F F F M F F F F F M F F F F e -.; e F F F f U F F f F F F F F F F F F F F f F f F F F F F f T -.e F F F F I F Z S S V V V V V ",
"F F F M F M F F F M F M F F F e { e e e F F f F F f F F F F F F F F F F F f f f f F F F F F f { { e F F F S S v V V v v v N z N ",
"F F F M F M M M F M F M M M F { { e e e f F f F f f f f f f f f f f f f f F f F f F F F F F e e [ e S V V V V V v v z z z l z m ",
"F F F M M M f f f M M M M M F e { e e F f f f F F f F f f f f f f f f f f F f f f f F d F S S e [ e V V N v N z z l l l l m m l ",
"F d Z Z d d Z Z a Z Z Z Z Z Z e T e e d d d d d d d d d d d d d d d d d d d S S V a a a a V N e ] w m m m N l l l e e l n l n n ",
"a a a a v a a a a a v v v v v e 7 e a a a a a a a e d e a a a a d d a a a a d d d y y d d m m w ` w e e e k e q k q k k q n n n ",
"d d d d d d d d v v v d z z z w 6 w d d d d d w w w w e w m y d d d w y w e e e e e e e e n n # ! - q q k q q q q 0 0 0 0 0 0 0 ",
"e w e e e e e e l l l l l l w w ` $ e e e e e w y w w w w : : w w : q : q q - q q q 0 0 0 b * # E * 0 0 0 9 & 9 9 9 9 9 & 9 9 9 ",
": : q q n q q q e q k k : : : : ^ # : q q : : : : - - - - - * * * * * * * 0 0 0 & 9 9 9 & & & & P & O & & & 9 9 j 9 9 & & & & & ",
"# * * * * * * q k k * * k * * * W # # * * * * * * * * * # & & & & & & & & & & 9 9 & & & & O O 4 L O $ $ $ $ * $ & & $ $ $ O O O ",
"# # # # # # # # . . . # # # @ R R R @ @ & & & & & & & @ & & & & & $ O . X O $ $ $ $ $ X X X X 3 3 O @ @ @ @ @ @ @ @ @ @ X X X X ",
"@.@.@.O.X. . . . . . . . . . . . .X.X.X.O.+.+.+.+.O.+.+.O.O.O.O.O.O.O.O.O.+.O.O.O. .| | | | | ..O.O.X. ......... .....o.O.O....."
};
